<?xml version="1.0" encoding="utf-8"?>
<!-- Generator: Adobe Illustrator 15.0.0, SVG Export Plug-In . SVG Version: 6.00 Build 0)  -->
<!DOCTYPE svg PUBLIC "-//W3C//DTD SVG 1.1//EN" "http://www.w3.org/Graphics/SVG/1.1/DTD/svg11.dtd">
<svg version="1.1" id="Layer_1" xmlns="http://www.w3.org/2000/svg" xmlns:xlink="http://www.w3.org/1999/xlink" x="0px" y="0px"
	 width="200px" height="200px" viewBox="0 0 200 200" enable-background="new 0 0 200 200" xml:space="preserve">
<path fill="#FFFFFF" d="M169.621,102.383c-1.367-4.322-3.52-10.417-7.715-13.014c-1.129-9.134-2.781-18.194-4.822-27.204
	c-1.57-6.937-3.715-13.576-6.533-20.106c-1.73-4.012-3.805-8.098-6.613-11.503c1.223-6.218,1.42-12.78-1.828-18.383
	c-3.172-5.47-9.375-7.778-15.361-8.154c-5.723-0.36-11.637,2.254-15.676,6.175c-3.539,3.437-5.197,8.497-5.844,13.583
	c-1.609,0.176-3.211,0.374-4.779,0.508c-5.068,0.431-10.123,1.163-15.13,2.056c-4.939,0.881-9.791,2.149-14.561,3.698
	c-0.659,0.213-1.316,0.458-1.971,0.714c-1.375-2.704-3.142-5.18-5.549-7.211c-5.126-4.325-12.533-6.098-18.917-3.71
	c-6.603,2.471-11.192,9.276-12.185,16.121c-0.9,6.208,1.289,11.384,5.056,15.651c-2.33,11.588-1.969,23.592-0.59,35.309
	c1.092,9.288,2.221,18.769,4.135,28.01c-2.582,4.967-2.403,10.713-2.844,16.213c-0.131,1.635-0.033,3.295,0.261,4.93
	c-3.525,5.186-6.367,10.846-8.545,16.828c-1.824,5.015-5.495,15.09-0.283,19.267c3.121,2.502,6.801,4.397,10.659,5.899
	c0.07,0.457,0.128,0.918,0.208,1.373c0.645,3.668,2.085,7.351,3.898,10.588c2.445,4.365,7.133,5.205,11.64,5.568
	c8.657,0.699,17.269,0.021,25.845-1.193c5.736-0.813,6.949-7.892,4.948-12.166c-3.676-7.85-6.917-16.797-7.337-25.661
	c1.792,0.071,3.585,0.114,5.38,0.125c14.813-0.132,29.018-3.082,43.208-7.116c6.58-1.871,13.176-3.58,19.543-6.105
	c6.307-2.502,13.092-4.925,17.998-9.787C173.453,125.618,172.811,112.453,169.621,102.383"/>
<path fill="#C95050" d="M57.292,127.443c-11.654,9.153-19.732,22.743-22.205,37.354c-0.086,0.506-0.158,1.06,0.096,1.506
	c0.213,0.377,0.614,0.6,0.998,0.801c5.43,2.843,11.225,4.992,17.196,6.378c0.321-0.856,0.286-1.838-0.095-2.669"/>
<path fill="#E25959" d="M55.456,136.194c-3.953,6.73-6.015,14.417-7.187,22.133c-1.343,8.844-1.495,18.243,2.313,26.336
	c0.381,0.808,0.84,1.642,1.619,2.075c0.555,0.31,1.209,0.378,1.842,0.435c8.435,0.746,16.957,0.49,25.33-0.764
	c-3.744-7.889-6.871-16.171-8.016-24.828c-1.145-8.658-0.203-17.758,3.82-25.508"/>
<path fill="#D1AF83" d="M51.62,124.257c-2.104-6.775-3.627-13.652-4.303-20.663c-0.701-7.279-2.492-14.379-2.914-21.74
	c-0.389-6.789-0.947-13.941-0.35-20.693c0.363-4.122,1.123-8.209,2.263-12.187c-2.89-1.962-5.993-5.762-6.211-9.417
	c-0.22-3.698,1.763-7.811,4.368-10.335c3.367-3.26,9.165-2.642,12.91,0.176c4.015,3.022,5.512,8.076,6.764,12.71
	c0.989-0.318,1.622-1.135,2.501-1.664c1.399-0.842,3.14-1.312,4.675-1.856c3.262-1.156,6.588-2.138,9.954-2.943
	c5.099-1.219,10.517-2.139,15.82-2.738c2.791-0.315,5.59-0.55,8.393-0.717c2.566-0.152,5.15-0.858,7.721-0.437
	c-0.27-4.251,0.252-9.692,2.215-13.576c3.955-7.827,19.299-8.384,20.818,1.624c0.709,4.673-0.174,8.867-1.414,13.329
	c2.846,1.582,4.932,6.065,6.465,8.856c5.09,9.268,7.316,19.852,9.486,30.11c2.414,11.415,3.863,23.035,4.322,34.694"/>
<path fill="#F4F2EA" d="M47.669,42.68c0.841,1.655,2.044,3.32,3.835,3.804l0.365,0.218c1.902-1.129,3.857-2.166,5.855-3.123
	c0.033-2.504-1.314-4.831-2.631-6.984c-0.492-0.804-0.996-1.625-1.727-2.221c-1.699-1.389-4.506-1.111-5.9,0.584
	c-0.865,1.055-1.17,2.492-1.049,3.851S47.051,41.464,47.669,42.68"/>
<path fill="#F4F2EA" d="M128.916,31.633c0.465-1.878,0.715-3.81,0.727-5.745c0.01-1.679-0.246-3.545-1.533-4.623
	c-1.152-0.965-2.895-1.005-4.254-0.365c-1.359,0.64-2.375,1.854-3.096,3.174c-1.064,1.95-1.553,4.203-1.426,6.419
	C122.549,30.559,125.766,30.953,128.916,31.633"/>
<path fill="#F4F2EA" d="M108.588,64.816c-3.891-5.411-8.389-9.065-15.251-8.242c-5.99,0.719-9.541,6.065-11.57,11.247
	c-2.539,6.492-3.978,14.299-4.586,21.202c-0.364,4.118,2.722,8.558,6.285,10.524c2.41,1.33,5.187,1.88,7.937,2.005
	c6.073,0.276,12.059-1.426,17.78-3.483c2.041-0.733,4.135-1.558,5.65-3.108c3.117-3.187,2.852-8.333,1.797-12.665
	C115.1,76.026,112.355,70.056,108.588,64.816"/>
<path fill="#F96461" d="M98.805,71.255c1.292-1.648,2.306-3.725,2.73-5.076c2.693-8.602-10.531-6.394-14.384-3.49
	c-0.737,0.556-1.44,1.294-1.53,2.214c-0.039,0.403,0.044,0.807,0.149,1.198c0.95,3.53,3.847,6.47,7.362,7.473
	c0.75,0.214,1.544,0.346,2.312,0.203C96.632,73.555,97.802,72.535,98.805,71.255"/>
<path fill="#9D6E54" d="M61.301,61.646c-0.344,5.735,2.562,13.742,9.488,13.095c6.994-0.655,8.146-9.137,7.646-14.583
	c-0.149-1.634-2.718-1.649-2.567,0c0.398,4.334,0.262,10.044-4.58,11.867c-5.658,2.13-7.646-6.605-7.42-10.379
	C63.967,59.991,61.4,60,61.301,61.646"/>
<path fill="#9D6E54" d="M109.455,54.175c0.176,5.903,4.051,11.682,10.572,10.838c6.408-0.828,8.322-10.234,6.02-15.203
	c-0.695-1.501-2.908-0.196-2.217,1.295c1.746,3.773,0.033,10.845-4.588,11.443c-4.742,0.613-7.104-4.474-7.221-8.373
	C111.973,52.523,109.404,52.519,109.455,54.175"/>
<path fill="#9D6E54" d="M93.381,74.279c0.154,1.496,0.308,2.993,0.461,4.489c0.168,1.63,2.736,1.646,2.568,0
	c-0.154-1.496-0.309-2.993-0.463-4.489C95.782,72.649,93.211,72.633,93.381,74.279"/>
<path fill="#9D6E54" d="M84.126,75.396c2.504,3.758,6.854,6.426,11.529,5.516c5.663-1.102,8.825-5.32,10.497-10.599
	c0.5-1.583-1.979-2.255-2.477-0.683c-1.047,3.308-2.596,6.032-5.625,7.861c-4.166,2.516-9.252,0.296-11.707-3.391
	C85.43,72.73,83.206,74.014,84.126,75.396"/>
<path fill="#BF9A61" d="M56.393,62.085c0.271-0.045,0.327-1.052,0.287-2.262c-0.047-1.209-0.175-2.209-0.449-2.235
	c-0.27-0.027-0.588,0.99-0.539,2.271C55.737,61.14,56.126,62.131,56.393,62.085"/>
<path fill="#BF9A61" d="M51.909,68.503c0.268-0.067,0.328-0.74,0.285-1.522c-0.048-0.781-0.186-1.442-0.459-1.478
	c-0.268-0.037-0.58,0.65-0.527,1.536C51.256,67.924,51.648,68.571,51.909,68.503"/>
<path fill="#BF9A61" d="M63.061,75.557c0.25-0.121,0.216-0.697,0.113-1.338c-0.111-0.64-0.268-1.195-0.541-1.229
	c-0.268-0.037-0.568,0.594-0.435,1.392C62.332,75.18,62.822,75.679,63.061,75.557"/>
<path fill="#BF9A61" d="M56.215,77.482c0.273,0,0.494-0.479,0.494-1.07c0-0.59-0.221-1.069-0.494-1.069s-0.494,0.479-0.494,1.069
	C55.721,77.003,55.942,77.482,56.215,77.482"/>
<path fill="#BF9A61" d="M49.167,86.463c0.259-0.097,0.187-0.919,0.012-1.881c-0.181-0.96-0.409-1.754-0.685-1.751
	c-0.27,0-0.484,0.876-0.287,1.931C48.401,85.819,48.917,86.561,49.167,86.463"/>
<path fill="#BF9A61" d="M61.077,88.408c0.265-0.065,0.338-0.693,0.166-1.403c-0.174-0.709-0.53-1.232-0.795-1.167
	c-0.266,0.065-0.34,0.693-0.166,1.402C60.456,87.95,60.811,88.473,61.077,88.408"/>
<path fill="#BF9A61" d="M68.413,88.178c0.26-0.097,0.241-0.773,0.131-1.548c-0.115-0.774-0.291-1.426-0.566-1.446
	c-0.27-0.022-0.542,0.696-0.411,1.589C67.695,87.666,68.163,88.276,68.413,88.178"/>
<path fill="#BF9A61" d="M64.313,96.529c0.267-0.06,0.332-0.777,0.146-1.603c-0.186-0.825-0.553-1.445-0.818-1.385
	s-0.332,0.777-0.146,1.602C63.68,95.968,64.047,96.589,64.313,96.529"/>
<path fill="#BF9A61" d="M55.358,101.016c0.256-0.107,0.212-0.777,0.107-1.543c-0.113-0.765-0.258-1.419-0.532-1.452
	c-0.267-0.037-0.577,0.682-0.447,1.591C54.614,100.521,55.112,101.125,55.358,101.016"/>
<path fill="#BF9A61" d="M72.25,101.875c0.242-0.131,0.312-0.472,0.275-0.798c-0.047-0.325-0.203-0.638-0.469-0.702
	c-0.263-0.068-0.578,0.307-0.512,0.829C71.614,101.727,72.014,102.008,72.25,101.875"/>
<path fill="#BF9A61" d="M66.7,51.382c0.234-0.148,0.016-0.91-0.264-1.8c-0.286-0.886-0.549-1.635-0.825-1.62
	c-0.269,0.009-0.443,0.898-0.116,1.92C65.819,50.906,66.475,51.529,66.7,51.382"/>
<path fill="#BF9A61" d="M81.663,51.385c0.268-0.05,0.388-0.617,0.268-1.266c-0.121-0.649-0.436-1.135-0.703-1.086
	c-0.269,0.05-0.389,0.617-0.269,1.266C81.079,50.949,81.395,51.435,81.663,51.385"/>
<path fill="#BF9A61" d="M70.528,61.653c0.272-0.023,0.439-0.664,0.373-1.432c-0.065-0.767-0.34-1.37-0.611-1.347
	c-0.271,0.023-0.439,0.664-0.373,1.432C69.983,61.073,70.256,61.676,70.528,61.653"/>
<path fill="#BF9A61" d="M61.085,107.867c0.271-0.032,0.446-0.441,0.39-0.914c-0.056-0.473-0.32-0.832-0.592-0.799
	c-0.271,0.031-0.445,0.44-0.39,0.914C60.549,107.541,60.815,107.898,61.085,107.867"/>
<path fill="#BF9A61" d="M52.799,109.569c0.25-0.114,0.112-0.956-0.183-1.928c-0.298-0.97-0.655-1.746-0.927-1.7
	c-0.266,0.044-0.338,0.951-0.018,1.989C51.988,108.97,52.553,109.683,52.799,109.569"/>
<path fill="#BF9A61" d="M81.446,107.01c0.258-0.092,0.312-0.595,0.122-1.122c-0.188-0.526-0.551-0.88-0.808-0.788
	c-0.258,0.094-0.312,0.596-0.122,1.122C80.827,106.75,81.189,107.102,81.446,107.01"/>
<path fill="#BF9A61" d="M91.086,40.9c0.253-0.101,0.267-0.662,0.031-1.253c-0.236-0.591-0.633-0.988-0.888-0.886
	c-0.253,0.101-0.267,0.662-0.03,1.253C90.436,40.605,90.833,41.001,91.086,40.9"/>
<path fill="#BF9A61" d="M103.938,47.951c0.234-0.147,0.031-0.894-0.191-1.773c-0.234-0.875-0.42-1.628-0.697-1.642
	c-0.266-0.019-0.533,0.851-0.26,1.891C103.057,47.468,103.713,48.098,103.938,47.951"/>
<path fill="#BF9A61" d="M96.008,51.382c0.222-0.164,0.054-0.764-0.225-1.42c-0.285-0.654-0.604-1.188-0.877-1.14
	c-0.266,0.044-0.365,0.758-0.031,1.53C95.208,51.125,95.793,51.544,96.008,51.382"/>
<path fill="#BF9A61" d="M111.822,40.052c0.246-0.12,0.188-0.737-0.125-1.377c-0.316-0.641-0.77-1.062-1.014-0.942
	s-0.189,0.737,0.125,1.377C111.123,39.75,111.578,40.171,111.822,40.052"/>
<path fill="#BF9A61" d="M131.104,42.605c0.24-0.135,0.152-0.744-0.08-1.409c-0.238-0.663-0.553-1.191-0.824-1.145
	c-0.266,0.044-0.375,0.722-0.107,1.475C130.357,42.28,130.867,42.739,131.104,42.605"/>
<path fill="#BF9A61" d="M120.594,45.826c0.258-0.091,0.215-0.878-0.096-1.759c-0.309-0.881-0.768-1.522-1.025-1.432
	c-0.258,0.091-0.215,0.879,0.094,1.76C119.877,45.275,120.338,45.917,120.594,45.826"/>
<path fill="#BF9A61" d="M137.303,57.157c0.264-0.057,0.316-0.831-0.074-1.657c-0.385-0.826-1.012-1.282-1.225-1.116
	c-0.219,0.168-0.002,0.816,0.33,1.536C136.674,56.637,137.035,57.218,137.303,57.157"/>
<path fill="#BF9A61" d="M131.752,65.495c0.254-0.099,0.148-0.983-0.236-1.976c-0.385-0.992-0.902-1.717-1.158-1.618
	c-0.254,0.098-0.148,0.983,0.236,1.976C130.979,64.869,131.498,65.594,131.752,65.495"/>
<path fill="#BF9A61" d="M123.141,71.931c0.262-0.082,0.277-0.77,0.035-1.536s-0.648-1.321-0.91-1.239
	c-0.26,0.082-0.273,0.77-0.033,1.536C122.475,71.458,122.881,72.013,123.141,71.931"/>
<path fill="#BF9A61" d="M133.234,74.271c0.238-0.14,0.197-0.646,0.033-1.181c-0.168-0.533-0.422-0.973-0.695-0.954
	c-0.271,0.016-0.453,0.591-0.248,1.248C132.527,74.041,133.004,74.411,133.234,74.271"/>
<path fill="#BF9A61" d="M145.234,72.554c0.256-0.091,0.178-0.979-0.174-1.983c-0.355-1.005-0.85-1.745-1.107-1.655
	c-0.258,0.091-0.18,0.979,0.174,1.983C144.48,71.904,144.977,72.645,145.234,72.554"/>
<path fill="#BF9A61" d="M139.613,81.339c0.27-0.044,0.395-0.654,0.279-1.364c-0.115-0.709-0.426-1.249-0.695-1.205
	c-0.27,0.043-0.395,0.654-0.279,1.363C139.031,80.843,139.344,81.383,139.613,81.339"/>
<path fill="#BF9A61" d="M126.383,84.116c0.232-0.151,0.189-0.626,0.098-1.13c-0.105-0.502-0.244-0.957-0.518-1.01
	c-0.262-0.057-0.592,0.49-0.453,1.2S126.16,84.269,126.383,84.116"/>
<path fill="#BF9A61" d="M137.479,87.544c0.268-0.06,0.354-0.687,0.191-1.399c-0.16-0.713-0.508-1.242-0.773-1.181
	c-0.266,0.06-0.352,0.686-0.189,1.399C136.867,87.075,137.213,87.604,137.479,87.544"/>
<path fill="#BF9A61" d="M128.699,93.539c0.264-0.074,0.326-0.66,0.143-1.308s-0.545-1.113-0.809-1.039
	c-0.262,0.075-0.324,0.66-0.143,1.308C128.074,93.147,128.436,93.612,128.699,93.539"/>
<path fill="#BF9A61" d="M116.781,102.082c0.27-0.041,0.432-0.455,0.363-0.926s-0.344-0.82-0.613-0.781
	c-0.271,0.039-0.434,0.453-0.365,0.924C116.236,101.771,116.51,102.121,116.781,102.082"/>
<path fill="#BF9A61" d="M105.617,107.654c0.25-0.11,0.201-0.77-0.107-1.473s-0.762-1.183-1.012-1.074
	c-0.25,0.11-0.201,0.77,0.107,1.473S105.367,107.764,105.617,107.654"/>
<path fill="#BF9A61" d="M88.507,116.207c0.267-0.069,0.321-0.742,0.272-1.522c-0.053-0.779-0.193-1.439-0.467-1.475
	c-0.267-0.036-0.578,0.652-0.52,1.538C87.849,115.634,88.247,116.276,88.507,116.207"/>
<path fill="#BF9A61" d="M64.976,112.356c0.258-0.096,0.317-0.578,0.272-1.104c-0.052-0.524-0.195-0.989-0.468-1.037
	c-0.265-0.049-0.579,0.456-0.517,1.127C64.325,112.014,64.723,112.454,64.976,112.356"/>
<path fill="#BF9A61" d="M130.24,106.358c0.189-0.203,0.043-0.651-0.092-1.135c-0.154-0.478-0.277-0.933-0.547-0.998
	c-0.26-0.077-0.627,0.524-0.4,1.282C129.428,106.265,130.066,106.564,130.24,106.358"/>
<path fill="#BF9A61" d="M141.564,104.447c0.191-0.199,0.002-0.691-0.254-1.216c-0.268-0.519-0.549-0.966-0.824-0.931
	c-0.268,0.029-0.406,0.688-0.061,1.375S141.381,104.646,141.564,104.447"/>
<path fill="#BF9A61" d="M148.869,87.095c0.232-0.145,0.031-0.882-0.449-1.646c-0.479-0.763-1.055-1.265-1.285-1.12
	c-0.232,0.146-0.031,0.882,0.449,1.646C148.062,86.739,148.639,87.24,148.869,87.095"/>
<path fill="#BF9A61" d="M118.055,55.652c0.229-0.157-0.01-0.891-0.357-1.727c-0.355-0.833-0.713-1.516-0.984-1.463
	c-0.266,0.049-0.324,0.907,0.072,1.847C117.18,55.25,117.836,55.807,118.055,55.652"/>
<path fill="#BF9A61" d="M119.521,78.345c0.254-0.102,0.305-0.564,0.115-1.032c-0.188-0.468-0.547-0.764-0.801-0.662
	c-0.252,0.102-0.305,0.564-0.115,1.032C118.91,78.151,119.268,78.447,119.521,78.345"/>
<path fill="#BF9A61" d="M140.311,51.364c0.199-0.192,0.02-0.696-0.26-1.221c-0.285-0.521-0.607-0.947-0.877-0.887
	c-0.266,0.055-0.348,0.7,0.008,1.356C139.535,51.27,140.119,51.555,140.311,51.364"/>
<path fill="#BF9A61" d="M53.648,55.447c0.247-0.126,0.132-0.839-0.03-1.664c-0.17-0.823-0.341-1.525-0.617-1.545
	c-0.268-0.025-0.549,0.769-0.351,1.741C52.844,54.952,53.411,55.573,53.648,55.447"/>
<path fill="#F96461" d="M84.568,148.411c-7.372,0.01-14.745-0.59-22.017-1.805c-5.982-0.998-11.869-1.994-14.864-7.992
	c-1.565-3.135-1.737-5.761-1.383-9.09c0.437-4.103-0.177-9.531,3.12-12.588c0.082-0.078,0.173-0.154,0.283-0.186
	c0.182-0.053,0.373,0.029,0.545,0.111c2.008,0.949,3.934,1.307,6.182,1.307c3.581,0.265,7.181,0.219,10.766,0.058
	c11.661-0.524,23.227-2.274,34.767-4.021c10.182-1.539,20.344-3.454,30.166-6.585c4.979-1.586,9.863-3.482,14.566-5.764
	c2.041-0.99,4.154-1.812,6.174-2.849c1.055-0.541,3.611-3.049,4.666-2.618c0.438,0.178,0.707,0.607,0.939,1.017
	c5.059,8.926,8.668,24.744-0.727,31.977c-1.916,1.476-4.152,2.462-6.367,3.433c-5.291,2.324-10.311,4.457-15.814,5.959
	c-6.123,1.67-12.203,3.492-18.332,5.139C106.6,146.776,95.594,148.397,84.568,148.411"/>
<path fill="#E25959" d="M58.76,118.294c-0.775-0.031-1.551-0.067-2.326-0.125c-0.98,0-1.897-0.074-2.787-0.229
	c-1.061,8.822-0.979,17.714,0.225,26.484c1.68,0.746,3.52,1.224,5.426,1.604C57.809,136.862,57.62,127.544,58.76,118.294"/>
<path fill="#E25959" d="M72.174,117.926c-1.656,0.121-3.314,0.226-4.975,0.302c-0.059,0.002-0.115,0.002-0.174,0.006
	c-0.758,9.805-0.154,19.646,1.818,29.263c1.787,0.21,3.578,0.385,5.373,0.522C72.025,138.147,71.325,128.021,72.174,117.926"/>
<path fill="#E25959" d="M85.444,116.568c-1.711,0.217-3.422,0.425-5.134,0.613c-0.007,10.588,1.567,21.079,4.623,31.223
	c1.749-0.008,3.497-0.065,5.244-0.153C86.94,137.993,85.374,127.312,85.444,116.568"/>
<path fill="#E25959" d="M93.474,115.474c0.815,10.914,3.318,21.62,7.405,31.778c1.732-0.239,3.459-0.524,5.182-0.835
	c-4.205-10.109-6.711-20.79-7.486-31.699C96.874,114.974,95.175,115.228,93.474,115.474"/>
<path fill="#E25959" d="M109.328,113.013c2.205,10.407,4.535,20.786,6.996,31.135c0.305-0.08,0.609-0.149,0.914-0.231
	c1.35-0.362,2.695-0.736,4.043-1.113c-2.432-10.213-4.732-20.457-6.912-30.728C112.691,112.405,111.012,112.719,109.328,113.013"/>
<path fill="#E25959" d="M123.865,109.961c2.713,9.977,4.412,20.198,5.793,30.469c1.65-0.47,3.305-0.933,4.961-1.39
	c-1.383-10.252-3.088-20.457-5.797-30.417C127.178,109.099,125.525,109.541,123.865,109.961"/>
<path fill="#E25959" d="M136.73,106.043c3.648,9.692,6.602,19.614,7.379,29.843c1.666-0.657,3.324-1.353,5-2.076
	c-0.992-10.135-3.99-19.996-7.629-29.624C139.91,104.84,138.328,105.461,136.73,106.043"/>
<path fill="#E25959" d="M162.854,121.577c-1.678-8.183-4.676-16.11-8.299-23.764c-0.668,0.503-1.281,0.99-1.682,1.195
	c-0.92,0.472-1.861,0.898-2.805,1.317c4.248,9.027,7.547,18.425,8.668,28.219C160.803,126.624,162.121,124.229,162.854,121.577"/>
</svg>
