<?xml version="1.0" encoding="utf-8"?>
<!-- Generator: Adobe Illustrator 15.0.0, SVG Export Plug-In . SVG Version: 6.00 Build 0)  -->
<!DOCTYPE svg PUBLIC "-//W3C//DTD SVG 1.1//EN" "http://www.w3.org/Graphics/SVG/1.1/DTD/svg11.dtd">
<svg version="1.1" id="Layer_1" xmlns="http://www.w3.org/2000/svg" xmlns:xlink="http://www.w3.org/1999/xlink" x="0px" y="0px"
	 width="200px" height="200px" viewBox="0 0 200 200" enable-background="new 0 0 200 200" xml:space="preserve">
<g>
	<defs>
		<rect id="SVGID_1_" x="-150" y="-140" width="500" height="500"/>
	</defs>
	<clipPath id="SVGID_2_">
		<use xlink:href="#SVGID_1_"  overflow="visible"/>
	</clipPath>
	<g clip-path="url(#SVGID_2_)">
		<defs>
			<rect id="SVGID_3_" x="-150" y="-140" width="500" height="500"/>
		</defs>
		<clipPath id="SVGID_4_">
			<use xlink:href="#SVGID_3_"  overflow="visible"/>
		</clipPath>
		<path clip-path="url(#SVGID_4_)" fill="#FFFFFF" d="M157.816,15.91c-0.785-1.805-2.309-3.183-4.182-3.785
			c-1.875-0.602-3.916-0.366-5.605,0.644C131,22.956,117.752,39.863,111.586,58.905c-0.766-0.164-1.537-0.308-2.307-0.433
			c-0.297-0.048-0.596-0.094-0.891-0.139C106.586,38.306,97.545,19.316,83.067,5.49c-1.423-1.359-3.362-2.039-5.323-1.868
			c-1.96,0.172-3.751,1.18-4.917,2.765c-2.776,3.781-4.357,8.668-4.571,14.132c-0.166,4.236,0.464,8.271,1.179,12.376
			c1.31,7.505,2.854,15.473,6.035,23.111c0.935,2.246,1.983,4.375,3.138,6.377c-1.607,0.9-3.113,1.921-4.511,3.061
			c-2.201,1.795-4.24,3.952-6.419,6.791c-8.527,11.118-13.24,24.958-13.267,38.974c-0.003,2.025,0.084,4.537,0.671,7.156
			l-0.383,0.803c-1.298,2.717-2.639,5.527-3.79,8.508c-0.283,0.74-0.555,1.488-0.807,2.234c-0.119,0.348-0.235,0.695-0.343,1.041
			c-0.082,0.256-0.163,0.514-0.238,0.766c-0.198,0.662-0.385,1.33-0.555,2.006c-0.43,1.719-0.794,3.609-0.551,5.77
			c0.044,0.391,0.108,0.783,0.187,1.15c0.792,3.684,3.528,7.033,6.368,10.105c1.08,1.166,2.289,2.232,3.697,3.256
			c0.413,0.301,0.834,0.592,1.267,0.873c0.776,0.508,1.593,0.998,2.497,1.5c0.723,0.398,1.508,0.809,2.395,1.248
			c0.853,0.424,1.758,0.846,2.902,1.355c6.791,3.074,13.993,5.326,21.405,6.697c0.015,0.004,0.03,0.006,0.045,0.01
			c1.343,0.248,2.558,0.449,3.703,0.613c1.291,0.189,2.57,0.35,3.804,0.475c0.663,0.068,1.326,0.137,1.991,0.201l0.412,0.039
			c-0.489,6.363-1.93,12.66-4.249,18.496c-0.823,2.07-0.585,4.414,0.638,6.277c1.221,1.863,3.276,3.016,5.503,3.088
			c1.633,0.051,3.292,0.076,4.928,0.076h0.001c5.532,0,11.124-0.301,16.624-0.893c0.996-0.105,3.33-0.359,5.418-2.143
			c2.727-2.326,3.055-5.561,3.162-6.621c0.033-0.328,0.064-0.66,0.092-0.998c4.949-1.887,9.559-4.562,11.18-5.541
			c0.846-0.512,3.094-1.873,4.121-4.766c0.758-2.139,0.432-3.99,0.291-4.783c-1.439-8.145-4.691-16.129-10.48-25.678
			c-0.004-0.479-0.004-0.916,0.004-1.338c0.023-1.713,0.123-3.109,0.309-4.402c0.012-0.072,0.023-0.148,0.035-0.225
			c6.139-5.875,7.555-15.174,8.623-22.172c0.104-0.68,0.203-1.334,0.305-1.959c1.865-11.556-0.371-23.95-6.295-34.896
			c-1.053-1.945-2.23-3.751-3.527-5.41c3.064-2.633,5.904-5.78,8.488-9.417c4.797-6.745,8.064-14.172,11.002-21.201
			c1.605-3.846,3.113-7.642,3.889-11.808C160.148,25.327,159.688,20.211,157.816,15.91"/>
		<path clip-path="url(#SVGID_4_)" fill="#4D9E9E" d="M124.379,137.732c6.854,10.047,13.557,20.662,15.678,32.668
			c0.076,0.434,0.146,0.891-0.002,1.305c-0.195,0.549-0.721,0.898-1.217,1.199c-3.641,2.203-17.047,9.666-20.475,5.205
			c-1.682-2.191-1.502-9.869-2.547-12.898c-1.51-4.381-3.541-8.562-5.457-12.768c-0.232-0.51-0.469-1.061-0.361-1.611
			c0.105-0.549,0.725-1.025,1.219-0.771"/>
		<path clip-path="url(#SVGID_4_)" fill="#58ADAF" d="M105.189,150.799c2.069,12.463,0.671,25.498-3.993,37.238
			c6.872,0.221,13.763-0.043,20.599-0.777c0.605-0.064,1.25-0.15,1.713-0.547c0.586-0.5,0.719-1.342,0.797-2.111
			c1.17-11.445-1.076-23.215-6.373-33.398"/>
		<path clip-path="url(#SVGID_4_)" fill="#66BCC3" d="M63.181,113.541c0.033,2.361-0.481,4.729-1.492,6.863
			c-2.343,4.947-4.741,9.598-6.085,14.977c-0.312,1.252-0.583,2.562-0.312,3.824c0.482,2.248,3.147,5.217,4.701,6.896
			c2.172,2.35,5.034,3.986,7.873,5.395c9.222,4.57,19.279,7.422,29.514,8.475c5.648,0.578,11.339,1.098,17.019,0.764
			c7.867-0.463,15.518-2.793,15.191-12.373c-0.131-3.85-0.287-7.705,0.268-11.545c0.439-3.039,1.717-7.553-0.379-10.309"/>
		<path clip-path="url(#SVGID_4_)" fill="#4D9E9E" d="M111.285,123.527c0.209-0.148,0.393-0.307,0.562-0.467l-13.379-2.617
			c-8.252,3.768-17.769,5.551-26.352,7.283c-4.903,0.994-9.851,1.791-14.822,2.408c-0.653,1.693-1.235,3.426-1.69,5.246
			c-0.313,1.252-0.583,2.562-0.312,3.824c0.018,0.082,0.044,0.168,0.068,0.254c6.087-0.648,12.152-1.541,18.187-2.719
			C86.367,134.238,100.471,131.207,111.285,123.527"/>
		<path clip-path="url(#SVGID_4_)" fill="#4D9E9E" d="M129.479,126.508l-4.283-0.838c-20.168,10.938-42.43,17.902-65.23,20.402
			c0.008,0.01,0.018,0.02,0.026,0.029c2.173,2.35,5.035,3.986,7.874,5.395c1.412,0.699,2.85,1.346,4.299,1.963
			c20.383-3.508,40.104-10.373,58.295-20.34C130.777,130.758,130.822,128.273,129.479,126.508"/>
		<path clip-path="url(#SVGID_4_)" fill="#4D9E9E" d="M129.59,148.361c-0.07-2.09-0.145-4.182-0.113-6.273
			c-6.984,4.172-14.318,7.762-21.826,10.875c-5.613,2.326-11.376,4.322-17.238,5.994c2.308,0.426,4.633,0.773,6.967,1.014
			c5.033,0.516,10.095,0.979,15.158,0.84c5.66-2.352,11.166-5.057,16.52-8.033C129.453,151.51,129.648,150.051,129.59,148.361"/>
		<path clip-path="url(#SVGID_4_)" fill="#F4F0E6" d="M115.459,71.944c3.498-21.876,17.074-41.93,36.084-53.305
			c1.463,3.365,1.549,7.204,0.879,10.811c-0.672,3.608-2.062,7.037-3.477,10.424c-2.881,6.895-5.936,13.784-10.264,19.876
			c-4.33,6.091-10.059,11.391-17.029,14.084"/>
		<path clip-path="url(#SVGID_4_)" fill="#E29F9F" d="M119.033,72.741c1.992-12.104,8.238-23.467,17.391-31.635
			c0.59-0.525,1.529-1.037,2.08-0.473c0.221,0.227,0.287,0.559,0.322,0.873c0.35,2.918-0.77,5.801-2.023,8.46
			c-4.121,8.739-9.965,16.661-17.1,23.178"/>
		<path clip-path="url(#SVGID_4_)" fill="#F4F0E6" d="M101.733,70.406c1.431-22.106-7.371-44.668-23.391-59.968
			c-2.173,2.957-3.105,6.681-3.25,10.348c-0.143,3.667,0.453,7.319,1.083,10.934c1.283,7.361,2.735,14.758,5.61,21.655
			c2.873,6.897,7.287,13.335,13.489,17.504"/>
		<path clip-path="url(#SVGID_4_)" fill="#E29F9F" d="M98.071,70.392c0.737-12.245-2.84-24.707-9.958-34.699
			c-0.458-0.643-1.26-1.349-1.924-0.921c-0.266,0.172-0.402,0.482-0.51,0.78c-0.984,2.769-0.531,5.828,0.103,8.698
			c2.087,9.434,6.033,18.453,11.546,26.388"/>
		<path clip-path="url(#SVGID_4_)" fill="#F4F0E6" d="M133.277,81.796c-1.811-3.348-4.191-6.386-7.072-8.744
			c-5.145-4.208-11.479-6.764-18.023-7.826c-5.133-0.833-10.416-1.121-15.578-0.375c-5.13,0.741-10.167,2.621-14.184,5.896
			c-2.009,1.638-3.736,3.596-5.313,5.653c-7.597,9.903-11.831,22.34-11.854,34.821c-0.004,2.473,0.158,4.984,0.981,7.316
			c2.422,6.863,10.411,10.727,16.956,12.438c4.898,1.279,9.913,2.939,14.898,3.607c6.971,0.934,14.256,1.869,21.411,2
			c4.396,0.08,9.064,0.035,13.166-1.756c7.91-3.457,8.973-15.062,10.17-22.48C140.52,101.914,138.234,90.953,133.277,81.796"/>
		<path clip-path="url(#SVGID_4_)" fill="#F96461" d="M97.731,110.338c0.69,0.012,1.415-0.148,2.146-0.516
			c1.875-0.942,7.416-5.178,4.183-7.403c-2.605-1.793-6.332-2.293-9.406-2.446c-1.383-0.068-2.043,1.09-2.304,2.368
			C91.61,105.953,94.273,110.279,97.731,110.338"/>
		<path clip-path="url(#SVGID_4_)" fill="#9C5626" d="M95.981,110.18c-0.344,1.543-0.686,3.086-1.029,4.627
			c-0.212,0.957,1.3,1.117,1.511,0.17c0.343-1.543,0.686-3.084,1.029-4.627C97.704,109.393,96.192,109.234,95.981,110.18"/>
		<path clip-path="url(#SVGID_4_)" fill="#9C5626" d="M89.93,110.99c2.308,5.15,8.51,6.617,12.867,3.018
			c0.756-0.625-0.191-1.814-0.947-1.188c-3.608,2.98-8.612,1.832-10.528-2.447C90.92,109.479,89.529,110.094,89.93,110.99"/>
		<path clip-path="url(#SVGID_4_)" fill="#9C5626" d="M85.688,101.687c5.846,0.655,6.86-8.411,1.014-9.066
			C80.856,91.966,79.841,101.032,85.688,101.687"/>
		<path clip-path="url(#SVGID_4_)" fill="#9C5626" d="M110.717,106.407c5.846,0.654,6.861-8.411,1.014-9.067
			C105.887,96.685,104.869,105.751,110.717,106.407"/>
		<g clip-path="url(#SVGID_4_)">
			<g>
				<defs>
					<rect id="SVGID_5_" x="107.021" y="107.74" width="15.106" height="11.163"/>
				</defs>
				<clipPath id="SVGID_6_">
					<use xlink:href="#SVGID_5_"  overflow="visible"/>
				</clipPath>
				<path clip-path="url(#SVGID_6_)" fill="#EAD6DB" d="M122.07,115.07c0.307-2.248-0.631-4.855-2.625-5.852
					c-2.67-1.333-7.566-2.278-10.229-0.512c-1.387,0.92-2.539,3.254-2.103,4.903c0.691,2.619,3.937,3.914,6.235,4.592
					c1.822,0.537,3.752,0.932,5.613,0.551C120.824,118.375,121.83,116.832,122.07,115.07"/>
			</g>
		</g>
		<g clip-path="url(#SVGID_4_)">
			<g>
				<defs>
					<rect id="SVGID_7_" x="69.808" y="101.683" width="15.107" height="11.165"/>
				</defs>
				<clipPath id="SVGID_8_">
					<use xlink:href="#SVGID_7_"  overflow="visible"/>
				</clipPath>
				<path clip-path="url(#SVGID_8_)" fill="#EAD6DB" d="M84.857,109.015c0.308-2.25-0.631-4.857-2.624-5.854
					c-2.67-1.333-7.567-2.278-10.23-0.511c-1.386,0.919-2.538,3.254-2.102,4.901c0.693,2.62,3.938,3.915,6.236,4.592
					c1.823,0.535,3.753,0.93,5.614,0.553C83.612,112.318,84.617,110.777,84.857,109.015"/>
			</g>
		</g>
	</g>
	<g clip-path="url(#SVGID_2_)">
		<defs>
			<rect id="SVGID_9_" x="-150" y="-140" width="500" height="500"/>
		</defs>
		<clipPath id="SVGID_10_">
			<use xlink:href="#SVGID_9_"  overflow="visible"/>
		</clipPath>
	</g>
</g>
</svg>
