<?xml version="1.0" encoding="utf-8"?>
<!-- Generator: Adobe Illustrator 15.0.0, SVG Export Plug-In . SVG Version: 6.00 Build 0)  -->
<!DOCTYPE svg PUBLIC "-//W3C//DTD SVG 1.1//EN" "http://www.w3.org/Graphics/SVG/1.1/DTD/svg11.dtd">
<svg version="1.1" xmlns="http://www.w3.org/2000/svg" xmlns:xlink="http://www.w3.org/1999/xlink" x="0px" y="0px" width="200px"
	 height="200px" viewBox="0 0 200 200" enable-background="new 0 0 200 200" xml:space="preserve">
<g id="Layer_1">
	<g>
		<defs>
			<rect id="SVGID_1_" x="-150" y="-144" width="500" height="500"/>
		</defs>
		<clipPath id="SVGID_2_">
			<use xlink:href="#SVGID_1_"  overflow="visible"/>
		</clipPath>
		<g clip-path="url(#SVGID_2_)">
			<defs>
				<rect id="SVGID_3_" x="-150" y="-144" width="500" height="500"/>
			</defs>
			<clipPath id="SVGID_4_">
				<use xlink:href="#SVGID_3_"  overflow="visible"/>
			</clipPath>
		</g>
		<g clip-path="url(#SVGID_2_)">
			<defs>
				<rect id="SVGID_5_" x="-150" y="-144" width="500" height="500"/>
			</defs>
			<clipPath id="SVGID_6_">
				<use xlink:href="#SVGID_5_"  overflow="visible"/>
			</clipPath>
		</g>
	</g>
</g>
<g id="Layer_3">
	<path fill="#FFFFFF" stroke="#FFFFFF" stroke-width="12" stroke-miterlimit="10" d="M154.15,83.441
		c-6.602-3.481-14.639-1.15-21.706,1.237c7.059-13.667,11.914-28.465,14.33-43.655c1.699-10.672,1.327-23.501-7.44-29.815
		c-3.702-2.662-8.389-3.667-12.947-3.605c-13.111,0.183-25.126,8.933-31.625,20.325c-6.495,11.389-8.101,25.02-7.167,38.099
		c-5.519-8.299-19.645-5.988-25.214,2.282c-5.562,8.271-4.48,19.375-1.274,28.811c3.212,9.438,8.307,18.258,10.346,28.015
		c-6.001-3.695-13.501-7.47-19.71-4.136c-8.017,4.309-6.684,16.272-2.814,24.51c4.52,9.629,10.959,18.343,18.809,25.521
		c-3.284,6.025-6.665,11.946-10.117,17.691c-1.651,2.754,2.522,5.476,4.179,2.717c3.587-5.969,7.02-12.085,10.329-18.29
		c27.341,9.628,60.527-0.291,77.863-23.597c1.744-2.35,3.392-4.952,3.621-7.869c0.366-4.604-3.002-8.848-7.109-10.959
		c-4.104-2.109-8.842-2.529-13.444-2.912c9.424-4.172,19.347-8.745,25.119-17.282C163.948,101.989,163.265,88.245,154.15,83.441z"/>
</g>
<g id="Layer_2">
	<path fill="#ECBA38" d="M68.418,171.671c-8.165-7.294-14.837-16.251-19.49-26.161c-3.87-8.237-5.202-20.201,2.814-24.51
		c6.208-3.334,13.709,0.44,19.71,4.136c-2.04-9.757-7.134-18.577-10.346-28.015c-3.206-9.437-4.288-20.541,1.274-28.811
		c5.569-8.27,19.696-10.581,25.214-2.282c-0.935-13.079,0.671-26.71,7.167-38.099c6.499-11.392,18.514-20.142,31.625-20.325
		c4.559-0.061,9.245,0.943,12.947,3.605c8.768,6.313,9.14,19.143,7.44,29.815c-2.416,15.19-7.271,29.987-14.33,43.655
		c7.067-2.388,15.104-4.719,21.706-1.237c9.114,4.803,9.798,18.547,4.027,27.089c-5.772,8.537-15.695,13.11-25.119,17.282
		c4.603,0.383,9.34,0.803,13.444,2.912c4.107,2.111,7.476,6.355,7.109,10.959c-0.229,2.917-1.877,5.52-3.621,7.869
		c-17.803,23.935-52.324,33.758-80.062,22.784"/>
	<path fill="#B58C30" d="M111.549,71.84c9.796-3.774,17.979-9.824,24.399-18.248c1.953-2.561-2.241-5.259-4.178-2.716
		c-4.779,6.273-10.832,11.207-17.834,14.59c3.792-10.244,7.386-21.059,8.108-31.566c0.222-3.212-4.758-3.499-4.978-0.297
		c-0.729,10.622-4.778,21.917-8.68,32.385c-4.165-6.233-6.564-13.312-6.987-20.849c-0.176-3.178-5.158-3.5-4.976-0.297
		c0.538,9.6,3.599,18.193,9.264,25.967c0.208,0.282,0.441,0.466,0.683,0.616c-0.216,0.585-0.44,1.184-0.652,1.76
		c-4.33,11.888-7.695,23.945-11.318,36.053c-7.603-6.888-10.421-16.797-12.999-26.43c-0.829-3.094-5.709-2.071-4.875,1.036
		c3.056,11.419,6.561,22.401,15.867,30.261c0.115,0.095,0.229,0.162,0.343,0.233c0.004,0.019,0.004,0.042,0.008,0.062
		c-4.183,12.976-9.522,25.872-15.604,38.423c-5.083-3.76-8.908-8.61-11.482-14.4c-1.306-2.934-5.728-0.633-4.428,2.297
		c2.992,6.724,7.639,12.32,13.613,16.604c0.021,0.017,0.043,0.015,0.069,0.027c-5.405,10.801-11.26,21.333-17.292,31.373
		c-1.651,2.754,2.522,5.476,4.179,2.717c6.219-10.35,12.029-21.105,17.401-32.094c10.957,1.056,21.663-0.21,32.082-3.898
		c2.987-1.056,1.988-5.947-1.036-4.874c-9.365,3.313-18.888,4.632-28.7,3.967c6.019-12.718,11.403-25.735,16.022-38.841
		c12.748-0.987,24.603-4.859,35.414-11.9c2.669-1.732,0.404-6.185-2.296-4.425c-9.609,6.255-20.112,10.067-31.399,11.229
		c3.855-11.912,6.769-24.082,11.167-35.854C110.811,73.794,111.182,72.815,111.549,71.84"/>
</g>
</svg>
