<?xml version="1.0" encoding="utf-8"?>
<!-- Generator: Adobe Illustrator 15.0.0, SVG Export Plug-In . SVG Version: 6.00 Build 0)  -->
<!DOCTYPE svg PUBLIC "-//W3C//DTD SVG 1.1//EN" "http://www.w3.org/Graphics/SVG/1.1/DTD/svg11.dtd">
<svg version="1.1" xmlns="http://www.w3.org/2000/svg" xmlns:xlink="http://www.w3.org/1999/xlink" x="0px" y="0px" width="200px"
	 height="200px" viewBox="0 0 200 200" enable-background="new 0 0 200 200" xml:space="preserve">
<g id="Layer_1">
	<g>
		<defs>
			<rect id="SVGID_1_" x="-150" y="-144" width="500" height="500"/>
		</defs>
		<clipPath id="SVGID_2_">
			<use xlink:href="#SVGID_1_"  overflow="visible"/>
		</clipPath>
		<g clip-path="url(#SVGID_2_)">
			<defs>
				<rect id="SVGID_3_" x="-150" y="-144" width="500" height="500"/>
			</defs>
			<clipPath id="SVGID_4_">
				<use xlink:href="#SVGID_3_"  overflow="visible"/>
			</clipPath>
		</g>
		<g clip-path="url(#SVGID_2_)">
			<defs>
				<rect id="SVGID_5_" x="-150" y="-144" width="500" height="500"/>
			</defs>
			<clipPath id="SVGID_6_">
				<use xlink:href="#SVGID_5_"  overflow="visible"/>
			</clipPath>
		</g>
	</g>
</g>
<g id="Layer_2">
	<path fill="#66BCC3" stroke="#FFFFFF" stroke-width="12" stroke-miterlimit="10" d="M149.967,112.478
		c-2.608-3.622-5.217-7.243-7.824-10.864c-0.06-3.365-0.581-6.724-1.56-9.947c2.96,6.795,8.367,12.489,14.997,15.794
		c2.494,1.24,5.663,2.095,7.918,0.463c2.485-1.799,2.397-5.512,1.677-8.493c-2.215-9.179-7.855-17.099-13.376-24.765
		c-1.624-2.255-3.249-4.509-4.873-6.764c0.306,0.118,0.611,0.234,0.921,0.337c1.165,0.391,2.416,0.684,3.56,0.283
		c1.743-0.612,2.785-2.754,2.861-4.846c0.071-2.092-0.638-4.134-1.467-6.031c-3.246-7.43-8.377-13.569-13.427-19.58
		c-4.713-5.608-9.428-11.216-14.138-16.826c-2.245-2.671-7.768-11.121-11.26-11.203c-1.209-0.029-2.286,0.76-3.274,1.53
		c-6.531,5.062-12.867,10.443-18.994,16.12c-5.73,5.315-11.231,8.453-18.165,11.572c-5.571,2.507-11.77,5.381-14.122,11.662
		c-0.589,1.578-0.861,3.516-0.015,4.978c0.915,1.575,2.751,1.998,4.384,2.139c3.693,0.322,7.327-0.077,10.901-0.922
		c-4.276,2.566-8.71,4.912-12.997,7.46c-7.847,4.661-15.511,10.375-19.717,18.474c-1.821,3.507-2.483,8.677,0.925,10.673
		c1.565,0.913,3.508,0.803,5.305,0.579c7.955-0.997,15.687-3.721,22.512-7.932c-0.179,0.417-0.345,0.838-0.51,1.259
		c-6.973,5.11-14.837,8.985-22.294,13.416c-8.889,5.283-17.567,11.751-22.333,20.928c-2.062,3.971-2.814,9.825,1.048,12.086
		c1.772,1.039,3.972,0.91,6.01,0.658c9.007-1.133,17.767-4.217,25.493-8.984c-2.158,5.012-3.438,10.403-3.762,15.852
		c-0.199,3.318-0.018,6.776,1.484,9.737c1.499,2.966,4.579,5.326,7.895,5.129c3.318-0.196,5.975-2.741,8.172-5.233
		c4.73-5.367,8.878-11.246,12.353-17.503c-0.875,6.952-0.234,14.925,4.08,20.081c-1.72,10.914-3.438,21.826-5.158,32.74
		c-0.099,0.622-0.185,1.305,0.153,1.832c0.443,0.69,1.389,0.804,2.205,0.841c7.333,0.354,14.678,0.446,22.017,0.274
		c0.095-15.687,0.188-31.373,0.284-47.06c0.967-2.698,1.792-5.448,2.461-8.237c0.881,10.105,8.707,19.228,18.563,21.636
		c2.669,0.649,5.841,0.714,7.771-1.243c1.274-1.29,1.707-3.177,1.967-4.973c0.863-5.962,0.396-12.11-1.354-17.869
		c3.348,7.692,9.475,14.143,16.984,17.885c2.822,1.405,6.414,2.373,8.969,0.525c2.811-2.038,2.713-6.24,1.9-9.62
		C162.608,130.127,156.22,121.156,149.967,112.478z"/>
</g>
<g id="Layer_3">
	<g>
		<path fill="#F4A667" d="M92.673,129.128c-3.019,19.161-6.038,38.319-9.056,57.481c-0.099,0.619-0.185,1.305,0.153,1.829
			c0.444,0.693,1.389,0.807,2.205,0.843c7.333,0.355,14.679,0.445,22.016,0.273c0.129-21.326,0.259-42.658,0.386-63.984"/>
		<path fill="#4D9E9E" d="M74.533,84.622c-7.842,6.733-17.312,11.217-26.198,16.496c-8.889,5.284-17.567,11.751-22.333,20.929
			c-2.061,3.968-2.813,9.823,1.048,12.085c1.772,1.038,3.972,0.911,6.011,0.656c9.006-1.132,17.766-4.214,25.492-8.984
			c-2.158,5.013-3.438,10.405-3.762,15.853c-0.199,3.318-0.018,6.775,1.484,9.739c1.499,2.966,4.579,5.326,7.895,5.129
			c3.318-0.196,5.975-2.742,8.172-5.235c4.73-5.367,8.878-11.247,12.353-17.502c-1.041,8.268,0.041,17.996,6.925,22.688
			c1.784,1.214,3.987,2.008,6.105,1.589c3.234-0.642,5.283-3.779,6.765-6.727c2.731-5.428,4.829-11.173,6.246-17.081
			c0.88,10.106,8.707,19.23,18.563,21.636c2.669,0.65,5.84,0.714,7.771-1.242c1.276-1.288,1.709-3.177,1.968-4.974
			c0.862-5.959,0.397-12.109-1.355-17.868c3.35,7.692,9.476,14.143,16.986,17.887c2.821,1.405,6.412,2.371,8.968,0.523
			c2.812-2.037,2.713-6.241,1.899-9.621c-2.51-10.396-8.896-19.367-15.149-28.046c-5.781-8.023-11.561-16.046-17.339-24.068"/>
		<path fill="#58ADAF" d="M85.247,50.084c-6.925,5.944-15.287,9.902-23.131,14.565c-7.847,4.661-15.511,10.375-19.717,18.475
			c-1.821,3.507-2.484,8.677,0.925,10.673c1.565,0.913,3.508,0.802,5.305,0.578c7.954-0.997,15.686-3.721,22.511-7.931
			c-1.906,4.427-3.037,9.186-3.325,13.998c-0.175,2.928-0.015,5.98,1.311,8.599c1.324,2.617,4.042,4.701,6.973,4.528
			c2.931-0.176,5.273-2.422,7.215-4.625c4.175-4.737,7.84-9.93,10.906-15.45c-0.92,7.297,0.036,15.885,6.114,20.03
			c1.575,1.073,3.521,1.772,5.39,1.401c2.855-0.564,4.664-3.337,5.973-5.939c2.412-4.789,4.266-9.863,5.516-15.079
			c0.776,8.924,7.687,16.98,16.388,19.102c2.356,0.576,5.159,0.63,6.865-1.095c1.124-1.142,1.507-2.806,1.736-4.396
			c0.76-5.261,0.348-10.688-1.198-15.777c2.959,6.795,8.367,12.489,14.997,15.795c2.494,1.24,5.664,2.094,7.919,0.462
			c2.484-1.799,2.396-5.512,1.675-8.493c-2.215-9.179-7.854-17.098-13.375-24.764c-5.102-7.082-10.203-14.167-15.307-21.25"/>
		<path fill="#66BCC3" d="M139.794,38.14c-4.713-5.609-9.429-11.216-14.137-16.826c-2.246-2.671-7.769-11.121-11.26-11.204
			c-1.209-0.028-2.288,0.76-3.276,1.529c-6.529,5.062-12.867,10.443-18.993,16.121c-5.73,5.314-11.232,8.452-18.164,11.571
			c-5.572,2.508-11.771,5.381-14.123,11.663c-0.589,1.577-0.861,3.516-0.015,4.978c0.915,1.575,2.751,1.999,4.384,2.14
			c10.522,0.915,20.569-3.929,30.139-8.673c-2.844,5.127-4.732,10.961-5.497,17.015c-0.534,4.213,0.037,9.585,3.525,11.236
			c2.923,1.386,6.095-0.77,8.417-3.11c5.515-5.552,9.756-12.728,12.221-20.676c-0.53,10.333,5.796,20.812,14.506,24.016
			c1.322,0.487,2.798,0.81,4.045,0.175c1.523-0.78,2.257-2.742,2.697-4.589c1.426-5.991,1.108-12.553-0.888-18.43
			c3.285,6.326,8.738,11.174,14.89,13.24c1.165,0.391,2.417,0.683,3.561,0.282c1.744-0.612,2.785-2.753,2.861-4.845
			c0.072-2.092-0.638-4.135-1.467-6.031C149.976,50.29,144.844,44.15,139.794,38.14"/>
	</g>
</g>
</svg>
