<?xml version="1.0" encoding="utf-8"?>
<!-- Generator: Adobe Illustrator 15.0.0, SVG Export Plug-In . SVG Version: 6.00 Build 0)  -->
<!DOCTYPE svg PUBLIC "-//W3C//DTD SVG 1.1//EN" "http://www.w3.org/Graphics/SVG/1.1/DTD/svg11.dtd">
<svg version="1.1" id="Layer_1" xmlns="http://www.w3.org/2000/svg" xmlns:xlink="http://www.w3.org/1999/xlink" x="0px" y="0px"
	 width="200px" height="200px" viewBox="0 0 200 200" enable-background="new 0 0 200 200" xml:space="preserve">
<g>
	<defs>
		<rect id="SVGID_1_" x="-150" y="-138" width="500" height="500"/>
	</defs>
	<clipPath id="SVGID_2_">
		<use xlink:href="#SVGID_1_"  overflow="visible"/>
	</clipPath>
	<g clip-path="url(#SVGID_2_)">
		<defs>
			<rect id="SVGID_3_" x="-150" y="-138" width="500" height="500"/>
		</defs>
		<clipPath id="SVGID_4_">
			<use xlink:href="#SVGID_3_"  overflow="visible"/>
		</clipPath>
		<path clip-path="url(#SVGID_4_)" fill="#FFFFFF" d="M178.202,117.775c-2.904-10.562-7.702-19.289-14.264-25.939
			c-7.159-7.26-16.404-11.717-25.729-12.487c-0.523-0.353-1.056-0.699-1.594-1.036c3.157-0.295,6.33-0.748,9.499-1.359
			c5.977-1.15,9.896-6.373,9.319-12.418c-0.548-5.732-4.8-10.196-10.211-11.029c5.42-8.441,11.168-18.677,10.047-31
			c-0.574-6.306-5.845-11.061-12.261-11.061c-3.371,0-6.551,1.366-8.724,3.745c-1.814,1.987-2.824,4.523-2.915,7.262
			c-1.956-1.593-4.451-2.516-7.187-2.516c-3.639,0-7.214,1.666-9.561,4.456c-2.288,2.721-3.246,6.317-2.631,9.865
			c1.027,5.91,3.318,11.478,6.713,16.387c-3.455,5.767-6.665,11.863-9.597,18.221c-2.674-0.377-5.479-0.661-8.458-0.858
			c-0.209-0.013-0.417-0.022-0.625-0.031l-0.174-0.008c-0.533-0.031-1.065-0.058-1.61-0.077l-0.865-0.024
			c-0.583-0.014-1.166-0.021-1.756-0.021l-0.382-0.001l-0.412,0.002c-0.691,0.008-1.383,0.026-2.069,0.053
			c-0.454,0.018-0.907,0.044-1.361,0.072l-0.325,0.019c-0.297,0.017-0.595,0.036-0.872,0.057c-0.102,0.008-0.203,0.016-0.305,0.024
			c-2.787-5.958-5.873-11.784-9.224-17.414c3.399-4.912,5.693-10.484,6.722-16.4c0.617-3.549-0.342-7.145-2.631-9.866
			c-2.347-2.79-5.921-4.456-9.559-4.456c-2.736,0-5.232,0.924-7.187,2.516c-0.092-2.739-1.101-5.275-2.915-7.261
			c-2.173-2.38-5.353-3.746-8.724-3.746c-6.416,0-11.687,4.756-12.261,11.062C43.028,34.479,48.322,44.4,54.161,53.508
			c-5.41,0.835-9.661,5.298-10.207,11.029c-0.577,6.045,3.342,11.267,9.319,12.419c2.718,0.523,5.441,0.931,8.152,1.223
			c-0.615,0.458-1.218,0.929-1.808,1.415c-8.562,1.242-17.008,5.604-23.556,12.242c-6.56,6.651-11.358,15.378-14.263,25.94
			c-1.148,4.176,1.116,8.532,5.193,9.992c2.978,1.066,6.186,1.607,9.536,1.607c2.627,0,5.197-0.324,7.675-0.848
			c0.577,6.74,1.915,13.422,3.971,19.743c3.308,10.169,9.24,24.616,22.58,32.671c3.124,1.887,6.664,4.025,11.181,5.092
			c5.044,1.19,10.16,1.795,15.205,1.795c11.569,0,22.26-3.179,30.92-9.19c15.398-10.692,20.776-27.437,24.608-42.289
			c0.71-2.753,1.289-5.472,1.735-8.144c2.925,0.709,5.973,1.168,9.071,1.17h0.001c3.349,0,6.557-0.541,9.534-1.607
			C177.087,126.308,179.35,121.951,178.202,117.775"/>
		<path clip-path="url(#SVGID_4_)" fill="#AD632B" d="M64.832,87.506c-8.568-0.051-16.86,4.046-22.876,10.146
			c-6.017,6.1-9.902,14.059-12.174,22.32c8.231,2.947,17.239-0.467,25.305-3.839"/>
		<path clip-path="url(#SVGID_4_)" fill="#F96461" d="M58.162,98.882c-5.387,1.812-10.27,5.096-13.981,9.4
			c-1.433,1.662-2.74,3.598-2.877,5.789c4.616,0.116,9.257-1.016,13.3-3.246"/>
		<path clip-path="url(#SVGID_4_)" fill="#AD632B" d="M135.168,87.506c8.567-0.051,16.859,4.046,22.876,10.146
			s9.901,14.059,12.174,22.32c-8.231,2.947-17.239-0.467-25.305-3.839"/>
		<path clip-path="url(#SVGID_4_)" fill="#F96461" d="M141.838,98.882c5.388,1.812,10.271,5.096,13.981,9.4
			c1.433,1.662,2.74,3.598,2.877,5.789c-4.616,0.116-9.257-1.016-13.3-3.246"/>
		<path clip-path="url(#SVGID_4_)" fill="#C07231" d="M135.248,87.394c-10.183-7.541-22.385-10.28-35.145-11.122
			c-13.149-0.868-26.532,1.932-36.319,10.653c-5.823,5.19-8.08,9.526-9.77,17.017c-3.082,13.661-2.308,28.421,2.033,41.767
			c3.409,10.482,8.717,21.943,18.913,28.1c2.82,1.703,5.596,3.391,8.876,4.164c13.347,3.153,28.074,1.797,39.498-6.137
			c13.012-9.035,17.63-23.279,21.312-37.557C148.556,119.133,149.839,98.201,135.248,87.394"/>
		<path clip-path="url(#SVGID_4_)" fill="#874C23" d="M71.059,50.819c-0.168-0.266-0.342-0.533-0.512-0.8
			c4.514-4.742,7.558-10.682,8.688-17.179c0.807-4.641-6.286-6.627-7.098-1.956c-0.839,4.825-2.76,9.069-5.767,12.714
			c-3.944-6.208-7.338-12.729-6.645-20.34c0.43-4.728-6.935-4.687-7.361,0c-0.928,10.2,4.35,19.015,9.714,27.242
			c2.689,4.124,5.231,8.309,7.627,12.571c-4.331-0.089-8.624-0.521-12.91-1.346c-4.637-0.893-6.615,6.201-1.957,7.098
			c6.218,1.197,12.471,1.756,18.799,1.591c1.891,3.725,3.668,7.514,5.306,11.39c1.843,4.359,8.181,0.603,6.356-3.715
			C81.293,68.61,76.547,59.523,71.059,50.819"/>
		<path clip-path="url(#SVGID_4_)" fill="#874C23" d="M142.593,61.726c-4.305,0.829-8.616,1.262-12.966,1.348
			c2.145-3.826,4.42-7.583,6.829-11.27c5.64-8.629,11.547-17.784,10.567-28.545c-0.426-4.687-7.791-4.728-7.36,0
			c0.689,7.577-2.693,14.151-6.634,20.354c-3.014-3.647-4.938-7.896-5.778-12.728c-0.812-4.671-7.905-2.685-7.099,1.956
			c1.13,6.499,4.177,12.441,8.693,17.184c-5.754,8.894-10.635,18.312-14.757,28.065c-1.825,4.318,4.513,8.074,6.355,3.715
			c1.634-3.865,3.394-7.66,5.274-11.39c6.339,0.167,12.602-0.392,18.831-1.591C149.208,67.927,147.229,60.833,142.593,61.726"/>
		<path clip-path="url(#SVGID_4_)" fill="#9C5626" d="M100.104,76.277c-9.767-0.664-19.659,0.763-28.112,5.218
			c6.222,5.069,11.179,11.611,14.947,18.71c4.079,7.684,5.511,17.032,7.701,25.452c1.79,0.17,4.884-0.467,6.581,0.127
			c0.88-9.065,4.487-17.851,10.234-24.918c5.552-6.829,13.082-12.022,21.429-14.812C123.199,79.557,111.891,77.078,100.104,76.277"
			/>
		<path clip-path="url(#SVGID_4_)" fill="#D6874C" d="M86.695,112.139c-1.032-4.758-3.27-7.698-8.476-8.195
			c-4.052-0.386-8.435,1.196-11.371,3.751c-3.672,3.196-5.856,7.708-7.181,12.304c-1.034,3.587-1.599,7.389-0.82,11.036
			c0.778,3.646,3.066,7.127,6.552,8.729c6.119,2.815,13.847,0.568,18.073-4.462C88.508,129.309,88.242,119.27,86.695,112.139"/>
		<path clip-path="url(#SVGID_4_)" fill="#D6874C" d="M108.825,112.033c1.098-4.805,3.479-7.776,9.02-8.277
			c4.312-0.39,8.975,1.207,12.1,3.789c3.906,3.229,6.23,7.786,7.641,12.43c1.1,3.623,1.701,7.463,0.873,11.147
			c-0.828,3.684-3.263,7.2-6.973,8.819c-6.512,2.844-14.733,0.574-19.23-4.506C106.896,129.379,107.179,119.236,108.825,112.033"/>
		<path clip-path="url(#SVGID_4_)" fill="#D6874C" d="M93.043,133.128c-6.062,1.417-10.724,5.536-13.411,10.166
			c-1.762,3.036-2.812,6.387-2.61,9.739c0.201,3.351,1.716,6.697,4.556,9.138c1.716,1.474,3.863,2.585,6.135,3.43
			c5.456,2.029,11.883,2.529,17.522,0.858c5.639-1.67,10.309-5.646,11.482-10.42c0.863-3.512-0.136-7.17-1.782-10.493
			c-2.425-4.894-6.559-9.513-12.537-11.589"/>
		<path clip-path="url(#SVGID_4_)" fill="#9C5626" d="M80.525,128.628c6.527,0,6.527-10.121,0-10.121
			C73.998,118.507,73.998,128.628,80.525,128.628"/>
		<path clip-path="url(#SVGID_4_)" fill="#9C5626" d="M115.81,131.18h0.2c2.759,0,5.061-2.301,5.061-5.061
			c0-2.758-2.302-5.06-5.061-5.06h-0.2c-2.759,0-5.061,2.302-5.061,5.06C110.749,128.879,113.051,131.18,115.81,131.18"/>
		<path clip-path="url(#SVGID_4_)" fill="#9C5626" d="M96.328,137.477c-0.155,2.068-0.31,4.138-0.464,6.208
			c-0.089,1.185,1.752,1.175,1.84,0c0.155-2.07,0.309-4.14,0.464-6.208C98.257,136.293,96.416,136.301,96.328,137.477"/>
		<path clip-path="url(#SVGID_4_)" fill="#9C5626" d="M89.468,140.532c2.437,6.288,12.88,6.552,15.595,0.362
			c0.472-1.075-1.113-2.014-1.589-0.928c-1.995,4.545-10.303,5.054-12.232,0.076C90.818,138.949,89.038,139.424,89.468,140.532"/>
		<path clip-path="url(#SVGID_4_)" fill="#F96461" d="M106.324,130.928c0.612-1.448,0.515-2.943-1.023-4.17
			c-1.614-1.287-3.928-2.012-5.958-2.262c-2.526-0.31-6.04,0.084-8.317,1.23c-3.971,1.999-1.41,6.443,0.525,9.346
			c0.74,1.109,1.608,2.161,2.723,2.891c1.115,0.729,2.509,1.106,3.805,0.795c2.654-0.637,5.176-3.746,6.88-5.724
			C105.531,132.371,106.018,131.654,106.324,130.928"/>
	</g>
	<g clip-path="url(#SVGID_2_)">
		<defs>
			<rect id="SVGID_5_" x="-150" y="-138" width="500" height="500"/>
		</defs>
		<clipPath id="SVGID_6_">
			<use xlink:href="#SVGID_5_"  overflow="visible"/>
		</clipPath>
	</g>
</g>
</svg>
