<?xml version="1.0" encoding="utf-8"?>
<!-- Generator: Adobe Illustrator 15.0.0, SVG Export Plug-In . SVG Version: 6.00 Build 0)  -->
<!DOCTYPE svg PUBLIC "-//W3C//DTD SVG 1.1//EN" "http://www.w3.org/Graphics/SVG/1.1/DTD/svg11.dtd">
<svg version="1.1" id="Layer_1" xmlns="http://www.w3.org/2000/svg" xmlns:xlink="http://www.w3.org/1999/xlink" x="0px" y="0px"
	 width="800px" height="450px" viewBox="0 0 800 450" enable-background="new 0 0 800 450" xml:space="preserve">
<g>
	<defs>
		<rect id="SVGID_1_" y="-64" width="800" height="636"/>
	</defs>
	<clipPath id="SVGID_2_">
		<use xlink:href="#SVGID_1_"  overflow="visible"/>
	</clipPath>
	<rect y="-0.4" clip-path="url(#SVGID_2_)" fill="#97E9FF" width="800" height="450.289"/>
	<g clip-path="url(#SVGID_2_)">
		<defs>
			<rect id="SVGID_3_" y="-64" width="800" height="636"/>
		</defs>
		<clipPath id="SVGID_4_">
			<use xlink:href="#SVGID_3_"  overflow="visible"/>
		</clipPath>
		<g opacity="0.5" clip-path="url(#SVGID_4_)">
			<g>
				<defs>
					<rect id="SVGID_5_" x="466.703" y="43.427" width="79.894" height="33.455"/>
				</defs>
				<clipPath id="SVGID_6_">
					<use xlink:href="#SVGID_5_"  overflow="visible"/>
				</clipPath>
			</g>
		</g>
		<path clip-path="url(#SVGID_4_)" fill="#FFFFFF" d="M152.24,66.809c9.653,1.294,18.8-3.878,20.428-11.553
			c1.628-7.675-4.878-14.947-14.533-16.241c-2.905-0.39-5.758-0.184-8.376,0.489c-3.513-4.612-9.416-8.037-16.625-9.002
			c-1.775-0.237-3.533-0.302-5.259-0.233c-1.186-11.605-10.122-21.114-22.709-22.802C91.706,5.663,78.506,13.398,73.178,25.36
			c-9.125,0.279-17.75,5.991-22.475,14.521c-9.289-0.835-17.889,4.227-19.462,11.644c-1.628,7.676,4.878,14.946,14.531,16.24
			c1.818,0.244,3.615,0.259,5.353,0.07c3.336,4.919,8.492,8.372,14.809,9.218c9.334,1.251,18.628-3.503,24.322-11.454
			c3.339,2.482,7.594,4.242,12.438,4.892c6.475,0.867,12.771-0.408,17.769-3.168c1.477,0.451,3.028,0.793,4.647,1.011
			c7.209,0.965,14.2-0.729,19.418-4.171C146.727,65.482,149.337,66.419,152.24,66.809"/>
		<g opacity="0.7" clip-path="url(#SVGID_4_)">
			<g>
				<defs>
					<rect id="SVGID_7_" x="166.712" y="24.77" width="71.334" height="30.219"/>
				</defs>
				<clipPath id="SVGID_8_">
					<use xlink:href="#SVGID_7_"  overflow="visible"/>
				</clipPath>
			</g>
		</g>
		<path clip-path="url(#SVGID_4_)" fill="#FFFFFF" d="M714.219,70.552c8.639,0,16.312-3.232,21.269-8.243
			c4.763,3.329,10.995,5.362,17.839,5.362c14.939,0,27.056-9.629,27.056-21.509c0-11.727-11.809-21.244-26.48-21.488
			c-5.508-7.603-15.808-12.733-27.633-12.733c-11.099,0-20.862,4.512-26.574,11.347c-3.027-0.934-6.312-1.466-9.757-1.466
			c-8.196,0-15.528,2.913-20.489,7.493c-2.742-1.134-5.852-1.784-9.151-1.784c-10.978,0-19.879,7.076-19.879,15.804
			c0,8.727,8.901,15.802,19.879,15.802c3.3,0,6.409-0.65,9.151-1.783c4.961,4.579,12.293,7.489,20.489,7.489
			c1.842,0,3.639-0.149,5.375-0.428C700.19,68.209,706.857,70.552,714.219,70.552"/>
		<path clip-path="url(#SVGID_4_)" fill="#FFFFFF" d="M423.176,76.272c4.358,3.627,11.631,6.008,19.878,6.008
			c10.793,0,19.929-4.074,23.027-9.694c0.269,0.01,0.535,0.029,0.809,0.029c8.325,0,15.077-5.03,15.077-11.238
			s-6.752-11.239-15.077-11.239c-1.238,0-2.433,0.122-3.582,0.332c-1.672-1.822-4.216-3.543-7.375-4.824
			c-3.199-1.297-6.485-1.919-9.35-1.908c0.006-0.17,0.021-0.342,0.021-0.514c0-13.042-15.094-23.614-33.715-23.614
			c-16.379,0-30.027,8.183-33.074,19.028c-2.674-1.154-5.711-1.483-8.562-0.704c-4.516,1.235-7.274,4.873-7.347,9.008
			c-1.835-0.256-3.742-0.408-5.716-0.408c-13.341,0-24.158,6.223-24.158,13.899c0,7.675,10.817,13.899,24.158,13.899
			c4.487,0,8.675-0.716,12.274-1.942c2.443,5.332,8.859,9.147,16.412,9.147c5.264,0,9.973-1.857,13.178-4.785
			c3.108,1.744,6.957,2.79,11.144,2.79C415.764,79.543,419.941,78.31,423.176,76.272"/>
		<rect x="0.028" y="168.938" clip-path="url(#SVGID_4_)" fill="#9DE0DC" width="0.644" height="1.553"/>
		<polygon clip-path="url(#SVGID_4_)" fill="#64D5FB" points="800,131.635 800,339.643 407.059,339.643 407.059,339.398 0,339.398 
			0,245.795 20.078,245.795 20.078,206.986 32.625,206.986 32.625,130.888 44.043,127.002 60.778,133.479 60.778,153.77 
			76.006,153.77 76.006,100.621 82.478,100.4 82.478,39.083 95.041,34.988 128.525,46.399 128.525,53.296 137.662,56.316 
			137.662,106.875 157.011,115.532 157.458,115.731 157.458,264.92 170.4,264.92 170.4,205.331 193.425,205.331 193.425,177.805 
			210.539,177.805 210.539,194.969 220.818,194.969 220.818,133.431 238.661,127.106 239.09,126.955 279.047,133.76 
			279.047,280.135 286.479,280.135 286.479,234.15 294.473,234.15 294.473,181.69 384.1,181.69 384.1,259.739 407.059,259.739 
			407.059,212.564 419.853,212.564 419.853,204.07 427.269,204.07 427.269,164.317 453.917,164.317 453.917,204.07 463.534,204.07 
			463.534,212.564 481.624,212.564 481.624,112.137 510.904,112.137 510.904,82.058 575.937,82.058 575.937,204.082 
			586.613,204.082 586.613,148.787 624.931,148.787 624.6,65.664 657.438,65.664 735.547,88.044 735.779,179.079 735.878,213.662 
			760.094,213.662 760.094,142.473 		"/>
		<polygon clip-path="url(#SVGID_4_)" fill="#3CB2D6" points="800,274.414 800,450.086 0,449.889 0,268.707 36.267,268.707 
			36.447,224.641 60.688,224.641 72.953,237.342 73.217,256.205 87.769,256.205 87.769,225.649 115.541,225.649 115.541,191.156 
			149.818,191.328 149.556,225.167 168.291,225.167 168.291,218.548 177.145,218.548 177.145,205.116 197.192,205.116 
			197.192,223.566 204.208,223.566 204.208,281.005 239.3,281.005 239.3,177.446 259.293,161.679 267.753,155.004 267.753,126.359 
			274.703,126.359 274.703,156.435 307.329,175.534 315.668,175.534 315.668,154.28 344.188,154.28 344.188,174.975 
			367.031,195.521 367.031,247.081 436.741,247.081 436.741,224.226 485.726,224.179 485.726,302.273 506.717,302.273 
			507.116,169.315 626.284,169.315 626.284,253.35 659.62,253.35 659.62,227.572 695.701,227.572 695.701,203.226 780.396,203.226 
			780.396,274.604 		"/>
		<rect x="0.028" y="168.938" clip-path="url(#SVGID_4_)" fill="#37A4AF" width="0.644" height="1.553"/>
		<path clip-path="url(#SVGID_4_)" fill="#4C8C00" d="M219.279,227.083c10.547,8.973,10.881,20.961,10.496,30.447
			c39.631-8.298,45.231,30.109,45.231,30.109L3.234,292.16c-1-3.517-5.538-28.956,29.487-29.863c0,0,7.513-36.353,65.371-22.451
			c0,0,2.886-40.984,41.767-37.467c18.739,1.696,27.408,15.33,27.947,25.104C168.331,227.504,195.406,206.779,219.279,227.083"/>
		<path clip-path="url(#SVGID_4_)" fill="#4C8C00" d="M516.387,293.645c0,0-8.797-24.955,29.089-25.932
			c0,0,2.294-36.836,64.816-22.265c-1.168-18.93,35.331-48.9,72.34-15.499c57.141-19.769,61.824,28.406,61.824,28.406
			s58.273-24.225,55.359,34.884L516.387,293.645z"/>
		<path clip-path="url(#SVGID_4_)" fill="#5E9B08" d="M178.607,285.643c0,0-5.154-14.621,17.042-15.195
			c0,0,4.364-21.121,37.981-13.048c0,0-0.391-25.338,37.125-21.705c37.514,3.626,41.487,29.266,41.487,29.266
			s34.214-9.328,32.503,25.314L178.607,285.643z"/>
		<path clip-path="url(#SVGID_4_)" fill="#5E9B08" d="M482.3,289.406c0,0-5.156-14.622,17.04-15.195c0,0,4.366-21.123,37.983-13.051
			c0,0-0.393-25.338,37.123-21.706c37.516,3.627,41.49,29.266,41.49,29.266s34.215-9.328,32.501,25.316L482.3,289.406z"/>
		<path clip-path="url(#SVGID_4_)" fill="#7CB832" d="M800,285.607v164.48H0V283.576c19.769-0.822,164.303-10.104,285.162-6.134
			c120.857,3.97,205.239,5.134,262.302,5.817C633.534,284.29,718.347,281.93,800,285.607"/>
		<path clip-path="url(#SVGID_4_)" fill="#A9C937" d="M799.922,321.029c0,14.949-1.822,65.378-1.822,80.324v47.924
			c-0.011,0-791.421,0.201-798.1,0.201c-0.086,0,0-61.98,0-72.285c0-2.736,0-12.519,0.025-17.883c0-0.07,0.003,0.039,0,0
			c154.642,0.088,415.549-32.395,469.734-36.069C657.404,310.5,735.42,319.625,799.922,321.029"/>
		<path clip-path="url(#SVGID_4_)" fill="#69A93B" d="M738.938,166.189c0,16.875-20.891,30.555-46.653,30.555
			c-25.769,0-46.656-13.68-46.656-30.555c0-16.875,20.888-30.555,46.656-30.555C718.047,135.635,738.938,149.314,738.938,166.189"/>
		<path clip-path="url(#SVGID_4_)" fill="#69A93B" d="M772.229,173.264c0,16.873-16.109,30.552-35.979,30.552
			c-19.872,0-35.981-13.679-35.981-30.552c0-16.875,16.109-30.553,35.981-30.553C756.12,142.711,772.229,156.39,772.229,173.264"/>
		<path clip-path="url(#SVGID_4_)" fill="#5E9B08" d="M793.654,191.993c0-12.118-11.565-21.939-25.839-21.939
			c-12.625,0-23.128,7.689-25.38,17.855c-4.761-11.296-16.453-19.286-30.132-19.286c-6.868,0-13.238,2.018-18.48,5.456
			c-6.195-3.429-13.828-5.456-22.091-5.456c-1.581,0-3.141,0.082-4.672,0.228c-3.667-1.696-7.87-2.662-12.339-2.662
			c-14.27,0-25.835,9.824-25.835,21.939c0,5.347,2.252,10.245,5.994,14.05c3.224,13.189,18.492,23.18,36.852,23.18
			c6.766,0,13.106-1.363,18.583-3.736c5.781,5.03,13.5,8.106,21.988,8.106c8.163,0,15.616-2.849,21.312-7.544
			c4.629,5.92,12.543,9.823,21.538,9.823c13.95,0,25.31-9.388,25.812-21.13C788.561,207.056,793.654,200.03,793.654,191.993"/>
		<path clip-path="url(#SVGID_4_)" fill="#724D3B" d="M769.029,201.153c0,0-38.107,30.619-40.156,42.45
			c-2.05,11.832-6.967,36.539,0,42.453c6.966,5.916-28.351,5.103-28.351,5.103s2.726-32.697,8.462-39.133
			c0,0-20.884-9.466-30.922-24.777c0,0-14.955-1.042-22.127-20.529c0,0,10.859,18.269,21.719,17.224c0,0-4.714-24.009,2.252-32.01
			c0,0-1.231,34.099,6.761,36.535c0,0,27.543-17.244,23.239-30.99c0,0,10.944,11.171-17.403,35.117c0,0-0.302,1.69,19.979,10.04
			c0,0,22.536-31.565,16.799-47.05c0,0,10.245,14.442,4.511,27.487C733.792,223.073,763.295,198.023,769.029,201.153"/>
		<path clip-path="url(#SVGID_4_)" fill="#4D322B" d="M769.029,201.153c-5.734-3.13-35.237,21.919-35.237,21.919
			c3.277-7.46,1.333-15.372-0.935-20.784c1.005,6.387,1.314,12.697-1.526,18.002c-5.734,10.438-10.656,20.182-11.474,32.011
			c-0.819,9.047-10.654,18.094-8.194,27.84c1.25,4.453,3.726,8.13,7.04,11.017c7.151-0.606,13.842-1.983,10.17-5.103
			c-6.967-5.914-2.05-30.621,0-42.453C730.922,231.772,769.029,201.153,769.029,201.153"/>
		<path clip-path="url(#SVGID_4_)" fill="#8DB739" d="M769.933,161.537c-1.198-15.432-16.308-27.638-34.785-27.638
			c-3.879,0-7.603,0.544-11.087,1.535c-8.144-5.19-19.261-8.392-31.522-8.392c-24.969,0-45.212,13.257-45.212,29.611
			c0,0.448,0.021,0.895,0.049,1.339c-9.507,3.016-16.278,10.796-16.278,19.921c0,11.742,11.211,21.261,25.042,21.261
			c1.716,0,3.393-0.147,5.013-0.427c8.083,9.089,23.112,15.203,40.331,15.203c20.052,0,37.143-8.286,43.739-19.91
			c4.41,6.735,12.875,11.296,22.594,11.296c14.269,0,25.839-9.822,25.839-21.939C793.654,171.888,783.209,162.451,769.933,161.537"
			/>
		<path clip-path="url(#SVGID_4_)" fill="#A9C937" d="M752.573,157.287c-0.979-12.723-13.435-22.787-28.664-22.787
			c-5,0-9.695,1.086-13.793,2.992c-3.757-5.981-12.741-10.194-23.228-10.194c-10.956,0-20.272,4.596-23.703,11.006
			c-10.772,0.584-19.309,8.169-19.309,17.464c0,9.677,9.239,17.521,20.634,17.521c2.188,0,4.293-0.294,6.271-0.83
			c0.554,13.419,11.719,24.132,25.422,24.132c9.866,0,18.417-5.559,22.639-13.679c1.646,0.249,3.337,0.386,5.067,0.386
			c2.558,0,5.028-0.287,7.388-0.818c3.279,6.406,10.784,10.887,19.531,10.887c11.761,0,21.292-8.093,21.292-18.077
			C772.12,165.804,763.514,158.041,752.573,157.287"/>
		<path clip-path="url(#SVGID_4_)" fill="#69A93B" d="M686.123,243.156c0,6.477-8.019,11.727-17.909,11.727
			s-17.91-5.25-17.91-11.727s8.02-11.728,17.91-11.728S686.123,236.679,686.123,243.156"/>
		<path clip-path="url(#SVGID_4_)" fill="#69A93B" d="M698.901,245.871c0,6.477-6.185,11.728-13.812,11.728
			c-7.625,0-13.81-5.251-13.81-11.728c0-6.479,6.185-11.727,13.81-11.727C692.717,234.144,698.901,239.392,698.901,245.871"/>
		<path clip-path="url(#SVGID_4_)" fill="#5E9B08" d="M707.123,253.059c0-4.65-4.438-8.42-9.917-8.42
			c-4.847,0-8.878,2.953-9.742,6.854c-1.828-4.338-6.316-7.405-11.566-7.405c-2.637,0-5.082,0.776-7.094,2.094
			c-2.382-1.313-5.309-2.094-8.48-2.094c-0.606,0-1.203,0.033-1.792,0.087c-1.406-0.65-3.021-1.021-4.736-1.021
			c-5.479,0-9.918,3.771-9.918,8.422c0,2.051,0.864,3.934,2.301,5.394c1.239,5.062,7.099,8.899,14.146,8.899
			c2.597,0,5.031-0.527,7.133-1.437c2.219,1.929,5.185,3.113,8.441,3.113c3.134,0,5.993-1.095,8.181-2.896
			c1.776,2.271,4.812,3.769,8.266,3.769c5.357,0,9.717-3.604,9.909-8.108C705.17,258.841,707.123,256.145,707.123,253.059"/>
		<path clip-path="url(#SVGID_4_)" fill="#724D3B" d="M697.672,256.576c0,0-14.627,11.754-15.415,16.293
			c-0.785,4.545-2.672,14.025,0,16.299c2.676,2.27-10.882,1.956-10.882,1.956s1.047-12.548,3.248-15.021
			c0,0-8.016-3.634-11.87-9.512c0,0-5.739-0.398-8.492-7.877c0,0,4.168,7.01,8.336,6.61c0,0-1.809-9.218,0.867-12.288
			c0,0-0.473,13.09,2.594,14.025c0,0,10.57-6.621,8.922-11.896c0,0,4.199,4.286-6.683,13.479c0,0-0.114,0.65,7.67,3.856
			c0,0,8.649-12.118,6.45-18.06c0,0,3.93,5.541,1.727,10.551C684.144,264.992,695.469,255.374,697.672,256.576"/>
		<path clip-path="url(#SVGID_4_)" fill="#4D322B" d="M697.672,256.576c-2.203-1.202-13.528,8.416-13.528,8.416
			c1.261-2.867,0.513-5.903-0.355-7.98c0.382,2.45,0.504,4.875-0.587,6.91c-2.201,4.008-4.089,7.746-4.404,12.288
			c-0.314,3.472-4.091,6.946-3.146,10.685c0.48,1.713,1.43,3.123,2.703,4.229c2.742-0.231,5.312-0.759,3.902-1.956
			c-2.672-2.273-0.785-11.754,0-16.299C683.045,268.33,697.672,256.576,697.672,256.576"/>
		<path clip-path="url(#SVGID_4_)" fill="#8DB739" d="M698.019,241.37c-0.458-5.924-6.258-10.61-13.352-10.61
			c-1.488,0-2.919,0.211-4.258,0.592c-3.125-1.993-7.391-3.222-12.099-3.222c-9.585,0-17.354,5.087-17.354,11.363
			c0,0.173,0.008,0.344,0.02,0.515c-3.649,1.159-6.25,4.146-6.25,7.646c0,4.509,4.304,8.163,9.613,8.163
			c0.659,0,1.302-0.056,1.925-0.162c3.103,3.486,8.872,5.834,15.481,5.834c7.695,0,14.255-3.182,16.789-7.642
			c1.691,2.585,4.941,4.336,8.672,4.336c5.479,0,9.917-3.771,9.917-8.421C707.123,245.343,703.116,241.722,698.019,241.37"/>
		<path clip-path="url(#SVGID_4_)" fill="#A9C937" d="M691.354,239.738c-0.375-4.886-5.156-8.748-11-8.748
			c-1.919,0-3.727,0.419-5.297,1.149c-1.441-2.294-4.888-3.913-8.917-3.913c-4.205,0-7.781,1.767-9.096,4.226
			c-4.139,0.223-7.413,3.135-7.413,6.702c0,3.715,3.547,6.727,7.918,6.727c0.841,0,1.651-0.112,2.41-0.32
			c0.212,5.153,4.496,9.264,9.759,9.264c3.784,0,7.069-2.133,8.688-5.252c0.632,0.098,1.281,0.15,1.948,0.15
			c0.98,0,1.93-0.111,2.833-0.313c1.261,2.458,4.141,4.178,7.498,4.178c4.516,0,8.172-3.107,8.172-6.941
			C698.857,243.008,695.554,240.027,691.354,239.738"/>
	</g>
	<g clip-path="url(#SVGID_2_)">
		<defs>
			<rect id="SVGID_9_" y="-64" width="800" height="636"/>
		</defs>
		<clipPath id="SVGID_10_">
			<use xlink:href="#SVGID_9_"  overflow="visible"/>
		</clipPath>
		<path clip-path="url(#SVGID_10_)" fill="#69A93B" d="M45.947,92.6c0,36.836-45.163,66.699-100.87,66.699
			c-55.711,0-100.87-29.862-100.87-66.699c0-36.834,45.159-66.698,100.87-66.698C0.784,25.902,45.947,55.766,45.947,92.6"/>
		<path clip-path="url(#SVGID_10_)" fill="#69A93B" d="M117.928,108.044c0,36.836-34.83,66.697-77.791,66.697
			c-42.965,0-77.793-29.861-77.793-66.697c0-36.837,34.828-66.7,77.793-66.7C83.098,41.345,117.928,71.208,117.928,108.044"/>
		<path clip-path="url(#SVGID_10_)" fill="#5E9B08" d="M164.25,148.929c0-26.452-25.01-47.894-55.863-47.894
			c-27.293,0-50.003,16.79-54.878,38.976c-10.294-24.656-35.572-42.099-65.15-42.099c-14.85,0-28.617,4.408-39.953,11.908
			c-13.395-7.481-29.9-11.908-47.766-11.908c-3.422,0-6.788,0.181-10.097,0.495c-7.927-3.701-17.016-5.807-26.68-5.807
			c-30.852,0-55.862,21.444-55.862,47.895c0,11.672,4.872,22.362,12.964,30.669c6.967,28.793,39.979,50.609,79.675,50.609
			c14.626,0,28.337-2.979,40.185-8.158c12.494,10.978,29.186,17.696,47.534,17.696c17.651,0,33.763-6.223,46.084-16.468
			c10.006,12.919,27.122,21.443,46.565,21.443c30.163,0,54.723-20.497,55.809-46.13C153.237,181.813,164.25,166.479,164.25,148.929"
			/>
		<path clip-path="url(#SVGID_10_)" fill="#724D3B" d="M-92.006,188.259c0,0,63.561,75.761,66.978,105.038
			c3.416,29.271,11.619,90.399,0,105.027c-11.62,14.645,55.772,15.887,59.163,5.605c0.791-2.395-4.669-4.98-5.084-12.548
			c-1.381-24.929-1.131-74.974-1.42-91.229c0,0,9.042-12,32.089-47.318c0,0,24.947-2.58,36.908-50.798
			c0,0-18.111,45.2-36.224,42.616c0,0,7.859-59.404-3.759-79.206c0,0,3.445,66.242-9.879,72.269c0,0-3.18,25.304-37.009,45.971
			c0,0-7.919-70.275-14.974-102.632c-3.959-18.153-20.494-6.569-20.494-6.569s8.628,61.308,2.413,67.203
			C-29.516,247.585-82.439,180.51-92.006,188.259"/>
		<path clip-path="url(#SVGID_10_)" fill="#4D322B" d="M60.403,244.65c0,0,7.859-59.402-3.759-79.203c0,0,2.077,39.956-3.239,60.626
			c0.017,13.772-2.63,27.383-11.805,40.645c-6.4,8.905-17.6,15.266-25.6,24.17c-9.6,10.177-6.4,22.896-6.4,34.346
			c3.2,27.981,11.2,55.966,11.2,82.679c0,0.552-0.014,1.124-0.034,1.704c7.15-1.075,12.475-2.981,13.369-5.688
			c0.791-2.395-4.667-4.98-5.084-12.548c-1.379-24.929-1.131-74.974-1.418-91.229c0,0,9.041-12,32.089-47.318
			c0,0,24.945-2.582,36.905-50.797C96.625,202.037,78.516,247.236,60.403,244.65"/>
		<path clip-path="url(#SVGID_10_)" fill="#8DB739" d="M118.65,118.098c-2.584-33.69-35.259-60.338-75.206-60.338
			c-8.385,0-16.438,1.191-23.972,3.356C1.862,49.784-22.17,42.793-48.684,42.793c-53.991,0-97.756,28.941-97.756,64.64
			c0,0.98,0.048,1.954,0.109,2.926c-20.556,6.584-35.192,23.567-35.192,43.49c0,25.635,24.236,46.416,54.136,46.416
			c3.709,0,7.336-0.322,10.837-0.936c17.481,19.842,49.975,33.192,87.203,33.192c43.353,0,80.306-18.087,94.575-43.471
			c9.533,14.711,27.831,24.667,48.85,24.667c30.85,0,55.859-21.444,55.859-47.894C169.938,140.691,147.356,120.096,118.65,118.098"
			/>
		<path clip-path="url(#SVGID_10_)" fill="#A9C937" d="M81.117,108.818c-2.116-27.774-29.042-49.743-61.974-49.743
			c-10.809,0-20.965,2.37-29.82,6.528C-18.8,52.548-38.223,43.353-60.903,43.353c-23.688,0-43.828,10.036-51.246,24.026
			c-23.295,1.271-41.747,17.828-41.747,38.125c0,21.123,19.973,38.248,44.612,38.248c4.729,0,9.281-0.644,13.558-1.812
			c1.2,29.295,25.341,52.686,54.967,52.686c21.334,0,39.814-12.135,48.945-29.864c3.56,0.543,7.216,0.841,10.956,0.841
			c5.525,0,10.878-0.627,15.977-1.787c7.083,13.984,23.314,23.772,42.227,23.772c25.425,0,46.031-17.672,46.031-39.469
			C123.378,127.417,104.773,110.465,81.117,108.818"/>
		<path clip-path="url(#SVGID_10_)" fill="#4C8C00" d="M894.925,382.979c18.028,9.855,18.602,23.02,17.938,33.438
			c67.745-9.114,77.315,33.069,77.315,33.069l-464.541,0.339c-1.708-3.863-6.617-29.924,50.406-28.17
			c-24.043-9.419-6.977-53.283,77.832-38.168c0,0,16-20.879,49.889-5.535c6.453-12.176,22.474-21.319,55.703-19.389
			c32.028,1.861,46.552,14.117,47.474,24.854C807.839,383.441,854.12,360.675,894.925,382.979"/>
		<path clip-path="url(#SVGID_10_)" fill="#4C8C00" d="M126.534,383.352c18.028,9.855,18.6,23.021,17.939,33.439
			c67.742-9.113,77.314,33.07,77.314,33.07l-464.54,0.338c-1.708-3.863-9.465-27.176,50.406-28.17c0,0-21.067-53.439,77.831-38.168
			c0,0,16-20.878,49.888-5.536c6.453-12.175,22.181-24.037,55.409-22.106c32.028,1.859,46.847,16.836,47.769,27.57
			C39.447,383.814,85.728,361.049,126.534,383.352"/>
	</g>
	<g clip-path="url(#SVGID_2_)">
		<defs>
			<rect id="SVGID_11_" y="-64" width="800" height="636"/>
		</defs>
		<clipPath id="SVGID_12_">
			<use xlink:href="#SVGID_11_"  overflow="visible"/>
		</clipPath>
		<g opacity="0.3" clip-path="url(#SVGID_12_)">
			<g>
				<defs>
					<rect id="SVGID_13_" x="526.49" y="411.015" width="209.18" height="25.436"/>
				</defs>
				<clipPath id="SVGID_14_">
					<use xlink:href="#SVGID_13_"  overflow="visible"/>
				</clipPath>
			</g>
		</g>
		<g opacity="0.49" clip-path="url(#SVGID_12_)">
			<g>
				<defs>
					<rect id="SVGID_15_" x="558" y="334.896" width="26.918" height="8.352"/>
				</defs>
				<clipPath id="SVGID_16_">
					<use xlink:href="#SVGID_15_"  overflow="visible"/>
				</clipPath>
			</g>
		</g>
		<g clip-path="url(#SVGID_12_)">
			<g>
				<defs>
					<rect id="SVGID_17_" x="590.855" y="286.047" width="27.223" height="22.11"/>
				</defs>
				<clipPath id="SVGID_18_">
					<use xlink:href="#SVGID_17_"  overflow="visible"/>
				</clipPath>
			</g>
		</g>
		<g opacity="0.49" clip-path="url(#SVGID_12_)">
			<g>
				<defs>
					<rect id="SVGID_19_" x="587.871" y="351.436" width="39.87" height="61.621"/>
				</defs>
				<clipPath id="SVGID_20_">
					<use xlink:href="#SVGID_19_"  overflow="visible"/>
				</clipPath>
			</g>
		</g>
		<g opacity="0.49" clip-path="url(#SVGID_12_)">
			<g>
				<defs>
					<rect id="SVGID_21_" x="619.645" y="362.443" width="81.597" height="25.1"/>
				</defs>
				<clipPath id="SVGID_22_">
					<use xlink:href="#SVGID_21_"  overflow="visible"/>
				</clipPath>
			</g>
		</g>
		<g opacity="0.49" clip-path="url(#SVGID_12_)">
			<g>
				<defs>
					<rect id="SVGID_23_" x="586.601" y="222.079" width="46.249" height="72.341"/>
				</defs>
				<clipPath id="SVGID_24_">
					<use xlink:href="#SVGID_23_"  overflow="visible"/>
				</clipPath>
			</g>
		</g>
		<g clip-path="url(#SVGID_12_)">
			<g>
				<defs>
					<rect id="SVGID_25_" x="561.943" y="265.984" width="5.909" height="8.064"/>
				</defs>
				<clipPath id="SVGID_26_">
					<use xlink:href="#SVGID_25_"  overflow="visible"/>
				</clipPath>
			</g>
		</g>
		<g opacity="0.49" clip-path="url(#SVGID_12_)">
			<g>
				<defs>
					<rect id="SVGID_27_" x="617.111" y="290.711" width="39.407" height="28.219"/>
				</defs>
				<clipPath id="SVGID_28_">
					<use xlink:href="#SVGID_27_"  overflow="visible"/>
				</clipPath>
			</g>
		</g>
		<g clip-path="url(#SVGID_12_)">
			<g>
				<defs>
					<rect id="SVGID_29_" x="620.875" y="260.279" width="8.02" height="9.281"/>
				</defs>
				<clipPath id="SVGID_30_">
					<use xlink:href="#SVGID_29_"  overflow="visible"/>
				</clipPath>
			</g>
		</g>
		
			<path clip-path="url(#SVGID_12_)" fill="none" stroke="#BBB8C9" stroke-width="0.327" stroke-linecap="round" stroke-miterlimit="10" d="
			M698.511,376.487"/>
		
			<path clip-path="url(#SVGID_12_)" fill="none" stroke="#BBB8C9" stroke-width="0.327" stroke-linecap="round" stroke-miterlimit="10" d="
			M694.998,383.885"/>
		<g opacity="0.49" clip-path="url(#SVGID_12_)">
			<g>
				<defs>
					<rect id="SVGID_31_" x="549.659" y="331.002" width="10.899" height="10.077"/>
				</defs>
				<clipPath id="SVGID_32_">
					<use xlink:href="#SVGID_31_"  overflow="visible"/>
				</clipPath>
			</g>
		</g>
		
			<path clip-path="url(#SVGID_12_)" fill="none" stroke="#BBB8C9" stroke-width="0.25" stroke-linecap="round" stroke-miterlimit="10" d="
			M465.576,304.316"/>
		
			<path clip-path="url(#SVGID_12_)" fill="none" stroke="#BBB8C9" stroke-width="0.25" stroke-linecap="round" stroke-miterlimit="10" d="
			M467.335,301.677"/>
		
			<path clip-path="url(#SVGID_12_)" fill="none" stroke="#BBB8C9" stroke-width="0.25" stroke-linecap="round" stroke-miterlimit="10" d="
			M470.499,303.16"/>
		<g opacity="0.49" clip-path="url(#SVGID_12_)">
			<g>
				<defs>
					<rect id="SVGID_33_" x="435.673" y="175.252" width="18.395" height="39.514"/>
				</defs>
				<clipPath id="SVGID_34_">
					<use xlink:href="#SVGID_33_"  overflow="visible"/>
				</clipPath>
			</g>
		</g>
		<g clip-path="url(#SVGID_12_)">
			<g>
				<defs>
					<rect id="SVGID_35_" x="432.488" y="204.592" width="4.347" height="3.727"/>
				</defs>
				<clipPath id="SVGID_36_">
					<use xlink:href="#SVGID_35_"  overflow="visible"/>
				</clipPath>
			</g>
		</g>
		<g clip-path="url(#SVGID_12_)">
			<g>
				<defs>
					<rect id="SVGID_37_" x="459.306" y="270.354" width="21.552" height="17.73"/>
				</defs>
				<clipPath id="SVGID_38_">
					<use xlink:href="#SVGID_37_"  overflow="visible"/>
				</clipPath>
			</g>
		</g>
		<g opacity="0.7" clip-path="url(#SVGID_12_)">
			<g>
				<defs>
					<rect id="SVGID_39_" x="204.334" y="276.578" width="81.386" height="17.146"/>
				</defs>
				<clipPath id="SVGID_40_">
					<use xlink:href="#SVGID_39_"  overflow="visible"/>
				</clipPath>
				<g opacity="0.3" clip-path="url(#SVGID_40_)">
					<g>
						<defs>
							<rect id="SVGID_41_" x="204.334" y="276.578" width="81.386" height="17.146"/>
						</defs>
						<clipPath id="SVGID_42_">
							<use xlink:href="#SVGID_41_"  overflow="visible"/>
						</clipPath>
					</g>
				</g>
			</g>
		</g>
		<g opacity="0.57" clip-path="url(#SVGID_12_)">
			<g>
				<defs>
					<rect id="SVGID_43_" x="257.438" y="203.931" width="7.854" height="5.265"/>
				</defs>
				<clipPath id="SVGID_44_">
					<use xlink:href="#SVGID_43_"  overflow="visible"/>
				</clipPath>
			</g>
		</g>
		<path clip-path="url(#SVGID_12_)" fill="#FCC294" d="M243.019,188.216c-0.172-0.031-0.355-0.066-0.555-0.104
			c0.175,0.013,0.354,0.037,0.534,0.062C243.003,188.187,243.012,188.199,243.019,188.216"/>
		<g clip-path="url(#SVGID_12_)">
			<g>
				<defs>
					<rect id="SVGID_45_" x="282.621" y="235.764" width="2.426" height="16.703"/>
				</defs>
				<clipPath id="SVGID_46_">
					<use xlink:href="#SVGID_45_"  overflow="visible"/>
				</clipPath>
			</g>
		</g>
		<g clip-path="url(#SVGID_12_)">
			<g>
				<defs>
					<rect id="SVGID_47_" x="275.135" y="235.976" width="1.303" height="15.319"/>
				</defs>
				<clipPath id="SVGID_48_">
					<use xlink:href="#SVGID_47_"  overflow="visible"/>
				</clipPath>
			</g>
		</g>
		<g clip-path="url(#SVGID_12_)">
			<g>
				<defs>
					<rect id="SVGID_49_" x="266.336" y="236.176" width="2.613" height="15.765"/>
				</defs>
				<clipPath id="SVGID_50_">
					<use xlink:href="#SVGID_49_"  overflow="visible"/>
				</clipPath>
			</g>
		</g>
		<g clip-path="url(#SVGID_12_)">
			<g>
				<defs>
					<rect id="SVGID_51_" x="250.203" y="235.93" width="4.584" height="14.805"/>
				</defs>
				<clipPath id="SVGID_52_">
					<use xlink:href="#SVGID_51_"  overflow="visible"/>
				</clipPath>
			</g>
		</g>
		<g opacity="0.3" clip-path="url(#SVGID_12_)">
			<g>
				<defs>
					<rect id="SVGID_53_" x="158.797" y="509.719" width="220.637" height="26.785"/>
				</defs>
				<clipPath id="SVGID_54_">
					<use xlink:href="#SVGID_53_"  overflow="visible"/>
				</clipPath>
			</g>
		</g>
		<g opacity="0.2" clip-path="url(#SVGID_12_)">
			<g>
				<defs>
					<rect id="SVGID_55_" x="217.001" y="365.732" width="65.798" height="51.672"/>
				</defs>
				<clipPath id="SVGID_56_">
					<use xlink:href="#SVGID_55_"  overflow="visible"/>
				</clipPath>
			</g>
		</g>
		<g opacity="0.68" clip-path="url(#SVGID_12_)">
			<g>
				<path fill="#FCEEDB" d="M221.359,355.459"/>
			</g>
		</g>
		<g opacity="0.49" clip-path="url(#SVGID_12_)">
			<g>
				<defs>
					<rect id="SVGID_57_" x="177.021" y="277.855" width="71.728" height="40.235"/>
				</defs>
				<clipPath id="SVGID_58_">
					<use xlink:href="#SVGID_57_"  overflow="visible"/>
				</clipPath>
			</g>
		</g>
		<g clip-path="url(#SVGID_12_)">
			<g>
				<defs>
					<rect id="SVGID_59_" x="189.978" y="326.727" width="6.076" height="8.474"/>
				</defs>
				<clipPath id="SVGID_60_">
					<use xlink:href="#SVGID_59_"  overflow="visible"/>
				</clipPath>
			</g>
		</g>
		<g clip-path="url(#SVGID_12_)">
			<g>
				<defs>
					<rect id="SVGID_61_" x="255.269" y="332.955" width="9.634" height="9.143"/>
				</defs>
				<clipPath id="SVGID_62_">
					<use xlink:href="#SVGID_61_"  overflow="visible"/>
				</clipPath>
			</g>
		</g>
	</g>
	<g clip-path="url(#SVGID_2_)">
		<defs>
			<rect id="SVGID_63_" y="-64" width="800" height="636"/>
		</defs>
		<clipPath id="SVGID_64_">
			<use xlink:href="#SVGID_63_"  overflow="visible"/>
		</clipPath>
		<path clip-path="url(#SVGID_64_)" fill="#FFFFFF" d="M391.795,548.813c-0.002-0.006-0.002-0.008-0.002-0.016
			C391.793,548.806,391.793,548.808,391.795,548.813"/>
		<path clip-path="url(#SVGID_64_)" fill="#FFFFFF" d="M391.938,549.526h0.002c-0.053-0.203-0.096-0.406-0.127-0.604
			C391.844,549.124,391.887,549.327,391.938,549.526"/>
		<path clip-path="url(#SVGID_64_)" fill="#FFFFFF" d="M392.868,551.599c-0.007-0.01-0.013-0.02-0.019-0.027
			C392.855,551.579,392.861,551.589,392.868,551.599"/>
		<path clip-path="url(#SVGID_64_)" fill="#FFFFFF" d="M392.777,551.461c-0.025-0.037-0.047-0.08-0.07-0.117
			C392.73,551.385,392.752,551.424,392.777,551.461"/>
		<path clip-path="url(#SVGID_64_)" fill="#FFFFFF" d="M392.197,550.323c0.139,0.345,0.305,0.678,0.496,0.995
			c-0.193-0.323-0.357-0.658-0.49-0.995H392.197z"/>
	</g>
</g>
<path opacity="0.66" fill="#FFFFFF" d="M287.842,84.01c-0.597,0-1.174,0.059-1.729,0.161c-0.805-0.88-2.032-1.709-3.555-2.327
	c-1.547-0.625-3.134-0.926-4.517-0.919c0.001-0.083,0.017-0.164,0.017-0.249c0-6.288-7.277-11.386-16.256-11.386
	c-7.898,0-14.475,3.946-15.947,9.176c-1.289-0.558-2.755-0.716-4.131-0.34c-2.178,0.595-3.506,2.351-3.542,4.344
	c-0.884-0.125-1.805-0.197-2.755-0.197c-6.434,0-11.65,3-11.65,6.702c0,3.701,5.216,6.701,11.65,6.701
	c2.163,0,4.181-0.346,5.919-0.936c1.178,2.572,4.272,4.41,7.913,4.41c2.538,0,4.809-0.896,6.353-2.307
	c1.5,0.84,3.356,1.344,5.375,1.344c2.201,0,4.216-0.593,5.776-1.577c2.102,1.75,5.609,2.898,9.583,2.898
	c5.206,0,9.612-1.966,11.104-4.676c0.131,0.006,0.258,0.015,0.391,0.015c4.018,0,7.271-2.426,7.271-5.419
	C295.112,86.436,291.859,84.01,287.842,84.01"/>
<path fill="#5E9B08" d="M0,449.889h202.896c-9.366-10.465-28.309-21.67-65.661-16.643c0.636-10.012,0.086-22.662-17.236-32.131
	c-39.212-21.43-83.681,0.445-84.544,0.42C34.678,392.467,23.575,380.254,0,376.218V449.889z"/>
<path fill="#5E9B08" d="M800,387.409c-4.471,3.396-7.609,7.333-9.716,11.306c-32.562-14.742-47.938,5.32-47.938,5.32
	c-67.68-8.605-66.612,28.447-66.612,28.447c-30.176,0.503-44.707,9.17-51.481,17.828H800V387.409z"/>
</svg>
