<?xml version="1.0" encoding="utf-8"?>
<!-- Generator: Adobe Illustrator 23.0.3, SVG Export Plug-In . SVG Version: 6.00 Build 0)  -->
<svg version="1.1" id="Layer_1" xmlns="http://www.w3.org/2000/svg" xmlns:xlink="http://www.w3.org/1999/xlink" x="0px" y="0px"
	 viewBox="0 0 269.7 236.7" style="enable-background:new 0 0 269.7 236.7;" xml:space="preserve">
<style type="text/css">
	.st0{fill:#F4CB2D;}
	.st1{fill:none;stroke:#B15514;stroke-width:10;stroke-linecap:round;stroke-linejoin:round;}
	.st2{fill:#FFFFFF;fill-opacity:0.5765;}
	.st3{fill:#FFFCEF;}
	.st4{fill:none;stroke:#993300;stroke-width:8;stroke-linecap:round;stroke-linejoin:round;}
	.st5{fill:#993300;}
	.st6{fill:#FCB951;}
	.st7{fill:#FFF0CD;}
	.st8{fill:none;stroke:#993300;stroke-width:6;stroke-linecap:round;stroke-linejoin:round;}
</style>
<g>
	<g transform="matrix( 0.9999847412109375, 0, 0, 0.9999847412109375, 921.45,541.6) ">
		<g>
			<g transform="matrix( 1, 0, 0, 1, 0,0) ">
				<g>
					<g>
						<path class="st0" d="M-663.1-530.3c-4.2-4.2-9.3-6.3-15.2-6.3H-895c-5.9,0-11,2.1-15.2,6.3s-6.3,9.2-6.3,15.2v183.7
							c0,5.9,2.1,10.9,6.3,15.1c4.2,4.2,9.3,6.4,15.2,6.4h216.7c5.9,0,11-2.1,15.2-6.4c4.2-4.2,6.3-9.2,6.3-15.1v-183.7
							C-656.8-521.1-658.9-526.1-663.1-530.3z"/>
					</g>
				</g>
				<g>
					<path class="st1" d="M-895-536.6h216.7c5.9,0,11,2.1,15.2,6.3c4.2,4.2,6.3,9.2,6.3,15.2v183.7c0,5.9-2.1,10.9-6.3,15.1
						c-4.2,4.2-9.3,6.4-15.2,6.4H-895c-5.9,0-11-2.1-15.2-6.4c-4.2-4.2-6.3-9.2-6.3-15.1v-183.7c0-5.9,2.1-11,6.3-15.2
						S-900.9-536.6-895-536.6z"/>
				</g>
			</g>
			<g transform="matrix( 0.7002410888671875, 0, 0, 0.7002410888671875, -1155.2,-392.1) ">
				<g>
					<g>
						<path class="st2" d="M424.3-144.2C397-116.9,383.4-84,383.4-45.4S397,26,424.3,53.3c27.3,27.3,60.2,41,98.6,41
							c38.5,0,71.4-13.7,98.7-41c27.3-27.2,40.9-60.1,40.9-98.7s-13.6-71.5-40.9-98.8c-27.3-27.3-60.2-40.9-98.7-40.9
							C484.4-185.1,451.6-171.5,424.3-144.2z"/>
					</g>
				</g>
			</g>
			<g transform="matrix( 0.7002410888671875, 0, 0, 0.7002410888671875, -1155.2,-484.05) ">
				<g>
					<g>
						<path class="st3" d="M433.5,229.3l8.2-24.7l24.6-8.2l-24.6-8.2l-8.2-24.6l-8.2,24.6l-24.7,8.2l24.7,8.2L433.5,229.3
							 M636.2,53.9l19.5,6.5l6.5,19.5l6.6-19.5l19.5-6.5l-19.5-6.5l-6.6-19.5l-6.5,19.5L636.2,53.9 M628.6-58.6l-10.2,30.9l-31,10.3
							l31,10.3l10.2,30.9l10.3-30.9l30.9-10.3l-30.9-10.3L628.6-58.6 M397.3,157.1l14.4-4.8l-14.4-4.8l-4.8-14.4l-4.8,14.4
							l-14.5,4.8l14.5,4.8l4.8,14.5L397.3,157.1z"/>
					</g>
				</g>
				<g transform="matrix( 1.428070068359375, 0, 0, 1.428070068359375, 1649.7,691.25) ">
					<path class="st4" d="M-866.9-377.4l-10.1,3.4l-3.4,10.1l-3.4-10.1l-10.1-3.4l10.1-3.4l3.4-10.1l3.4,10.1L-866.9-377.4z
						 M-686.2-496.2l-21.6,7.2l-7.2,21.6l-7.2-21.6l-21.7-7.2l21.7-7.2l7.2-21.6l7.2,21.6L-686.2-496.2z M-673.3-446.3l-13.7,4.6
						l-4.6,13.7l-4.6-13.7l-13.7-4.6l13.7-4.6l4.6-13.7l4.6,13.7L-673.3-446.3z M-828.6-346.5l-17.3,5.7l-5.8,17.3l-5.7-17.3
						l-17.3-5.7l17.3-5.8l5.7-17.3l5.8,17.3L-828.6-346.5z"/>
				</g>
			</g>
			<g transform="matrix( 1, 0, 0, 1, -18.55,-5.65) ">
				<g>
					<g transform="matrix( 1, 0, 0, 1, 0,0) ">
						<g>
							<g>
								<path class="st5" d="M-772.6-494.9c-0.6-0.8-1.5-1.3-2.5-1.4c-1-0.1-1.8,0.1-2.6,0.7l-68.2,52.9c-0.8,0.6-1.2,1.4-1.3,2.3
									c-0.1,1,0.2,1.9,0.8,2.7l39.6,51c3.1,4,7.1,6.3,12,6.9c4.9,0.6,9.3-0.6,13.2-3.6l8.6-6.6l19.8,25.5c3,3.9,7,6.2,12,6.9
									c4.9,0.6,9.3-0.6,13.2-3.6c4-3.1,6.3-7,6.9-11.9c0.6-5-0.7-9.4-3.7-13.3l-19.8-25.6l8.4-6.6c4-3.1,6.3-7.1,6.9-12
									c0.6-4.9-0.6-9.3-3.7-13.3L-772.6-494.9 M-782.1-460.3c0.6,0.8,1.4,1.2,2.3,1.4c1.1,0.2,2-0.1,2.8-0.7
									c0.8-0.6,1.2-1.4,1.2-2.4c0.2-1,0-1.9-0.6-2.7l-11-14.1l11.3-8.9l26.5,34.1l-62.5,48.5l-26.5-34.1l22.7-17.6l11,14.1
									c0.6,0.8,1.4,1.3,2.3,1.4c1.1,0.1,2-0.1,2.8-0.7c0.8-0.6,1.2-1.4,1.3-2.4c0.2-1,0-1.9-0.6-2.7l-11-14.1l5.6-4.3l2.2,2.8
									c0.6,0.8,1.4,1.3,2.3,1.4c1.1,0.1,2-0.2,2.8-0.8c0.8-0.6,1.2-1.4,1.2-2.3c0.2-1,0-1.9-0.7-2.7l-2.2-2.8l5.7-4.4
									L-782.1-460.3 M-738.6-439.5c1.9,2.4,2.6,5.1,2.1,8.1c-0.3,3-1.6,5.4-4,7.2l-11.3,8.8c-0.8,0.6-1.2,1.4-1.4,2.4
									c-0.1,0.9,0.1,1.8,0.8,2.5l22,28.4c1.8,2.3,2.5,5,2.2,8.1c-0.4,2.9-1.8,5.3-4.2,7.1c-2.3,1.8-4.9,2.6-7.9,2.2
									c-3-0.4-5.4-1.8-7.2-4.1l-22-28.4c-0.6-0.8-1.5-1.2-2.5-1.2c-0.9-0.1-1.8,0.1-2.5,0.8L-786-389c-2.3,1.8-5,2.5-8,2.1
									c-2.9-0.4-5.3-1.8-7.1-4.1l-6.5-8.5l62.5-48.5L-738.6-439.5z"/>
								<path class="st6" d="M-736.5-431.5c0.4-3-0.3-5.7-2.1-8.1l-6.6-8.5l-62.5,48.5l6.5,8.5c1.9,2.4,4.2,3.8,7.1,4.1
									c3,0.4,5.7-0.3,8-2.1l11.4-8.8c0.8-0.6,1.6-0.9,2.5-0.8c1,0.1,1.8,0.5,2.5,1.2l22,28.4c1.8,2.3,4.2,3.7,7.2,4.1
									c3,0.3,5.6-0.4,7.9-2.2c2.4-1.8,3.8-4.2,4.2-7.1c0.4-3-0.3-5.7-2.2-8.1l-22-28.4c-0.6-0.8-0.9-1.6-0.8-2.5
									c0.1-1,0.5-1.8,1.4-2.4l11.3-8.8C-738.1-426-736.8-428.5-736.5-431.5z"/>
								<path class="st7" d="M-779.8-459c-0.9-0.1-1.7-0.6-2.3-1.4l-11-14.1l-5.7,4.4l2.2,2.8c0.6,0.8,0.8,1.7,0.7,2.7
									c-0.1,1-0.5,1.8-1.2,2.3c-0.8,0.6-1.7,0.9-2.8,0.8c-0.9-0.1-1.7-0.6-2.3-1.4l-2.2-2.8l-5.6,4.3l11,14.1
									c0.6,0.8,0.8,1.7,0.6,2.7c-0.1,1-0.5,1.8-1.3,2.4c-0.8,0.6-1.7,0.8-2.8,0.7c-0.9-0.1-1.7-0.6-2.3-1.4l-11-14.1l-22.7,17.6
									l26.5,34.1l62.5-48.5l-26.5-34.1l-11.3,8.9l11,14.1c0.6,0.8,0.8,1.7,0.6,2.7c0,1-0.5,1.8-1.2,2.4
									C-777.8-459-778.7-458.8-779.8-459z"/>
							</g>
						</g>
						<g>
							<path class="st8" d="M-846.4-437.7l39.6,51c3.1,4,7.1,6.3,12,6.9c4.9,0.6,9.3-0.6,13.2-3.6l8.6-6.6l19.8,25.5
								c3,3.9,7,6.2,12,6.9c4.9,0.6,9.3-0.6,13.2-3.6c4-3.1,6.3-7,6.9-11.9c0.6-5-0.7-9.4-3.7-13.3l-19.8-25.6l8.4-6.6
								c4-3.1,6.3-7.1,6.9-12c0.6-4.9-0.6-9.3-3.7-13.3l-39.6-51c-0.6-0.8-1.5-1.3-2.5-1.4c-1-0.1-1.8,0.1-2.6,0.7l-68.2,52.9
								c-0.8,0.6-1.2,1.4-1.3,2.3C-847.3-439.4-847-438.5-846.4-437.7z"/>
						</g>
					</g>
				</g>
			</g>
		</g>
	</g>
</g>
</svg>
