<svg xmlns="http://www.w3.org/2000/svg" width="6120" height="5373.5"><path fill="#6F53A1" d="M175.864 177.026C57.865 292.756-1.134 435.714-1.134 601.364v4170.767c0 165.65 59 306.342 176.998 424.338 117.998 117.998 258.688 176.998 426.607 176.998H5519.8c165.65 0 308.607-59 426.605-176.998h-2.27c117.998-117.996 176.996-258.688 176.996-424.338V601.364c0-165.65-58.997-306.34-176.995-424.339C5823.868 59.028 5683.18.03 5517.53.03H600.202c-167.92.001-308.61 59-424.338 176.997M334.708 335.87c72.613-72.614 161.11-108.92 265.119-108.92h4917.33c104.757 0 190.986 36.306 265.87 108.92 72.613 72.614 111.188 161.112 108.92 263.226v4170.77c0 102.11-36.308 190.608-108.92 263.224-72.616 74.884-161.113 111.192-265.497 111.192H600.202c-102.113 0-190.611-36.31-263.226-108.923v-2.27c-72.614-72.613-108.921-161.111-108.921-263.225V601.364c-2.27-104.382 34.038-192.88 106.653-265.495z"/><path fill="#9864DB" d="M336.975 333.87c-74.884 72.614-111.19 161.112-111.19 265.495V4770.13c0 102.113 36.308 190.611 108.922 263.227v2.27c72.613 72.614 161.111 111.19 263.226 108.923h4917.332c102.111 0 191.103-33.269 266.872-110.546 72.614-72.61 112.08-162.025 109.812-264.14V599.094c0-126.98-38.219-192.453-110.833-265.065-72.612-72.614-155.06-108.519-265.83-107.082l-4915.083.27c-104.384-2.27-192.882 34.038-263.227 106.651z"/><path fill="#E0D1F4" d="M3005.542 451.597c-612.682 0-1136.863 215.572-1570.277 648.988C1001.85 1534 786.277 2058.184 786.277 2670.863s215.573 1134.594 648.988 1568.01c433.414 433.413 957.597 651.255 1570.277 651.255 612.68 0 1134.594-217.841 1568.01-651.255 433.414-433.417 651.256-955.329 651.256-1568.01S5006.966 1534 4573.552 1100.586c-433.417-433.414-957.6-648.987-1568.01-648.987z"/><path fill="#4B427A" d="M3116.73 950.82c-13.614-20.423-34.037-34.038-56.728-38.576-24.963-4.538-47.653 0-68.076 13.614L1573.684 1899.34c-54.461 36.308-95.307 81.69-127.074 131.612-13.615 20.423-24.961 43.115-34.037 68.076-6.81 22.69-13.615 45.384-20.424 72.614v2.269c-11.346 58.998-9.076 117.997 4.539 172.457 11.346 52.192 34.037 99.847 65.807 147.499l1000.71 1459.087h-2.27c65.808 97.574 158.845 156.574 274.573 176.996v2.272c27.229 4.536 52.19 6.806 74.883 6.806 24.96 0 49.922 0 74.883-4.537h2.27c59-11.346 115.73-34.039 170.189-70.346l1375.127-941.713c13.616-9.076 24.962-22.69 31.77-38.576 6.809-6.809 11.347-15.885 13.616-27.23 6.807-9.076 11.345-20.422 11.345-34.037 0-4.539 2.271-9.076 2.271-13.615v-4.539c6.808-45.383-2.27-88.498-29.5-124.805l2.27 4.537c-24.96-40.846-61.267-65.805-106.65-72.613-34.037-9.076-68.074-6.807-102.113 6.81-6.807 4.536-15.884 6.808-22.69 13.614l-149.767-217.843c9.077-9.076 15.884-18.152 22.692-29.499 2.27 0 2.27-2.27 2.27-4.539 4.537-6.807 6.808-11.346 9.076-18.153v-6.808c11.347-9.076 20.422-22.69 27.23-38.576 6.807-22.69 6.807-47.65-4.54-68.075-2.27-4.537-6.807-13.614-13.614-22.69v-2.27c-4.538-6.809-9.076-11.348-13.615-18.153L3116.73 950.82m871.367 1595.238l-1302.514 894.06c-22.692 15.885-40.847 34.04-56.73 52.191-20.422 27.23-36.801 59.45-45.877 93.486-2.272 6.81-3.173 11.441-4.044 19.973v2.27c-6.809 31.77-6.809 63.54-2.27 93.037 0 2.27-.867 17.23 1.401 17.23 6.808 34.04 19.021 57.652 39.443 87.152l3.79 5.205c22.69 31.768 46.132 53.793 75.632 71.945 27.23 15.885 56.73 29.5 88.498 34.037 0 0 10.474 1.814 12.743 1.814 72.613 13.615 130.188-7.178 189.188-48.02l1.147-.788 1278.7-876.564c11.347 4.54 20.423 4.54 29.5 4.54l-1338.82 912.214c-31.77 20.422-63.537 34.037-99.845 40.844-13.613 2.271-24.96 2.271-40.845 2.271s-34.039-2.27-52.19-4.539c-65.809-11.346-117.999-45.383-154.307-102.113l-998.442-1459.087v-2.27c-18.153-27.229-31.77-54.46-38.576-86.229v2.27c-6.808-31.77-6.808-65.807 0-102.113v2.271l13.614-47.653c2.271-6.809 4.54-11.346 6.81-18.153s7.883-10.812 10.151-17.62c13.615-13.615 28.424-34.572 46.576-52.726m.005-.003c9.076-6.808 15.885-11.346 24.96-18.153l1341.09-919.02 951.374 1389.775c2.268 4.537 7.27 7.401 9.537 11.94M2699.2 3594.422c15.885-18.151 29.5-36.306 43.115-54.458 2.27-2.27 6.808-4.54 9.076-6.81l1189.056-812.369 152.034 222.381c4.538 9.076 11.345 15.885 18.154 20.422l-1191.323 814.64c-34.038 22.69-70.345 31.77-113.46 24.96h2.27c-18.152-4.537-36.307-11.346-49.922-20.422-18.152-11.346-31.77-24.96-45.384-45.385-11.346-15.883-20.423-34.037-22.692-52.189v-2.27-31.77-22.692c2.27-9.077 4.539-15.886 6.809-24.962-.001-2.267-.001-4.536 2.267-9.075z"/><path fill="#6F53A1" d="M2687.854 3630.731c0-2.269 0 0 0 0m6.808-18.154c0-2.27 2.27-6.809 2.27-9.076-2.27 9.076-4.537 15.883-6.808 24.961 0-2.27 2.268-9.078 4.538-15.885M1600.318 2123.413l-2.317 3.93c-4.54 6.808-3.134 4.271-6.164 14.801l989.366 1450.011c9.076-34.037 25.6-70.414 46.022-97.646l-976.391-1429.518c-18.152 18.153-36.901 37.998-50.516 58.422z"/><path fill="#FEF7FF" d="M2742.314 3539.965c-13.614 18.151-27.23 36.306-43.113 54.458 0 4.54-2.27 6.81-2.27 11.349 0 2.27 0 6.806-2.272 9.075 0 6.81-2.269 11.346-4.538 15.885-2.269 6.808-2.269 13.616-2.269 20.423v34.04c4.539 18.151 11.347 36.306 22.69 52.188 13.616 18.155 27.23 34.04 45.385 45.386 15.884 9.076 31.77 15.885 49.922 20.422h-2.27c40.846 6.809 79.422-2.27 113.46-24.961l1191.327-814.64c-6.808-4.54-13.613-11.347-18.152-20.423l-152.035-222.38-1189.056 812.369-6.809 6.808z"/><path fill="#9864DB" d="M1591.836 2142.144c-2.27 4.539-4.537 11.346-6.808 18.153l-13.614 47.651v-2.27c-6.81 36.309-6.81 68.077 0 102.114v-2.27c6.808 29.498 20.422 58.998 38.575 86.228v2.27l998.443 1459.09c38.575 56.728 90.768 90.767 154.305 102.11 18.152 2.271 36.306 4.54 52.19 4.54 13.614 0 27.23 0 40.846-2.27 34.038-6.81 68.076-20.425 99.845-40.849l1341.09-919.02c-9.076 0-20.422 0-29.5-4.539l-1284.36 880.453c-58.998 40.846-124.805 56.729-195.15 43.113h-2.27c-31.77-6.81-61.268-18.152-88.497-34.04-29.5-18.151-56.73-45.382-79.423-77.15-20.422-29.5-36.307-63.536-40.846-95.306 0 0 1.493-20.52-.774-20.52-2.388-29.688-3.77-28.576 1.025-71.012l.551-3.158.687-3.627c2.271-6.807.781-12.875 3.05-19.682l-989.365-1450.01m83.96-95.305c-9.075 6.809-15.884 11.347-24.96 18.153l976.39 1429.52c28.807-31.396 28.307-28.73 57.613-53.865L3988.1 2546.06c-4.537-4.538-6.808-11.346-11.345-18.153-2.271-4.538-6.81-6.808-9.077-11.346l-950.79-1388.743-1341.09 919.02z"/><g><path fill="#4B427A" d="M5165.807 1674.692c-15.884 11.346-27.23 27.229-34.038 45.384l-88.499 265.494-267.764 90.768c-18.154 6.808-31.77 18.153-45.385 34.037-11.345 15.886-18.151 34.039-18.151 52.192 0 20.422 4.537 36.306 18.151 52.19 11.348 15.883 27.23 27.23 45.385 34.037l267.764 88.499 88.499 267.765c6.808 18.153 18.152 34.038 34.038 45.385 15.885 11.345 34.038 18.152 52.19 18.152 20.422 0 36.308-6.808 52.191-18.152 15.884-11.348 27.23-27.23 34.037-45.385l90.768-267.765 267.765-88.499c18.154-6.808 34.04-18.153 45.386-31.77 11.345-15.884 18.151-34.036 18.151-54.46 0-20.423-6.807-36.307-18.151-52.19-11.348-15.884-24.962-27.23-45.386-34.038l-267.764-90.768-90.769-267.765c-6.809-18.153-18.153-31.77-34.037-43.114-15.885-11.347-34.039-18.153-52.19-18.153-18.152 2.27-36.306 6.807-52.19 18.155m-72.615 485.605l49.922-18.153c13.616-4.538 24.962-11.346 36.309-22.69 11.346-9.077 18.151-22.692 22.69-34.038l18.153-52.19 18.152 52.19c4.54 13.614 11.347 24.961 22.692 34.038 9.076 11.346 22.691 18.152 36.308 22.69l49.923 18.153-49.923 18.153c-13.614 4.54-24.961 11.347-36.308 22.691-11.348 11.347-18.153 22.692-22.692 34.038l-18.152 52.191-18.153-52.19c-4.538-13.616-11.346-24.962-22.69-34.039-9.078-9.077-20.424-15.884-36.309-22.69l-49.922-18.154M5415.417 978.05c-11.347-15.884-27.23-27.229-45.384-34.037l-447.028-149.767-149.768-449.3c-6.808-18.153-18.152-31.769-34.037-45.384-15.885-11.346-31.77-18.154-52.19-18.154-20.423 0-36.31 4.54-52.191 18.154-15.885 11.346-27.23 27.23-34.04 45.383l-149.765 449.301-449.3 149.767c-18.153 6.807-31.77 18.153-45.384 34.037-11.347 15.885-18.152 34.038-18.152 54.461s6.807 38.576 18.152 52.19c11.346 15.886 27.229 27.23 45.385 34.04l447.028 147.495 149.769 449.3c6.807 18.153 18.15 34.038 34.037 45.384 15.885 11.346 34.038 18.153 52.19 18.153 20.422 0 38.576-4.538 52.19-18.153 15.886-11.346 27.23-27.229 34.038-45.384l149.768-449.3 449.299-147.496c18.154-6.809 34.038-18.153 45.384-34.039 11.348-15.885 18.153-31.769 18.153-52.19 0-22.691-6.809-38.577-18.154-54.46m-628.565-47.653c11.347 11.346 22.69 18.153 34.039 22.69l233.726 79.423-231.458 77.152c-13.614 4.538-24.96 11.346-36.306 20.423-9.077 11.346-15.886 22.692-22.692 36.307l-77.15 233.728-77.153-231.457c-4.538-13.615-11.345-24.961-22.69-36.307-9.076-9.077-22.691-15.886-36.308-20.424l-231.457-77.152 231.456-79.422c13.616-4.54 24.962-11.346 36.31-22.69 11.346-9.077 18.15-22.692 22.69-34.038l77.151-231.458 77.152 231.458c4.537 9.076 11.345 20.422 22.69 31.767M1528.3 3830.42c-15.884 11.348-27.23 27.23-34.038 45.385l-115.729 347.186-349.454 117.998c-18.153 6.807-31.77 18.152-45.384 34.037-11.347 15.885-18.153 34.039-18.153 54.46s4.54 36.308 18.153 52.192c11.347 15.883 27.23 27.23 45.384 34.037l349.454 115.729 115.73 349.455c6.808 18.154 18.153 34.039 34.036 45.385 15.885 11.346 34.04 18.152 52.191 18.152 20.424 0 36.31-4.537 52.191-18.152 15.884-11.348 27.23-27.23 34.038-45.385l115.73-349.455 349.454-115.73c18.154-6.806 34.038-18.151 43.115-34.036 11.346-15.885 18.153-34.04 18.153-52.191 0-18.154-4.539-36.31-18.154-54.461-11.345-15.883-27.23-27.23-45.383-34.037l-349.455-117.998-115.73-349.455c-6.807-18.152-18.151-31.77-34.036-45.383-15.885-11.348-34.037-18.154-54.461-18.154-13.613 4.536-31.768 9.075-47.652 20.42m154.305 551.415l133.882 45.383-131.612 43.115c-13.614 4.536-24.961 11.345-36.308 22.69-9.076 11.347-15.884 22.69-22.69 34.038l-45.385 133.882-43.113-133.882c-4.54-13.616-11.348-24.962-22.692-34.038-9.077-9.075-20.423-15.884-36.308-22.69l-133.881-45.386 133.88-43.112c13.615-4.54 24.962-11.349 36.309-22.692 11.346-9.077 18.153-20.423 22.692-36.308l43.113-133.882 45.385 133.881c4.537 13.616 11.346 24.962 22.69 36.31 11.347 11.345 22.693 18.152 34.038 22.69m-1148.21-655.796c0 20.422 4.539 36.307 18.153 52.19 11.347 15.884 27.23 27.23 45.385 34.038l186.072 63.536 63.537 186.074c6.81 18.152 18.154 34.037 31.77 45.383 15.885 11.347 34.038 18.153 54.46 18.153s36.31-4.538 52.192-18.153c15.884-11.345 27.229-27.23 34.037-45.382l61.269-186.075 183.805-63.536c18.153-6.81 34.037-18.154 45.384-34.037 11.347-15.885 18.153-34.04 18.153-52.191s-6.808-36.31-18.153-52.191c-11.347-15.885-24.961-27.23-45.384-31.77l-183.805-61.268-61.27-186.074c-6.807-18.152-18.151-34.037-34.036-45.383-15.885-11.348-34.038-15.885-52.191-18.154-18.152 0-36.307 4.539-54.46 18.154-15.885 11.346-27.23 27.229-31.771 45.383l-63.537 186.074-186.072 63.537c-18.153 6.807-31.77 18.152-45.384 31.768-13.615 11.348-18.153 29.5-18.153 49.924m408.454-13.615c4.538 4.537 11.346 9.076 15.884 11.346-4.538 4.539-11.346 9.078-15.884 11.348-4.54 4.537-9.077 11.346-11.347 15.883-2.27-4.537-6.81-11.346-13.614-15.883-4.54-4.54-9.077-9.078-13.615-11.348 4.538-2.27 11.347-6.81 13.615-11.346 4.538-4.54 9.075-9.078 13.614-15.885 2.27 6.807 6.808 11.348 11.347 15.885z"/><path fill="#FFEFEF" d="M5145.385 2144.412l-49.923 18.153 49.923 18.153c13.615 4.54 24.961 11.346 36.307 22.691 11.349 11.347 18.154 22.691 22.693 34.038l18.151 52.191 18.154-52.19c4.539-13.616 11.346-24.962 22.69-34.039 9.076-9.077 22.691-18.153 36.308-22.69l49.924-18.154-49.924-18.153c-13.614-4.539-24.96-11.346-36.308-22.69-11.347-9.077-18.152-20.424-22.69-34.039l-18.153-52.19-18.153 52.19c-4.538 13.615-11.346 24.962-22.691 34.038-11.347 11.346-22.694 18.153-36.309 22.691M4820.891 953.09c-13.615-4.539-24.962-11.347-34.038-22.69-9.076-9.078-18.153-20.424-22.691-34.039l-77.151-231.457-77.152 231.457c-4.54 13.615-11.346 24.961-22.69 34.038-9.077 11.346-20.424 18.153-36.31 22.691l-231.456 79.422 231.457 77.151c13.615 4.538 24.96 11.347 36.309 20.423 11.346 11.347 18.15 22.692 22.69 36.308l77.152 231.458 77.15-233.728c4.539-13.614 11.348-24.96 22.692-36.308 11.346-9.076 22.69-15.885 36.307-20.424l231.458-77.15-233.727-77.152M1818.756 4427.216l-133.884-45.383c-13.614-4.538-24.961-11.347-34.036-22.692-9.076-9.077-15.886-20.423-22.691-36.308l-45.385-133.882-43.114 133.882c-4.538 13.616-11.347 24.962-22.692 36.308-9.076 11.347-20.422 18.153-36.307 22.692l-133.883 43.112 133.883 45.384c13.615 4.538 24.96 11.349 36.307 22.692 11.348 11.345 18.154 22.69 22.692 34.036l43.114 133.884 45.385-133.884c4.537-13.614 11.346-24.96 22.69-34.036 11.345-9.077 22.69-15.886 36.308-22.692l131.613-43.114m-860.024-701.179c-4.537-2.27-11.345-6.809-15.883-11.348-4.54-4.537-9.077-9.076-11.347-15.883-2.27 4.537-6.81 11.346-13.614 15.883-4.54 4.54-9.077 9.078-13.615 11.348 4.538 4.54 11.347 9.076 13.615 11.346 4.538 4.54 9.075 11.348 13.614 15.885 4.539-4.539 9.076-11.346 11.347-15.885 4.538-4.538 11.346-9.078 15.884-11.346z"/></g></svg>