<?xml version="1.0" encoding="utf-8"?>
<!-- Generator: Adobe Illustrator 23.0.3, SVG Export Plug-In . SVG Version: 6.00 Build 0)  -->
<svg version="1.1" id="Layer_1" xmlns="http://www.w3.org/2000/svg" xmlns:xlink="http://www.w3.org/1999/xlink" x="0px" y="0px"
	 viewBox="0 0 146 118" style="enable-background:new 0 0 146 118;" xml:space="preserve">
<style type="text/css">
	.st0{fill:none;}
	.st1{fill:#B0D758;}
	.st2{fill:#B0D758;stroke:#B0D758;stroke-miterlimit:10;}
</style>
<g>
	<rect class="st0" width="146" height="118"/>
	<path class="st1" d="M25,30.7c0,1.3,0.4,2.4,1.3,3.3l13.1,13.1c0.9,0.9,2,1.3,3.3,1.3s2.4-0.4,3.3-1.3l4.4-4.4
		c0.3-0.3,0.4-0.6,0.4-1.1s-0.2-0.8-0.5-1l-0.2-0.2c-0.9-0.5-1.9-0.9-2.9-1.3c-0.7-0.2-1.2-0.6-1.6-1.2c-0.3-0.6-0.5-1.1-0.5-1.8
		c0.1-0.6,0.2-1.2,0.5-1.8c0.5-0.7,1.1-1.1,2-1.3s1.6,0,2.3,0.5c0.1,0.1,0.2,0.2,0.4,0.4c0.3,0.3,0.5,0.6,0.7,1l0.2,0.7
		c0.2,0.8,0.6,1.6,1,2.4c0.2,0.3,0.6,0.6,1,0.6c0.4,0.1,0.8,0,1.2-0.2l0.2-0.1l4.4-4.4c0.9-0.9,1.3-2,1.3-3.3s-0.4-2.4-1.3-3.3
		l-2.7-2.7l0.6-0.2c1.6-0.6,2.7-1.7,3.5-3.3c0.7-1.5,0.8-3.1,0.2-4.7s-1.7-2.7-3.2-3.4c-1.6-0.8-3.1-0.8-4.8-0.2
		c-0.5,0.2-1,0.5-1.4,0.8c-1.2,0.8-2,1.9-2.3,3.3l-0.1,0.2L46,14.3c-0.9-0.9-2-1.4-3.3-1.3c-1.3,0-2.4,0.4-3.3,1.3L36.7,17l-0.2-0.5
		c-0.3-0.8-0.8-1.6-1.4-2.2c-1.2-1.2-2.6-1.8-4.4-1.8c-1.7-0.1-3.1,0.6-4.4,1.8l-0.7,0.8c-0.9,1.4-1.3,3-1,4.7c0.3,1.7,1.2,3,2.6,4
		c0.5,0.4,1.1,0.6,1.7,0.8h0.2l-2.8,2.8C25.5,28.4,25,29.5,25,30.7 M29.8,21.7c-0.6-0.2-1.2-0.6-1.6-1.1c-0.3-0.5-0.5-1.1-0.5-1.7
		c0-0.7,0.2-1.2,0.5-1.8c0.5-0.7,1.1-1.1,2-1.3s1.6,0,2.3,0.5c0.1,0.1,0.2,0.2,0.4,0.4c0.3,0.3,0.6,0.7,0.8,1.1l0.2,0.6
		c0.2,0.8,0.6,1.6,1,2.4c0.2,0.3,0.6,0.6,1,0.6c0.4,0.1,0.8,0,1.2-0.2l0.2-0.1l4.4-4.4c0.3-0.3,0.7-0.5,1.1-0.4
		c0.4,0.1,0.8,0.2,1.1,0.5l4.4,4.4c0.3,0.3,0.6,0.4,1.1,0.4s0.8-0.1,1.1-0.4l0.2-0.3c0.6-0.9,1-1.9,1.3-2.9c0.2-0.7,0.6-1.2,1.2-1.6
		c0.6-0.3,1.1-0.5,1.8-0.5c0.6,0.1,1.2,0.2,1.7,0.6c0.8,0.5,1.3,1.3,1.3,2.3c0,0.7-0.1,1.3-0.5,1.9c-0.3,0.6-0.9,1-1.5,1.3l-0.6,0
		c-0.9,0.3-1.7,0.6-2.4,1.1c-0.3,0.2-0.6,0.6-0.6,1c-0.1,0.4,0,0.8,0.2,1.2l0.2,0.3l4.4,4.4c0.3,0.3,0.5,0.7,0.5,1.1
		c-0.1,0.4-0.2,0.8-0.5,1l-2.7,2.7l-0.2-0.5c-0.3-0.8-0.8-1.6-1.4-2.2c-1.2-1.2-2.6-1.8-4.4-1.8c-1.7-0.1-3.1,0.6-4.4,1.8
		c-0.3,0.3-0.5,0.5-0.7,0.8c-0.9,1.4-1.3,3-1,4.7s1.2,3,2.6,4c0.5,0.4,1.1,0.6,1.7,0.8H47l-2.8,2.8c-0.3,0.3-0.7,0.5-1.1,0.5
		c-0.5,0-0.8-0.2-1.1-0.5L28.9,32c-0.3-0.3-0.5-0.7-0.5-1.1c0-0.5,0.2-0.9,0.5-1.2l4.4-4.4c0.3-0.3,0.4-0.6,0.4-1.1s-0.2-0.8-0.5-1
		L32.9,23C31.8,22.4,30.8,22,29.8,21.7z"/>
	<path class="st2" d="M109.7,16.2c0.1,0.1,0.2,0.1,0.4,0c0.1,0,0.2-0.1,0.3-0.2c0.8-1.6,2.1-3,3.9-4.3c1.6-1.1,3.3-1.9,5.3-2.4
		c1.9-0.5,3.6-0.6,5.3-0.4c0.4,0,0.6,0.3,0.7,0.6l0.5,2c0.1,0.3,0.2,0.4,0.5,0.4l0.6,0.2c0.4,0,0.8,0.2,1.2,0.5
		c0.3,0.3,0.6,0.7,0.7,1.2l5,18.8c0.1,0.4,0.1,0.8-0.1,1.1s-0.4,0.6-0.7,0.7l-12.9,3.4c-0.4,0.1-0.7,0.4-0.8,0.9
		c-0.1,0.6-0.5,1.2-0.9,1.6c-0.5,0.5-1,0.8-1.7,1s-1.3,0.2-2,0s-1.2-0.5-1.6-0.9c-0.3-0.4-0.7-0.5-1.2-0.4l-12.9,3.4
		c-0.3,0.1-0.6,0.1-1-0.2c-0.3-0.2-0.5-0.5-0.6-0.9l-5-18.6c-0.1-0.5-0.1-1.1,0.1-1.6s0.5-0.9,0.9-1.2l0.2-0.4
		c0.2-0.1,0.3-0.3,0.2-0.6L93.5,18c-0.1-0.3,0-0.6,0.3-0.9c1.2-1,2.8-1.8,4.7-2.3s3.8-0.7,5.8-0.5C106.4,14.6,108.3,15.2,109.7,16.2
		 M110,18.3c0-0.1-0.1-0.2-0.2-0.3c-1.2-0.9-2.8-1.6-4.8-1.8c-2-0.3-4-0.1-6,0.4c-1.3,0.3-2.5,0.8-3.6,1.6c-0.2,0.1-0.2,0.2-0.1,0.6
		l5.1,19.1c0,0.2,0.1,0.3,0.2,0.4c0.1,0.1,0.3,0,0.5,0c1.3-0.8,2.6-1.4,4.1-1.7c3.3-0.9,6.3-0.6,9.2,0.7c0.2,0.1,0.3,0.1,0.5-0.1
		c0.1-0.2,0.2-0.3,0.1-0.5L110,18.3 M124.3,10.9c-0.1-0.3-0.2-0.5-0.5-0.4c-1.1-0.1-2.4,0-3.9,0.4c-2,0.5-3.8,1.4-5.4,2.7
		c-1.6,1.2-2.7,2.6-3.2,4c0,0.2,0,0.3,0,0.4l4.9,18.3c0.1,0.2,0.2,0.4,0.4,0.4c0.2,0.1,0.4,0,0.5-0.2c1.8-2.6,4.3-4.3,7.6-5.2
		c1.5-0.4,2.9-0.5,4.4-0.5c0.1,0,0.3,0,0.4-0.2c0.1-0.1,0.1-0.3,0-0.5L124.3,10.9L124.3,10.9z"/>
	<path class="st2" d="M86.1,76.8L86.1,76.8c2.2-2.8,5-4.5,8.5-4.9c3.5-0.5,6.6,0.4,9.3,2.6l0,0c2.8,2.1,4.4,4.9,4.8,8.4
		c0.5,3.5-0.3,6.6-2.5,9.3c-2.1,2.8-4.9,4.4-8.4,4.9c-3.5,0.4-6.6-0.4-9.5-2.5l0,0c0,0-0.1,0-0.1-0.1l-2.1,2.2l0.4,0.4
		c0.2,0.2,0.3,0.4,0.3,0.7c0,0.3-0.1,0.5-0.3,0.7l-7,7.4c-0.2,0.2-0.4,0.3-0.7,0.3c-0.3,0-0.5-0.1-0.7-0.3l-2.5-2.4
		c-0.2-0.2-0.3-0.4-0.3-0.7s0.1-0.5,0.3-0.7l7-7.4c0.2-0.2,0.4-0.3,0.7-0.3s0.5,0.1,0.7,0.3l0.4,0.4l2.1-2.2c-1.6-1.8-2.6-4.1-3-6.7
		l0,0C83.2,82.6,84.1,79.5,86.1,76.8 M88.3,78.4c-1.6,2.2-2.3,4.6-1.9,7.4c0.4,2.7,1.6,4.9,3.8,6.6l0,0c2.2,1.7,4.7,2.4,7.5,2
		c2.7-0.4,4.9-1.6,6.6-3.8c1.7-2.2,2.3-4.6,1.9-7.4l0,0c-0.4-2.7-1.6-4.9-3.8-6.6l0,0c-2.2-1.7-4.6-2.4-7.4-2
		C92.2,74.9,90,76.2,88.3,78.4 M90,84.9c-0.2-1.8,0.2-3.5,1.3-4.9c1.1-1.5,2.6-2.3,4.4-2.6c0.6-0.1,1.2,0.1,1.7,0.5s0.8,0.8,0.8,1.5
		c0.1,0.6-0.1,1.2-0.4,1.7c-0.4,0.5-0.9,0.8-1.5,0.9s-1.1,0.4-1.5,0.9s-0.5,1-0.5,1.6c0.1,0.6-0.1,1.2-0.4,1.7
		C93.5,86.7,93,87,92.4,87c-0.6,0.1-1.2-0.1-1.6-0.4C90.4,86,90.1,85.5,90,84.9z"/>
	<g transform="matrix( -0.922119140625, 0, 0, 0.922119140625, -925.75,195.95) ">
		<g transform="matrix( 1, 0, 0, 1, 0,0) ">
			<g>
				<g>
					<path class="st1" d="M-1028.5-129.2L-1028.5-129.2c-1.8-2-3.6-2.8-5.7-2.6c-0.4,0-0.7-0.2-0.8-0.4c-0.1-0.9,0.2-2.2,1.1-4.1
						c0.2-0.3,0.2-0.7,0.1-1c-0.1-0.3-0.3-0.6-0.7-0.7c-0.3-0.2-0.7-0.2-1-0.2c-2.8,0.5-5.4,2.3-7.7,5.4c-2.1,2.6-2.9,5.9-2.5,9.8
						c0.1,0.6,0.2,1.2,0.3,1.8c0.1,0.1,0.1,0.2,0.1,0.2c0.7,1.7,1.3,2.7,1.6,3c1.6,2.2,4,3.6,7.2,4.1c0.7,0,1.5,0,2.1-0.1l12.3,16.5
						l0,0c0.8,1.1,2,1.6,3.4,1.9c0.9,0.1,1.8,0,2.6-0.2c0.4-0.2,0.8-0.4,1.2-0.7c1.2-0.8,1.8-2,2-3.4c0.2-1.4-0.1-2.7-0.9-3.8
						l-9.5-12.3c-0.1-0.2-0.2-0.2-0.3-0.3c0-0.1-0.1-0.2-0.2-0.3l-2.7-3.6c0.1-0.4,0.2-0.8,0.2-1.3
						C-1026-124.5-1026.7-127.2-1028.5-129.2 M-1029.5-120.3c-0.4,1-1.2,1.9-2.1,2.6c-0.8,0.6-1.6,1-2.6,1.2c-0.7,0.1-1.3,0.1-2,0
						h-0.1c-2.2-0.3-4-1.3-5.2-3h-0.1c-0.2-0.2-0.4-0.8-0.9-1.8c0.8,0.1,1.6-0.1,2.4-0.4h-0.1c0.9-0.3,1.9-1.2,3-2.6
						c0.9-1.2,1.6-1.9,2.1-2.2l0,0c0.7-0.4,1.4-0.6,2.3-0.7l-0.1,0.1c0.5,0,1.2,0,2.3,0.1c1.1,1.5,1.5,3.3,1.2,5.4
						C-1029.2-121.3-1029.4-120.8-1029.5-120.3 M-1026.5-115.2c-0.2,0.5-0.5,1-0.8,1.3c-0.5,0.5-1.1,0.9-1.7,1.2h-0.1
						c-0.2,0.2-0.4,0.3-0.7,0.5l-1.7-2.4c0.6-0.2,1.1-0.6,1.6-1c0.7-0.5,1.3-1.2,1.8-1.8L-1026.5-115.2 M-1025.5-112.2
						L-1025.5-112.2c0.2-0.3,0.4-0.6,0.7-0.9l8.5,11.4c0.1,0.2,0.2,0.3,0.2,0.5c0.2,0.3,0.2,0.7,0.2,1.2c-0.1,0.2-0.1,0.4-0.2,0.7
						c-0.2,0.3-0.3,0.6-0.7,0.8c-0.5,0.3-1.1,0.5-1.6,0.4c-0.7-0.1-1.2-0.4-1.5-0.9l-8.3-11.2c0.1-0.1,0.2-0.2,0.3-0.2l0,0
						C-1027.1-110.9-1026.4-111.4-1025.5-112.2z"/>
				</g>
			</g>
		</g>
	</g>
</g>
</svg>
