<?xml version="1.0" encoding="utf-8"?>
<!-- Generator: Adobe Illustrator 15.0.0, SVG Export Plug-In . SVG Version: 6.00 Build 0)  -->
<!DOCTYPE svg PUBLIC "-//W3C//DTD SVG 1.1//EN" "http://www.w3.org/Graphics/SVG/1.1/DTD/svg11.dtd">
<svg version="1.1" id="Layer_1" xmlns="http://www.w3.org/2000/svg" xmlns:xlink="http://www.w3.org/1999/xlink" x="0px" y="0px"
	 width="800px" height="450px" viewBox="0 0 800 450" enable-background="new 0 0 800 450" xml:space="preserve">
<rect fill="#88D9E2" width="800" height="450"/>
<path fill="#FFFFFF" d="M737.691,101.816v0.696c0,4.605,5.043,8.375,11.204,8.375h51.101v27.817h-152.79
	c-6.155,0-11.198-3.765-11.198-8.37v-11.078c0-4.605,5.043-8.37,11.198-8.37h23.595c6.161,0,11.197-3.77,11.197-8.375v-0.696
	c0-4.605-5.036-8.375-11.197-8.375H567.688c-5.848,0-10.634-3.169-10.634-7.045c0-3.87-4.786-7.04-10.639-7.04h-38.186
	c-3.085,0-5.879-0.941-7.908-2.458c-2.031-1.518-3.29-3.611-3.29-5.917c0-4.605,5.036-8.37,11.198-8.37h291.767v30.829h-51.101
	C742.734,93.442,737.691,97.211,737.691,101.816z"/>
<g>
	
		<line opacity="0.68" fill="none" stroke="#A4E3FF" stroke-width="6.8127" stroke-miterlimit="10" x1="692.074" y1="195.86" x2="714.268" y2="195.86"/>
	
		<line opacity="0.68" fill="none" stroke="#A4E3FF" stroke-width="6.8127" stroke-miterlimit="10" x1="692.074" y1="154.053" x2="714.268" y2="154.053"/>
	<rect x="624.139" y="123.384" fill="#00A8B7" width="90.132" height="205.031"/>
	<rect x="603.865" y="123.383" fill="#006881" width="39.771" height="205.032"/>
	
		<line fill="none" stroke="#A4E3FF" stroke-width="4.6792" stroke-miterlimit="10" x1="699.687" y1="231.148" x2="714.268" y2="231.148"/>
	
		<line fill="none" stroke="#A4E3FF" stroke-width="4.6792" stroke-miterlimit="10" x1="678.354" y1="163.921" x2="689.433" y2="163.921"/>
	
		<line fill="none" stroke="#A4E3FF" stroke-width="4.6792" stroke-miterlimit="10" x1="649.879" y1="231.148" x2="660.768" y2="231.148"/>
	
		<line opacity="0.53" fill="none" stroke="#A4E3FF" stroke-width="4.6792" stroke-miterlimit="10" x1="617.224" y1="163.921" x2="635.001" y2="163.921"/>
	
		<line opacity="0.31" fill="none" stroke="#A4E3FF" stroke-width="4.6792" stroke-miterlimit="10" x1="603.865" y1="163.921" x2="613.855" y2="163.921"/>
	
		<line fill="none" stroke="#A4E3FF" stroke-width="4.6792" stroke-miterlimit="10" x1="699.683" y1="172.687" x2="714.268" y2="172.687"/>
	
		<line fill="none" stroke="#A4E3FF" stroke-width="4.6792" stroke-miterlimit="10" x1="682.268" y1="307.53" x2="699.683" y2="307.53"/>
	
		<line fill="none" stroke="#A4E3FF" stroke-width="4.6792" stroke-miterlimit="10" x1="649.875" y1="239.914" x2="671.21" y2="239.914"/>
	
		<line fill="none" stroke="#A4E3FF" stroke-width="4.6792" stroke-miterlimit="10" x1="692.536" y1="248.191" x2="714.268" y2="248.191"/>
	
		<line fill="none" stroke="#A4E3FF" stroke-width="4.6792" stroke-miterlimit="10" x1="643.498" y1="180.965" x2="657.789" y2="180.965"/>
	
		<line fill="none" stroke="#A4E3FF" stroke-width="4.6792" stroke-miterlimit="10" x1="603.865" y1="180.965" x2="615.162" y2="180.965"/>
	
		<line fill="none" stroke="#A4E3FF" stroke-width="4.6792" stroke-miterlimit="10" x1="696.603" y1="256.957" x2="706.608" y2="256.957"/>
	
		<line fill="none" stroke="#A4E3FF" stroke-width="4.6792" stroke-miterlimit="10" x1="650.118" y1="189.73" x2="664.299" y2="189.73"/>
	
		<line fill="none" stroke="#A4E3FF" stroke-width="4.6792" stroke-miterlimit="10" x1="613.857" y1="256.957" x2="628.842" y2="256.957"/>
	
		<line fill="none" stroke="#A4E3FF" stroke-width="4.6792" stroke-miterlimit="10" x1="678.354" y1="198.008" x2="706.607" y2="198.008"/>
	
		<line opacity="0.39" fill="none" stroke="#A4E3FF" stroke-width="4.6792" stroke-miterlimit="10" x1="634.708" y1="198.008" x2="657.026" y2="198.008"/>
	
		<line fill="none" stroke="#A4E3FF" stroke-width="4.6792" stroke-miterlimit="10" x1="626.887" y1="282.335" x2="634.708" y2="282.335"/>
	
		<line fill="none" stroke="#A4E3FF" stroke-width="4.6792" stroke-miterlimit="10" x1="621.022" y1="265.235" x2="626.887" y2="265.235"/>
	
		<line fill="none" stroke="#A4E3FF" stroke-width="4.6792" stroke-miterlimit="10" x1="692.534" y1="206.774" x2="714.268" y2="206.774"/>
	
		<line fill="none" stroke="#A4E3FF" stroke-width="4.6792" stroke-miterlimit="10" x1="674.449" y1="256.957" x2="681.485" y2="256.957"/>
	
		<line fill="none" stroke="#A4E3FF" stroke-width="4.6792" stroke-miterlimit="10" x1="681.616" y1="139.158" x2="685.497" y2="139.158"/>
	
		<line fill="none" stroke="#A4E3FF" stroke-width="4.6792" stroke-miterlimit="10" x1="645.978" y1="256.957" x2="670.567" y2="256.957"/>
	
		<line fill="none" stroke="#A4E3FF" stroke-width="4.6792" stroke-miterlimit="10" x1="632.721" y1="265.235" x2="642.958" y2="265.235"/>
	
		<line fill="none" stroke="#A4E3FF" stroke-width="4.6792" stroke-miterlimit="10" x1="617.118" y1="274.001" x2="633.4" y2="274.001"/>
	
		<line fill="none" stroke="#A4E3FF" stroke-width="4.6792" stroke-miterlimit="10" x1="611.252" y1="206.774" x2="617.118" y2="206.774"/>
	
		<line opacity="0.53" fill="none" stroke="#A4E3FF" stroke-width="4.6792" stroke-miterlimit="10" x1="609.065" y1="139.158" x2="616.45" y2="139.158"/>
	
		<line fill="none" stroke="#A4E3FF" stroke-width="4.6792" stroke-miterlimit="10" x1="703.118" y1="147.436" x2="714.268" y2="147.436"/>
	
		<line fill="none" stroke="#A4E3FF" stroke-width="4.6792" stroke-miterlimit="10" x1="678.351" y1="215.052" x2="703.118" y2="215.052"/>
	
		<line fill="none" stroke="#A4E3FF" stroke-width="4.6792" stroke-miterlimit="10" x1="674.445" y1="147.436" x2="678.351" y2="147.436"/>
	
		<line opacity="0.39" fill="none" stroke="#A4E3FF" stroke-width="4.6792" stroke-miterlimit="10" x1="628.84" y1="215.052" x2="643.641" y2="215.052"/>
	
		<line opacity="0.53" fill="none" stroke="#A4E3FF" stroke-width="4.6792" stroke-miterlimit="10" x1="603.865" y1="147.436" x2="609.065" y2="147.436"/>
	
		<line fill="none" stroke="#A4E3FF" stroke-width="4.6792" stroke-miterlimit="10" x1="699.686" y1="156.202" x2="714.268" y2="156.202"/>
	
		<line fill="none" stroke="#A4E3FF" stroke-width="4.6792" stroke-miterlimit="10" x1="685.494" y1="291.045" x2="699.686" y2="291.045"/>
	
		<line fill="none" stroke="#A4E3FF" stroke-width="4.6792" stroke-miterlimit="10" x1="671.207" y1="223.817" x2="685.494" y2="223.817"/>
	
		<line opacity="0.39" fill="none" stroke="#A4E3FF" stroke-width="4.6792" stroke-miterlimit="10" x1="622.087" y1="223.817" x2="643.638" y2="223.817"/>
	
		<line opacity="0.53" fill="none" stroke="#A4E3FF" stroke-width="4.6792" stroke-miterlimit="10" x1="620.373" y1="156.202" x2="631.286" y2="156.202"/>
	
		<line fill="none" stroke="#A4E3FF" stroke-width="4.6792" stroke-miterlimit="10" x1="612.553" y1="223.817" x2="620.373" y2="223.817"/>
	
		<line fill="none" stroke="#A4E3FF" stroke-width="4.6792" stroke-miterlimit="10" x1="609.065" y1="308.143" x2="617.752" y2="308.143"/>
	
		<line fill="none" stroke="#CFF3FF" stroke-width="4.6792" stroke-miterlimit="10" x1="686.257" y1="163.921" x2="697.335" y2="163.921"/>
	
		<line fill="none" stroke="#CFF3FF" stroke-width="4.6792" stroke-miterlimit="10" x1="657.781" y1="231.148" x2="668.668" y2="231.148"/>
	
		<line fill="none" stroke="#CFF3FF" stroke-width="4.6792" stroke-miterlimit="10" x1="643.788" y1="163.921" x2="661.566" y2="163.921"/>
	
		<line fill="none" stroke="#CFF3FF" stroke-width="4.6792" stroke-miterlimit="10" x1="690.169" y1="307.53" x2="707.585" y2="307.53"/>
	
		<line opacity="0.53" fill="none" stroke="#A4E3FF" stroke-width="4.6792" stroke-miterlimit="10" x1="625.67" y1="172.687" x2="643.636" y2="172.687"/>
	
		<line fill="none" stroke="#CFF3FF" stroke-width="4.6792" stroke-miterlimit="10" x1="671.965" y1="180.965" x2="686.255" y2="180.965"/>
	
		<line opacity="0.39" fill="none" stroke="#CFF3FF" stroke-width="4.6792" stroke-miterlimit="10" x1="632.042" y1="180.965" x2="643.913" y2="180.965"/>
	
		<line fill="none" stroke="#CFF3FF" stroke-width="4.6792" stroke-miterlimit="10" x1="685.165" y1="189.73" x2="714.268" y2="189.73"/>
	
		<line opacity="0.39" fill="none" stroke="#CFF3FF" stroke-width="4.6792" stroke-miterlimit="10" x1="621.761" y1="256.957" x2="636.745" y2="256.957"/>
	
		<line fill="none" stroke="#CFF3FF" stroke-width="4.6792" stroke-miterlimit="10" x1="643.498" y1="198.008" x2="664.929" y2="198.008"/>
	
		<line fill="none" stroke="#CFF3FF" stroke-width="4.6792" stroke-miterlimit="10" x1="634.788" y1="282.335" x2="642.61" y2="282.335"/>
	
		<line opacity="0.39" fill="none" stroke="#CFF3FF" stroke-width="4.6792" stroke-miterlimit="10" x1="628.926" y1="265.235" x2="634.788" y2="265.235"/>
	
		<line fill="none" stroke="#CFF3FF" stroke-width="4.6792" stroke-miterlimit="10" x1="682.353" y1="256.957" x2="689.388" y2="256.957"/>
	
		<line fill="none" stroke="#CFF3FF" stroke-width="4.6792" stroke-miterlimit="10" x1="689.52" y1="139.158" x2="693.4" y2="139.158"/>
	
		<line fill="none" stroke="#CFF3FF" stroke-width="4.6792" stroke-miterlimit="10" x1="651.54" y1="274.001" x2="664.929" y2="274.001"/>
	
		<line fill="none" stroke="#CFF3FF" stroke-width="4.6792" stroke-miterlimit="10" x1="640.623" y1="265.235" x2="650.861" y2="265.235"/>
	
		<line fill="none" stroke="#CFF3FF" stroke-width="4.6792" stroke-miterlimit="10" x1="625.02" y1="274.001" x2="641.302" y2="274.001"/>
	
		<line fill="none" stroke="#CFF3FF" stroke-width="4.6792" stroke-miterlimit="10" x1="619.154" y1="206.774" x2="625.02" y2="206.774"/>
	
		<line fill="none" stroke="#CFF3FF" stroke-width="4.6792" stroke-miterlimit="10" x1="686.253" y1="215.052" x2="711.021" y2="215.052"/>
	
		<line fill="none" stroke="#CFF3FF" stroke-width="4.6792" stroke-miterlimit="10" x1="660.851" y1="147.436" x2="682.348" y2="147.436"/>
	
		<line fill="none" stroke="#CFF3FF" stroke-width="4.6792" stroke-miterlimit="10" x1="651.543" y1="282.279" x2="660.851" y2="282.279"/>
	
		<line opacity="0.39" fill="none" stroke="#CFF3FF" stroke-width="4.6792" stroke-miterlimit="10" x1="618.454" y1="147.436" x2="636.743" y2="147.436"/>
	
		<line fill="none" stroke="#CFF3FF" stroke-width="4.6792" stroke-miterlimit="10" x1="693.396" y1="291.045" x2="707.589" y2="291.045"/>
	
		<line fill="none" stroke="#CFF3FF" stroke-width="4.6792" stroke-miterlimit="10" x1="679.109" y1="223.817" x2="693.396" y2="223.817"/>
	
		<line fill="none" stroke="#CFF3FF" stroke-width="4.6792" stroke-miterlimit="10" x1="649.282" y1="156.202" x2="679.109" y2="156.202"/>
	
		<line fill="none" stroke="#CFF3FF" stroke-width="4.6792" stroke-miterlimit="10" x1="641.957" y1="223.817" x2="651.541" y2="223.817"/>
	
		<line opacity="0.39" fill="none" stroke="#CFF3FF" stroke-width="4.6792" stroke-miterlimit="10" x1="634.056" y1="156.202" x2="641.957" y2="156.202"/>
	
		<line fill="none" stroke="#CFF3FF" stroke-width="4.6792" stroke-miterlimit="10" x1="616.968" y1="308.143" x2="625.654" y2="308.143"/>
	<rect x="696.077" y="328.375" fill="#98BA2D" width="0" height="0.079"/>
</g>
<path fill="#FFFFFF" d="M231.042,102.721v1.082c0,4.732-5.184,8.607-11.522,8.607H107.049c-6.332,0-11.515,3.874-11.515,8.612v3.671
	c0,4.732-5.183,8.607-11.522,8.607H1.18c-0.251,0-0.501-0.005-0.751-0.021v-38.4c1.517-0.494-1.656-0.77,0.139-0.77H219.52
	C225.858,94.109,231.042,97.983,231.042,102.721z"/>
<g>
	<g>
		<g>
			<rect x="445.853" y="170.782" fill="#36B2D8" width="124.636" height="236.478"/>
			
				<line opacity="0.68" fill="none" stroke="#A4E3FF" stroke-width="6.2383" stroke-miterlimit="10" x1="474.239" y1="192.712" x2="496.799" y2="192.712"/>
			
				<line opacity="0.68" fill="none" stroke="#A4E3FF" stroke-width="9.1311" stroke-miterlimit="10" x1="435.317" y1="313.393" x2="463.7" y2="313.393"/>
			
				<line opacity="0.68" fill="none" stroke="#A4E3FF" stroke-width="6.2383" stroke-miterlimit="10" x1="496.99" y1="295.086" x2="554.384" y2="295.086"/>
			
				<line opacity="0.68" fill="none" stroke="#A4E3FF" stroke-width="6.2383" stroke-miterlimit="10" x1="445.856" y1="204.46" x2="496.99" y2="204.46"/>
			
				<line opacity="0.68" fill="none" stroke="#A4E3FF" stroke-width="6.2383" stroke-miterlimit="10" x1="477.953" y1="215.556" x2="515.096" y2="215.556"/>
			
				<line opacity="0.68" fill="none" stroke="#A4E3FF" stroke-width="9.1311" stroke-miterlimit="10" x1="435.317" y1="336.236" x2="467.413" y2="336.236"/>
			
				<line opacity="0.68" fill="none" stroke="#A4E3FF" stroke-width="9.1311" stroke-miterlimit="10" x1="435.317" y1="257.359" x2="463.704" y2="257.359"/>
			
				<line opacity="0.68" fill="none" stroke="#A4E3FF" stroke-width="6.2383" stroke-miterlimit="10" x1="445.856" y1="238.399" x2="506.239" y2="238.399"/>
			
				<line opacity="0.68" fill="none" stroke="#A4E3FF" stroke-width="6.2383" stroke-miterlimit="10" x1="466.842" y1="340.773" x2="495.145" y2="340.773"/>
			
				<line opacity="0.68" fill="none" stroke="#A4E3FF" stroke-width="6.2383" stroke-miterlimit="10" x1="460.629" y1="250.147" x2="481.614" y2="250.147"/>
			
				<line opacity="0.68" fill="none" stroke="#A4E3FF" stroke-width="6.2383" stroke-miterlimit="10" x1="519.632" y1="351.869" x2="561.681" y2="351.869"/>
			
				<line opacity="0.68" fill="none" stroke="#A4E3FF" stroke-width="6.2383" stroke-miterlimit="10" x1="523.832" y1="261.243" x2="557.364" y2="261.243"/>
			
				<line opacity="0.68" fill="none" stroke="#A4E3FF" stroke-width="6.2383" stroke-miterlimit="10" x1="534.449" y1="363.617" x2="561.675" y2="363.617"/>
			
				<line opacity="0.68" fill="none" stroke="#A4E3FF" stroke-width="6.2383" stroke-miterlimit="10" x1="504.395" y1="272.991" x2="481.614" y2="272.991"/>
			
				<line opacity="0.68" fill="none" stroke="#A4E3FF" stroke-width="6.2383" stroke-miterlimit="10" x1="470.538" y1="363.617" x2="504.395" y2="363.617"/>
			
				<line opacity="0.89" fill="none" stroke="#CFF3FF" stroke-width="6.2383" stroke-miterlimit="10" x1="508.33" y1="192.712" x2="526.847" y2="192.712"/>
			
				<line opacity="0.68" fill="none" stroke="#CFF3FF" stroke-width="6.2383" stroke-miterlimit="10" x1="468.309" y1="283.338" x2="508.33" y2="283.338"/>
			
				<line opacity="0.68" fill="none" stroke="#CFF3FF" stroke-width="6.2383" stroke-miterlimit="10" x1="528.728" y1="306.181" x2="562.46" y2="306.181"/>
			
				<line opacity="0.68" fill="none" stroke="#CFF3FF" stroke-width="6.2383" stroke-miterlimit="10" x1="523.701" y1="215.556" x2="549.207" y2="215.556"/>
			
				<line opacity="0.68" fill="none" stroke="#CFF3FF" stroke-width="6.2383" stroke-miterlimit="10" x1="468.309" y1="306.181" x2="512.043" y2="306.181"/>
			
				<line opacity="0.89" fill="none" stroke="#CFF3FF" stroke-width="6.2383" stroke-miterlimit="10" x1="487.642" y1="227.304" x2="525.688" y2="227.304"/>
			
				<line opacity="0.68" fill="none" stroke="#CFF3FF" stroke-width="6.2383" stroke-miterlimit="10" x1="554.384" y1="238.399" x2="528.692" y2="238.399"/>
			
				<line opacity="0.89" fill="none" stroke="#CFF3FF" stroke-width="6.2383" stroke-miterlimit="10" x1="500.933" y1="340.773" x2="517.598" y2="340.773"/>
			
				<line opacity="0.68" fill="none" stroke="#CFF3FF" stroke-width="6.2383" stroke-miterlimit="10" x1="424.23" y1="261.243" x2="506.826" y2="261.243"/>
			
				<line opacity="0.89" fill="none" stroke="#CFF3FF" stroke-width="6.2383" stroke-miterlimit="10" x1="526.847" y1="272.991" x2="565.721" y2="272.991"/>
			
				<line opacity="0.68" fill="none" stroke="#CFF3FF" stroke-width="6.2383" stroke-miterlimit="10" x1="504.629" y1="363.617" x2="526.847" y2="363.617"/>
			<polygon fill="#22557F" points="492.743,173.389 492.743,407.26 451.272,407.26 451.272,407.26 451.167,407.26 451.167,407.26 
				379.754,407.26 379.754,173.389 			"/>
			
				<line opacity="0.68" fill="none" stroke="#95E4E8" stroke-width="5.4887" stroke-miterlimit="10" x1="493.004" y1="180.938" x2="570.491" y2="180.938"/>
			
				<line opacity="0.34" fill="none" stroke="#95E4E8" stroke-width="5.4887" stroke-miterlimit="10" x1="445.856" y1="180.938" x2="480.993" y2="180.938"/>
			
				<line opacity="0.34" fill="none" stroke="#95E4E8" stroke-width="6.0288" stroke-miterlimit="10" x1="484.262" y1="192.712" x2="492.604" y2="192.712"/>
			
				<line opacity="0.34" fill="none" stroke="#95E4E8" stroke-width="6.0288" stroke-miterlimit="10" x1="480.092" y1="227.304" x2="488.434" y2="227.304"/>
			
				<line opacity="0.34" fill="none" stroke="#95E4E8" stroke-width="6.5312" stroke-miterlimit="10" x1="445.856" y1="198.536" x2="465.527" y2="198.536"/>
			
				<line fill="none" stroke="#FFFFFF" stroke-width="6.947" stroke-miterlimit="10" x1="493.004" y1="170.781" x2="570.491" y2="170.781"/>
			
				<line fill="none" stroke="#A4EEFF" stroke-width="6.947" stroke-miterlimit="10" x1="445.856" y1="170.781" x2="493.004" y2="170.781"/>
			<rect x="344.268" y="52.875" fill="#2E9BC6" width="120.355" height="348.007"/>
			<rect x="317.091" y="52.876" fill="#22557F" width="53.305" height="348.006"/>
			
				<line fill="none" stroke="#A4E3FF" stroke-width="6.2715" stroke-miterlimit="10" x1="445.519" y1="360.689" x2="462.371" y2="360.689"/>
			
				<line fill="none" stroke="#A4E3FF" stroke-width="6.2715" stroke-miterlimit="10" x1="431.774" y1="74.807" x2="437.734" y2="74.807"/>
			
				<line fill="none" stroke="#A4E3FF" stroke-width="6.2715" stroke-miterlimit="10" x1="416.927" y1="270.585" x2="431.774" y2="270.585"/>
			
				<line fill="none" stroke="#A4E3FF" stroke-width="6.2715" stroke-miterlimit="10" x1="382.814" y1="74.807" x2="394.425" y2="74.807"/>
			
				<line fill="none" stroke="#A4E3FF" stroke-width="6.2715" stroke-miterlimit="10" x1="378.761" y1="360.689" x2="393.354" y2="360.689"/>
			
				<line opacity="0.53" fill="none" stroke="#A4E3FF" stroke-width="6.2715" stroke-miterlimit="10" x1="334.994" y1="270.585" x2="358.82" y2="270.585"/>
			
				<line opacity="0.53" fill="none" stroke="#A4E3FF" stroke-width="6.2715" stroke-miterlimit="10" x1="317.181" y1="74.807" x2="341.636" y2="74.807"/>
			
				<line fill="none" stroke="#A4E3FF" stroke-width="6.2715" stroke-miterlimit="10" x1="317.09" y1="270.585" x2="330.479" y2="270.585"/>
			
				<line fill="none" stroke="#A4E3FF" stroke-width="6.2715" stroke-miterlimit="10" x1="445.513" y1="282.333" x2="464.623" y2="282.333"/>
			
				<line fill="none" stroke="#A4E3FF" stroke-width="6.2715" stroke-miterlimit="10" x1="407.351" y1="86.555" x2="422.172" y2="86.555"/>
			
				<line fill="none" stroke="#A4E3FF" stroke-width="6.2715" stroke-miterlimit="10" x1="378.757" y1="372.438" x2="407.351" y2="372.438"/>
			
				<line opacity="0.53" fill="none" stroke="#A4E3FF" stroke-width="6.2715" stroke-miterlimit="10" x1="370.394" y1="86.555" x2="355.764" y2="86.555"/>
			
				<line opacity="0.53" fill="none" stroke="#A4E3FF" stroke-width="6.2715" stroke-miterlimit="10" x1="317.09" y1="86.555" x2="327.682" y2="86.555"/>
			
				<line fill="none" stroke="#A4E3FF" stroke-width="6.2715" stroke-miterlimit="10" x1="435.936" y1="383.533" x2="462.371" y2="383.533"/>
			
				<line fill="none" stroke="#A4E3FF" stroke-width="6.2715" stroke-miterlimit="10" x1="416.925" y1="97.65" x2="425.708" y2="97.65"/>
			
				<line fill="none" stroke="#A4E3FF" stroke-width="6.2715" stroke-miterlimit="10" x1="370.209" y1="293.429" x2="389.363" y2="293.429"/>
			
				<line fill="none" stroke="#A4E3FF" stroke-width="6.2715" stroke-miterlimit="10" x1="370.767" y1="97.65" x2="397.771" y2="97.65"/>
			
				<line opacity="0.53" fill="none" stroke="#A4E3FF" stroke-width="6.2715" stroke-miterlimit="10" x1="332.231" y1="97.65" x2="344.263" y2="97.65"/>
			
				<line fill="none" stroke="#A4E3FF" stroke-width="6.2715" stroke-miterlimit="10" x1="454.795" y1="109.398" x2="462.371" y2="109.398"/>
			
				<line fill="none" stroke="#A4E3FF" stroke-width="6.2715" stroke-miterlimit="10" x1="441.385" y1="395.281" x2="454.795" y2="395.281"/>
			
				<line fill="none" stroke="#A4E3FF" stroke-width="6.2715" stroke-miterlimit="10" x1="400.077" y1="109.398" x2="411.391" y2="109.398"/>
			
				<line fill="none" stroke="#A4E3FF" stroke-width="6.2715" stroke-miterlimit="10" x1="379.083" y1="305.177" x2="398.089" y2="305.177"/>
			
				<line fill="none" stroke="#A4E3FF" stroke-width="6.2715" stroke-miterlimit="10" x1="370.396" y1="109.398" x2="388.343" y2="109.398"/>
			
				<line fill="none" stroke="#A4E3FF" stroke-width="6.2715" stroke-miterlimit="10" x1="330.481" y1="395.281" x2="350.566" y2="395.281"/>
			
				<line opacity="0.53" fill="none" stroke="#A4E3FF" stroke-width="6.2715" stroke-miterlimit="10" x1="317.09" y1="109.398" x2="330.481" y2="109.398"/>
			
				<line fill="none" stroke="#A4E3FF" stroke-width="6.2715" stroke-miterlimit="10" x1="454.796" y1="225.647" x2="462.371" y2="225.647"/>
			
				<line fill="none" stroke="#A4E3FF" stroke-width="6.2715" stroke-miterlimit="10" x1="416.926" y1="316.272" x2="454.796" y2="316.272"/>
			
				<line fill="none" stroke="#A4E3FF" stroke-width="6.2715" stroke-miterlimit="10" x1="397.768" y1="225.647" x2="416.926" y2="225.647"/>
			
				<line fill="none" stroke="#A4E3FF" stroke-width="6.2715" stroke-miterlimit="10" x1="388.34" y1="225.647" x2="397.768" y2="225.647"/>
			
				<line opacity="0.39" fill="none" stroke="#A4E3FF" stroke-width="6.2715" stroke-miterlimit="10" x1="358.428" y1="316.272" x2="388.34" y2="316.272"/>
			
				<line opacity="0.14" fill="none" stroke="#CFF3FF" stroke-width="6.2715" stroke-miterlimit="10" x1="340.085" y1="406.377" x2="347.944" y2="406.377"/>
			
				<line opacity="0.53" fill="none" stroke="#A4E3FF" stroke-width="6.2715" stroke-miterlimit="10" x1="317.09" y1="120.494" x2="327.682" y2="120.494"/>
			
				<line fill="none" stroke="#A4E3FF" stroke-width="6.2715" stroke-miterlimit="10" x1="435.933" y1="328.021" x2="462.371" y2="328.021"/>
			
				<line fill="none" stroke="#A4E3FF" stroke-width="6.2715" stroke-miterlimit="10" x1="411.693" y1="395.281" x2="421.124" y2="395.281"/>
			
				<line fill="none" stroke="#A4E3FF" stroke-width="6.2715" stroke-miterlimit="10" x1="421.299" y1="237.395" x2="426.501" y2="237.395"/>
			
				<line fill="none" stroke="#A4E3FF" stroke-width="6.2715" stroke-miterlimit="10" x1="373.533" y1="395.281" x2="406.491" y2="395.281"/>
			
				<line opacity="0.14" fill="none" stroke="#CFF3FF" stroke-width="6.2715" stroke-miterlimit="10" x1="334.852" y1="418.125" x2="356.674" y2="418.125"/>
			
				<line fill="none" stroke="#A4E3FF" stroke-width="6.2715" stroke-miterlimit="10" x1="326.99" y1="328.021" x2="334.852" y2="328.021"/>
			
				<line opacity="0.53" fill="none" stroke="#A4E3FF" stroke-width="6.2715" stroke-miterlimit="10" x1="324.059" y1="132.242" x2="333.958" y2="132.242"/>
			
				<line fill="none" stroke="#A4E3FF" stroke-width="6.2715" stroke-miterlimit="10" x1="450.118" y1="248.49" x2="462.371" y2="248.49"/>
			
				<line fill="none" stroke="#A4E3FF" stroke-width="6.2715" stroke-miterlimit="10" x1="416.922" y1="339.116" x2="450.118" y2="339.116"/>
			
				<line fill="none" stroke="#A4E3FF" stroke-width="6.2715" stroke-miterlimit="10" x1="411.688" y1="248.49" x2="416.922" y2="248.49"/>
			
				<line opacity="0.39" fill="none" stroke="#A4E3FF" stroke-width="6.2715" stroke-miterlimit="10" x1="350.564" y1="339.116" x2="370.4" y2="339.116"/>
			
				<line opacity="0.53" fill="none" stroke="#A4E3FF" stroke-width="6.2715" stroke-miterlimit="10" x1="317.09" y1="248.49" x2="324.059" y2="248.49"/>
			
				<line fill="none" stroke="#A4E3FF" stroke-width="6.2715" stroke-miterlimit="10" x1="445.518" y1="260.238" x2="462.371" y2="260.238"/>
			
				<line fill="none" stroke="#A4E3FF" stroke-width="6.2715" stroke-miterlimit="10" x1="407.348" y1="350.864" x2="426.496" y2="350.864"/>
			
				<line opacity="0.39" fill="none" stroke="#A4E3FF" stroke-width="6.2715" stroke-miterlimit="10" x1="341.513" y1="350.864" x2="370.396" y2="350.864"/>
			
				<line opacity="0.14" fill="none" stroke="#CFF3FF" stroke-width="6.2715" stroke-miterlimit="10" x1="328.733" y1="350.864" x2="339.215" y2="350.864"/>
			
				<line fill="none" stroke="#CFF3FF" stroke-width="6.2715" stroke-miterlimit="10" x1="447.618" y1="74.807" x2="456.109" y2="74.807"/>
			
				<line fill="none" stroke="#CFF3FF" stroke-width="6.2715" stroke-miterlimit="10" x1="427.519" y1="270.585" x2="442.366" y2="270.585"/>
			
				<line fill="none" stroke="#CFF3FF" stroke-width="6.2715" stroke-miterlimit="10" x1="403.946" y1="74.807" x2="427.519" y2="74.807"/>
			
				<line fill="none" stroke="#CFF3FF" stroke-width="6.2715" stroke-miterlimit="10" x1="389.354" y1="360.689" x2="403.946" y2="360.689"/>
			
				<line fill="none" stroke="#CFF3FF" stroke-width="6.2715" stroke-miterlimit="10" x1="370.598" y1="270.585" x2="394.425" y2="270.585"/>
			
				<line opacity="0.14" fill="none" stroke="#CFF3FF" stroke-width="6.2715" stroke-miterlimit="10" x1="348.899" y1="74.807" x2="365.527" y2="74.807"/>
			
				<line opacity="0.14" fill="none" stroke="#CFF3FF" stroke-width="6.2715" stroke-miterlimit="10" x1="327.682" y1="270.585" x2="341.072" y2="270.585"/>
			
				<line fill="none" stroke="#CFF3FF" stroke-width="6.2715" stroke-miterlimit="10" x1="428.946" y1="86.555" x2="443.766" y2="86.555"/>
			
				<line fill="none" stroke="#CFF3FF" stroke-width="6.2715" stroke-miterlimit="10" x1="389.349" y1="372.438" x2="417.942" y2="372.438"/>
			
				<line fill="none" stroke="#CFF3FF" stroke-width="6.2715" stroke-miterlimit="10" x1="370.598" y1="86.555" x2="389.349" y2="86.555"/>
			
				<line opacity="0.53" fill="none" stroke="#A4E3FF" stroke-width="6.2715" stroke-miterlimit="10" x1="346.314" y1="282.333" x2="370.394" y2="282.333"/>
			
				<line opacity="0.14" fill="none" stroke="#CFF3FF" stroke-width="6.2715" stroke-miterlimit="10" x1="334.852" y1="86.555" x2="346.314" y2="86.555"/>
			
				<line fill="none" stroke="#CFF3FF" stroke-width="6.2715" stroke-miterlimit="10" x1="431.926" y1="97.65" x2="450.937" y2="97.65"/>
			
				<line fill="none" stroke="#CFF3FF" stroke-width="6.2715" stroke-miterlimit="10" x1="408.363" y1="293.429" x2="427.517" y2="293.429"/>
			
				<line fill="none" stroke="#CFF3FF" stroke-width="6.2715" stroke-miterlimit="10" x1="370.767" y1="97.65" x2="408.363" y2="97.65"/>
			
				<line opacity="0.39" fill="none" stroke="#CFF3FF" stroke-width="6.2715" stroke-miterlimit="10" x1="354.854" y1="293.429" x2="370.767" y2="293.429"/>
			
				<line opacity="0.14" fill="none" stroke="#CFF3FF" stroke-width="6.2715" stroke-miterlimit="10" x1="351.158" y1="97.65" x2="363.19" y2="97.65"/>
			
				<line opacity="0.14" fill="none" stroke="#CFF3FF" stroke-width="6.2715" stroke-miterlimit="10" x1="327.682" y1="293.429" x2="342.823" y2="293.429"/>
			
				<line fill="none" stroke="#CFF3FF" stroke-width="6.2715" stroke-miterlimit="10" x1="417.941" y1="109.398" x2="451.976" y2="109.398"/>
			
				<line fill="none" stroke="#A4E3FF" stroke-width="6.2715" stroke-miterlimit="10" x1="400.994" y1="122.195" x2="395.033" y2="122.195"/>
			
				<line fill="none" stroke="#A4E3FF" stroke-width="6.2715" stroke-miterlimit="10" x1="449.953" y1="122.195" x2="438.343" y2="122.195"/>
			
				<line fill="none" stroke="#A4E3FF" stroke-width="6.2715" stroke-miterlimit="10" x1="425.417" y1="133.944" x2="410.598" y2="133.944"/>
			
				<line fill="none" stroke="#A4E3FF" stroke-width="6.2715" stroke-miterlimit="10" x1="415.843" y1="145.039" x2="407.059" y2="145.039"/>
			
				<line fill="none" stroke="#A4E3FF" stroke-width="6.2715" stroke-miterlimit="10" x1="464.069" y1="145.039" x2="434.996" y2="145.039"/>
			
				<line fill="none" stroke="#A4E3FF" stroke-width="6.2715" stroke-miterlimit="10" x1="432.691" y1="156.788" x2="421.377" y2="156.788"/>
			
				<line fill="none" stroke="#A4E3FF" stroke-width="6.2715" stroke-miterlimit="10" x1="464.441" y1="156.788" x2="444.425" y2="156.788"/>
			
				<line fill="none" stroke="#CFF3FF" stroke-width="6.2715" stroke-miterlimit="10" x1="385.15" y1="122.195" x2="376.658" y2="122.195"/>
			
				<line fill="none" stroke="#CFF3FF" stroke-width="6.2715" stroke-miterlimit="10" x1="428.821" y1="122.195" x2="405.249" y2="122.195"/>
			
				<line fill="none" stroke="#CFF3FF" stroke-width="6.2715" stroke-miterlimit="10" x1="403.823" y1="133.944" x2="389.002" y2="133.944"/>
			
				<line fill="none" stroke="#CFF3FF" stroke-width="6.2715" stroke-miterlimit="10" x1="464.238" y1="133.944" x2="443.418" y2="133.944"/>
			
				<line fill="none" stroke="#CFF3FF" stroke-width="6.2715" stroke-miterlimit="10" x1="400.842" y1="145.039" x2="381.831" y2="145.039"/>
			
				<line fill="none" stroke="#CFF3FF" stroke-width="6.2715" stroke-miterlimit="10" x1="464.069" y1="145.039" x2="424.404" y2="145.039"/>
			
				<line fill="none" stroke="#CFF3FF" stroke-width="6.2715" stroke-miterlimit="10" x1="414.826" y1="156.788" x2="380.792" y2="156.788"/>
			
				<line fill="none" stroke="#CFF3FF" stroke-width="6.2715" stroke-miterlimit="10" x1="426.056" y1="305.177" x2="464.168" y2="305.177"/>
			
				<line opacity="0.14" fill="none" stroke="#CFF3FF" stroke-width="6.2715" stroke-miterlimit="10" x1="341.073" y1="395.281" x2="361.158" y2="395.281"/>
			
				<line opacity="0.39" fill="none" stroke="#CFF3FF" stroke-width="6.2715" stroke-miterlimit="10" x1="356.935" y1="109.398" x2="370.326" y2="109.398"/>
			
				<line fill="none" stroke="#CFF3FF" stroke-width="6.2715" stroke-miterlimit="10" x1="424.677" y1="225.647" x2="434.104" y2="225.647"/>
			
				<line fill="none" stroke="#CFF3FF" stroke-width="6.2715" stroke-miterlimit="10" x1="370.209" y1="316.272" x2="398.933" y2="316.272"/>
			
				<line opacity="0.39" fill="none" stroke="#CFF3FF" stroke-width="6.2715" stroke-miterlimit="10" x1="350.677" y1="406.377" x2="358.537" y2="406.377"/>
			
				<line opacity="0.14" fill="none" stroke="#CFF3FF" stroke-width="6.2715" stroke-miterlimit="10" x1="335.013" y1="120.494" x2="358.008" y2="120.494"/>
			
				<line opacity="0.53" fill="none" stroke="#A4E3FF" stroke-width="6.2715" stroke-miterlimit="10" x1="317.09" y1="156.788" x2="331.72" y2="156.788"/>
			
				<line opacity="0.53" fill="none" stroke="#A4E3FF" stroke-width="6.2715" stroke-miterlimit="10" x1="370.394" y1="156.788" x2="359.802" y2="156.788"/>
			
				<line opacity="0.53" fill="none" stroke="#A4E3FF" stroke-width="6.2715" stroke-miterlimit="10" x1="355.253" y1="167.883" x2="343.221" y2="167.883"/>
			
				<line opacity="0.53" fill="none" stroke="#A4E3FF" stroke-width="6.2715" stroke-miterlimit="10" x1="370.394" y1="179.631" x2="357.002" y2="179.631"/>
			
				<line opacity="0.53" fill="none" stroke="#A4E3FF" stroke-width="6.2715" stroke-miterlimit="10" x1="370.394" y1="190.727" x2="359.802" y2="190.727"/>
			
				<line opacity="0.53" fill="none" stroke="#A4E3FF" stroke-width="6.2715" stroke-miterlimit="10" x1="363.425" y1="202.475" x2="353.525" y2="202.475"/>
			
				<line opacity="0.14" fill="none" stroke="#CFF3FF" stroke-width="6.2715" stroke-miterlimit="10" x1="338.584" y1="145.039" x2="321.957" y2="145.039"/>
			
				<line opacity="0.14" fill="none" stroke="#CFF3FF" stroke-width="6.2715" stroke-miterlimit="10" x1="352.632" y1="156.788" x2="341.17" y2="156.788"/>
			
				<line opacity="0.14" fill="none" stroke="#CFF3FF" stroke-width="6.2715" stroke-miterlimit="10" x1="336.326" y1="167.883" x2="324.294" y2="167.883"/>
			
				<line opacity="0.39" fill="none" stroke="#CFF3FF" stroke-width="6.2715" stroke-miterlimit="10" x1="330.55" y1="179.631" x2="317.158" y2="179.631"/>
			
				<line opacity="0.14" fill="none" stroke="#CFF3FF" stroke-width="6.2715" stroke-miterlimit="10" x1="352.471" y1="190.727" x2="329.475" y2="190.727"/>
			
				<line fill="none" stroke="#CFF3FF" stroke-width="6.2715" stroke-miterlimit="10" x1="431.891" y1="237.395" x2="437.093" y2="237.395"/>
			
				<line fill="none" stroke="#CFF3FF" stroke-width="6.2715" stroke-miterlimit="10" x1="380.988" y1="418.125" x2="398.932" y2="418.125"/>
			
				<line opacity="0.39" fill="none" stroke="#A4E3FF" stroke-width="6.2715" stroke-miterlimit="10" x1="345.443" y1="418.125" x2="367.267" y2="418.125"/>
			
				<line opacity="0.14" fill="none" stroke="#CFF3FF" stroke-width="6.2715" stroke-miterlimit="10" x1="337.582" y1="328.021" x2="345.443" y2="328.021"/>
			
				<line fill="none" stroke="#CFF3FF" stroke-width="6.2715" stroke-miterlimit="10" x1="427.512" y1="339.116" x2="460.71" y2="339.116"/>
			
				<line fill="none" stroke="#CFF3FF" stroke-width="6.2715" stroke-miterlimit="10" x1="393.467" y1="248.49" x2="422.279" y2="248.49"/>
			
				<line opacity="0.39" fill="none" stroke="#CFF3FF" stroke-width="6.2715" stroke-miterlimit="10" x1="336.643" y1="248.49" x2="361.155" y2="248.49"/>
			
				<line fill="none" stroke="#CFF3FF" stroke-width="6.2715" stroke-miterlimit="10" x1="417.939" y1="350.864" x2="437.088" y2="350.864"/>
			
				<line fill="none" stroke="#CFF3FF" stroke-width="6.2715" stroke-miterlimit="10" x1="380.989" y1="260.238" x2="417.939" y2="260.238"/>
			
				<line fill="none" stroke="#A4E3FF" stroke-width="6.2715" stroke-miterlimit="10" x1="416.927" y1="213.382" x2="431.774" y2="213.382"/>
			
				<line fill="none" stroke="#A4E3FF" stroke-width="6.2715" stroke-miterlimit="10" x1="454.796" y1="168.444" x2="462.371" y2="168.444"/>
			
				<line fill="none" stroke="#A4E3FF" stroke-width="6.2715" stroke-miterlimit="10" x1="397.768" y1="168.444" x2="416.926" y2="168.444"/>
			
				<line fill="none" stroke="#A4E3FF" stroke-width="6.2715" stroke-miterlimit="10" x1="388.34" y1="168.444" x2="397.768" y2="168.444"/>
			
				<line fill="none" stroke="#A4E3FF" stroke-width="6.2715" stroke-miterlimit="10" x1="421.299" y1="180.192" x2="426.501" y2="180.192"/>
			
				<line fill="none" stroke="#A4E3FF" stroke-width="6.2715" stroke-miterlimit="10" x1="450.118" y1="191.288" x2="462.371" y2="191.288"/>
			
				<line fill="none" stroke="#A4E3FF" stroke-width="6.2715" stroke-miterlimit="10" x1="411.688" y1="191.288" x2="416.922" y2="191.288"/>
			
				<line fill="none" stroke="#A4E3FF" stroke-width="6.2715" stroke-miterlimit="10" x1="445.518" y1="203.036" x2="462.371" y2="203.036"/>
			
				<line fill="none" stroke="#CFF3FF" stroke-width="6.2715" stroke-miterlimit="10" x1="427.519" y1="213.382" x2="442.366" y2="213.382"/>
			
				<line fill="none" stroke="#CFF3FF" stroke-width="6.2715" stroke-miterlimit="10" x1="370.598" y1="213.382" x2="394.425" y2="213.382"/>
			
				<line fill="none" stroke="#CFF3FF" stroke-width="6.2715" stroke-miterlimit="10" x1="424.677" y1="168.444" x2="434.104" y2="168.444"/>
			
				<line fill="none" stroke="#CFF3FF" stroke-width="6.2715" stroke-miterlimit="10" x1="431.891" y1="180.192" x2="437.093" y2="180.192"/>
			
				<line fill="none" stroke="#CFF3FF" stroke-width="6.2715" stroke-miterlimit="10" x1="393.467" y1="191.288" x2="422.279" y2="191.288"/>
			
				<line fill="none" stroke="#CFF3FF" stroke-width="6.2715" stroke-miterlimit="10" x1="380.989" y1="203.036" x2="417.939" y2="203.036"/>
			
				<line opacity="0.39" fill="none" stroke="#CFF3FF" stroke-width="6.2715" stroke-miterlimit="10" x1="357.553" y1="260.238" x2="368.145" y2="260.238"/>
			
				<line fill="none" stroke="#46C4D1" stroke-width="7.9378" stroke-miterlimit="10" x1="370.39" y1="52.876" x2="464.618" y2="52.876"/>
			
				<line fill="none" stroke="#3A84AD" stroke-width="7.9378" stroke-miterlimit="10" x1="317.09" y1="52.876" x2="370.39" y2="52.876"/>
			
				<line fill="none" stroke="#95E4E8" stroke-width="6.2715" stroke-miterlimit="10" x1="370.209" y1="63.032" x2="464.618" y2="63.032"/>
			<rect x="440.681" y="400.83" fill="#98BA2D" width="0" height="0.104"/>
		</g>
	</g>
	<g>
		<rect x="73.823" y="178.092" fill="#36B6DD" width="157.33" height="7.501"/>
		<rect x="73.823" y="163.09" fill="#36B6DD" width="157.33" height="7.501"/>
		<rect x="74.193" y="193.093" fill="#36B6DD" width="157.329" height="7.501"/>
		<rect x="74.193" y="208.095" fill="#36B6DD" width="157.329" height="7.5"/>
		<rect x="73.823" y="238.178" fill="#36B6DD" width="157.33" height="7.501"/>
		<rect x="73.823" y="223.176" fill="#36B6DD" width="157.33" height="7.501"/>
		<rect x="73.453" y="253.18" fill="#36B6DD" width="157.33" height="7.5"/>
		<rect x="73.453" y="268.181" fill="#36B6DD" width="157.33" height="7.501"/>
		<rect x="73.823" y="232.754" fill="#2E6193" width="157.33" height="7.501"/>
		<rect x="73.823" y="217.752" fill="#2E6193" width="157.33" height="7.501"/>
		<rect x="73.453" y="247.755" fill="#2E6193" width="157.33" height="7.501"/>
		<rect x="73.453" y="262.757" fill="#2E6193" width="157.33" height="7.501"/>
		<rect x="73.823" y="172.668" fill="#2E6193" width="157.33" height="7.501"/>
		<rect x="73.823" y="157.667" fill="#2E6193" width="157.33" height="7.5"/>
		<rect x="74.193" y="187.67" fill="#2E6193" width="157.329" height="7.5"/>
		<rect x="74.193" y="202.671" fill="#2E6193" width="157.329" height="7.5"/>
		<rect x="72.437" y="178.21" fill="#2E6193" width="45.721" height="7.5"/>
		<rect x="72.437" y="163.208" fill="#2E6193" width="45.721" height="7.501"/>
		<rect x="72.572" y="193.212" fill="#2E6193" width="45.721" height="7.5"/>
		<rect x="72.572" y="208.213" fill="#2E6193" width="45.721" height="7.501"/>
		<rect x="72.437" y="238.296" fill="#2E6193" width="45.721" height="7.501"/>
		<rect x="72.437" y="223.294" fill="#2E6193" width="45.721" height="7.5"/>
		<rect x="72.302" y="253.298" fill="#2E6193" width="45.721" height="7.501"/>
		<rect x="72.302" y="268.299" fill="#2E6193" width="45.721" height="7.502"/>
		<rect x="68.42" y="230.756" fill="#FFFFFF" width="167.397" height="7.501"/>
		<rect x="68.42" y="245.758" fill="#FFFFFF" width="167.397" height="7.501"/>
		<rect x="68.42" y="215.754" fill="#FFFFFF" width="167.397" height="7.501"/>
		<rect x="68.079" y="260.759" fill="#FFFFFF" width="167.396" height="7.501"/>
		<rect x="68.079" y="275.761" fill="#FFFFFF" width="167.396" height="7.501"/>
		<rect x="68.42" y="170.67" fill="#FFFFFF" width="167.397" height="7.5"/>
		<rect x="68.42" y="185.671" fill="#FFFFFF" width="167.397" height="7.501"/>
		<rect x="68.42" y="155.589" fill="#FFFFFF" width="167.397" height="7.501"/>
		<rect x="68.761" y="200.673" fill="#FFFFFF" width="167.397" height="7.5"/>
		<rect x="68.332" y="230.756" fill="#CCB5A3" width="52.738" height="7.501"/>
		<rect x="68.332" y="245.758" fill="#CCB5A3" width="52.738" height="7.501"/>
		<rect x="68.332" y="215.754" fill="#CCB5A3" width="52.738" height="7.501"/>
		<rect x="68.19" y="260.759" fill="#CCB5A3" width="52.738" height="7.501"/>
		<rect x="68.19" y="275.761" fill="#CCB5A3" width="52.738" height="7.501"/>
		<rect x="68.332" y="170.67" fill="#CCB5A3" width="52.738" height="7.5"/>
		<rect x="68.332" y="185.671" fill="#CCB5A3" width="52.738" height="7.501"/>
		<rect x="68.332" y="155.589" fill="#CCB5A3" width="52.738" height="7.501"/>
		<rect x="68.475" y="200.673" fill="#CCB5A3" width="52.738" height="7.5"/>
		<polygon opacity="0.2" fill="#FFFFFF" points="160.418,165.167 135.108,165.167 129.383,170.661 154.693,170.661 		"/>
		<polygon opacity="0.2" fill="#FFFFFF" points="184.869,165.167 171.389,165.167 165.664,170.661 179.143,170.661 		"/>
		<polygon opacity="0.2" fill="#FFFFFF" points="191.572,180.066 150.488,180.066 144.763,185.56 185.847,185.56 		"/>
		<polygon opacity="0.2" fill="#FFFFFF" points="223.91,180.066 210.432,180.066 204.705,185.56 218.184,185.56 		"/>
		<polygon opacity="0.2" fill="#FFFFFF" points="151.939,195.047 126.63,195.047 120.904,200.541 146.213,200.541 		"/>
		<polygon opacity="0.2" fill="#FFFFFF" points="167.319,209.946 126.236,209.946 120.51,215.439 161.593,215.439 		"/>
		<polygon opacity="0.2" fill="#FFFFFF" points="215.431,209.946 201.952,209.946 196.227,215.439 209.705,215.439 		"/>
		<polygon opacity="0.2" fill="#FFFFFF" points="165.407,224.989 140.098,224.989 134.372,230.482 159.682,230.482 		"/>
		<polygon opacity="0.2" fill="#FFFFFF" points="196.561,239.887 155.478,239.887 149.752,245.381 190.836,245.381 		"/>
		<polygon opacity="0.2" fill="#FFFFFF" points="228.899,239.887 215.42,239.887 209.694,245.381 223.173,245.381 		"/>
		<polygon opacity="0.2" fill="#FFFFFF" points="156.928,254.869 131.619,254.869 125.893,260.362 151.203,260.362 		"/>
		<polygon opacity="0.2" fill="#FFFFFF" points="208.983,254.869 195.505,254.869 189.779,260.362 203.258,260.362 		"/>
		<polygon opacity="0.2" fill="#FFFFFF" points="172.309,269.768 131.225,269.768 125.499,275.261 166.583,275.261 		"/>
		<polygon opacity="0.2" fill="#FFFFFF" points="220.42,269.768 206.941,269.768 201.216,275.261 214.694,275.261 		"/>
	</g>
	<g>
		<rect x="73.823" y="298.109" fill="#36B6DD" width="157.33" height="7.501"/>
		<rect x="73.823" y="283.107" fill="#36B6DD" width="157.33" height="7.501"/>
		<rect x="74.193" y="313.11" fill="#36B6DD" width="157.329" height="7.501"/>
		<rect x="74.193" y="328.112" fill="#36B6DD" width="157.329" height="7.501"/>
		<rect x="73.823" y="358.194" fill="#36B6DD" width="157.33" height="7.501"/>
		<rect x="73.823" y="343.192" fill="#36B6DD" width="157.33" height="7.501"/>
		<rect x="73.453" y="373.196" fill="#36B6DD" width="157.33" height="7.501"/>
		<rect x="73.453" y="388.197" fill="#36B6DD" width="157.33" height="7.502"/>
		<rect x="73.823" y="352.771" fill="#2E6193" width="157.33" height="7.501"/>
		<rect x="73.823" y="337.77" fill="#2E6193" width="157.33" height="7.501"/>
		<rect x="73.453" y="367.773" fill="#2E6193" width="157.33" height="7.5"/>
		<rect x="73.453" y="382.774" fill="#2E6193" width="157.33" height="7.501"/>
		<rect x="73.823" y="292.686" fill="#2E6193" width="157.33" height="7.5"/>
		<rect x="73.823" y="277.684" fill="#2E6193" width="157.33" height="7.5"/>
		<rect x="74.193" y="307.687" fill="#2E6193" width="157.329" height="7.501"/>
		<rect x="74.193" y="322.688" fill="#2E6193" width="157.329" height="7.501"/>
		<rect x="72.437" y="298.228" fill="#2E6193" width="45.721" height="7.501"/>
		<rect x="72.437" y="283.226" fill="#2E6193" width="45.721" height="7.501"/>
		<rect x="72.572" y="313.229" fill="#2E6193" width="45.721" height="7.501"/>
		<rect x="72.572" y="328.231" fill="#2E6193" width="45.721" height="7.501"/>
		<rect x="72.437" y="358.313" fill="#2E6193" width="45.721" height="7.501"/>
		<rect x="72.437" y="343.312" fill="#2E6193" width="45.721" height="7.501"/>
		<rect x="72.302" y="373.315" fill="#2E6193" width="45.721" height="7.501"/>
		<rect x="72.302" y="388.316" fill="#2E6193" width="45.721" height="7.501"/>
		<rect x="68.42" y="350.772" fill="#FFFFFF" width="167.397" height="7.501"/>
		<rect x="68.42" y="365.774" fill="#FFFFFF" width="167.397" height="7.501"/>
		<rect x="68.42" y="335.771" fill="#FFFFFF" width="167.397" height="7.5"/>
		<rect x="68.079" y="380.776" fill="#FFFFFF" width="167.396" height="7.501"/>
		<rect x="68.079" y="395.778" fill="#FFFFFF" width="167.396" height="7.501"/>
		<rect x="68.42" y="290.688" fill="#FFFFFF" width="167.397" height="7.501"/>
		<rect x="68.42" y="305.688" fill="#FFFFFF" width="167.397" height="7.501"/>
		<rect x="68.42" y="275.606" fill="#FFFFFF" width="167.397" height="7.501"/>
		<rect x="68.761" y="320.69" fill="#FFFFFF" width="167.397" height="7.501"/>
		<rect x="68.332" y="350.772" fill="#CCB5A3" width="52.738" height="7.501"/>
		<rect x="68.332" y="365.774" fill="#CCB5A3" width="52.738" height="7.501"/>
		<rect x="68.332" y="335.771" fill="#CCB5A3" width="52.738" height="7.5"/>
		<rect x="68.19" y="380.776" fill="#CCB5A3" width="52.738" height="7.501"/>
		<rect x="68.19" y="395.778" fill="#CCB5A3" width="52.738" height="7.501"/>
		<rect x="68.332" y="290.688" fill="#CCB5A3" width="52.738" height="7.501"/>
		<rect x="68.332" y="305.688" fill="#CCB5A3" width="52.738" height="7.501"/>
		<rect x="68.332" y="275.606" fill="#CCB5A3" width="52.738" height="7.501"/>
		<rect x="68.475" y="320.69" fill="#CCB5A3" width="52.738" height="7.501"/>
		<polygon opacity="0.2" fill="#FFFFFF" points="160.418,285.184 135.108,285.184 129.383,290.679 154.693,290.679 		"/>
		<polygon opacity="0.2" fill="#FFFFFF" points="184.869,285.184 171.389,285.184 165.664,290.679 179.143,290.679 		"/>
		<polygon opacity="0.2" fill="#FFFFFF" points="191.572,300.083 150.488,300.083 144.763,305.577 185.847,305.577 		"/>
		<polygon opacity="0.2" fill="#FFFFFF" points="223.91,300.083 210.432,300.083 204.705,305.577 218.184,305.577 		"/>
		<polygon opacity="0.2" fill="#FFFFFF" points="151.939,315.064 126.63,315.064 120.904,320.559 146.213,320.559 		"/>
		<polygon opacity="0.2" fill="#FFFFFF" points="167.319,329.963 126.236,329.963 120.51,335.457 161.593,335.457 		"/>
		<polygon opacity="0.2" fill="#FFFFFF" points="215.431,329.963 201.952,329.963 196.227,335.457 209.705,335.457 		"/>
		<polygon opacity="0.2" fill="#FFFFFF" points="165.407,345.006 140.098,345.006 134.372,350.5 159.682,350.5 		"/>
		<polygon opacity="0.2" fill="#FFFFFF" points="196.561,359.905 155.478,359.905 149.752,365.398 190.836,365.398 		"/>
		<polygon opacity="0.2" fill="#FFFFFF" points="228.899,359.905 215.42,359.905 209.694,365.398 223.173,365.398 		"/>
		<polygon opacity="0.2" fill="#FFFFFF" points="156.928,374.886 131.619,374.886 125.893,380.38 151.203,380.38 		"/>
		<polygon opacity="0.2" fill="#FFFFFF" points="208.983,374.886 195.505,374.886 189.779,380.38 203.258,380.38 		"/>
		<polygon opacity="0.2" fill="#FFFFFF" points="172.309,389.785 131.225,389.785 125.499,395.278 166.583,395.278 		"/>
		<polygon opacity="0.2" fill="#FFFFFF" points="220.42,389.785 206.941,389.785 201.216,395.278 214.694,395.278 		"/>
	</g>
	<g>
		<g opacity="0.68">
			<rect x="696.244" y="329.499" fill="#A4E3FF" width="37.666" height="3.049"/>
		</g>
		<g opacity="0.68">
			<rect x="700.297" y="334.376" fill="#A4E3FF" width="12.149" height="3.049"/>
		</g>
		<g opacity="0.68">
			<rect x="666.995" y="334.376" fill="#A4E3FF" width="21.213" height="3.049"/>
		</g>
		<g opacity="0.68">
			<rect x="672.016" y="246.364" fill="#A4E3FF" width="30.665" height="3.049"/>
		</g>
		<g opacity="0.68">
			<rect x="672.02" y="251.528" fill="#A4E3FF" width="19.855" height="3.049"/>
		</g>
		<g opacity="0.68">
			<rect x="713.793" y="251.528" fill="#A4E3FF" width="22.82" height="3.049"/>
		</g>
		<g opacity="0.68">
			<rect x="679.87" y="329.499" fill="#CFF3FF" width="31.05" height="3.049"/>
		</g>
		<polygon fill="#22557F" points="707.176,239.104 707.176,233.199 542.038,233.199 542.038,239.104 544.793,239.104 
			544.793,251.434 542.038,251.434 542.038,255.165 544.793,255.165 544.793,268.052 542.038,268.052 542.038,271.783 
			544.793,271.783 544.793,284.731 542.038,284.731 542.038,288.463 544.793,288.463 544.793,300.862 542.038,300.862 
			542.038,304.594 544.793,304.594 544.793,317.542 542.038,317.542 542.038,321.272 544.793,321.272 544.793,334.16 
			542.038,334.16 542.038,337.892 544.793,337.892 544.793,350.84 542.038,350.84 542.038,354.571 544.793,354.571 544.793,367.245 
			542.038,367.245 542.038,370.977 544.793,370.977 544.793,387.525 704.422,387.525 704.422,370.977 707.176,370.977 
			707.176,367.245 704.422,367.245 704.422,354.571 707.176,354.571 707.176,350.84 704.422,350.84 704.422,337.892 
			707.176,337.892 707.176,334.16 704.422,334.16 704.422,321.272 707.176,321.272 707.176,317.542 704.422,317.542 
			704.422,304.594 707.176,304.594 707.176,300.862 704.422,300.862 704.422,288.463 707.176,288.463 707.176,284.731 
			704.422,284.731 704.422,271.783 707.176,271.783 707.176,268.052 704.422,268.052 704.422,255.165 707.176,255.165 
			707.176,251.434 704.422,251.434 704.422,239.104 		"/>
		<g opacity="0.68">
			<rect x="683.924" y="334.376" fill="#CFF3FF" width="12.149" height="3.049"/>
		</g>
		<g opacity="0.68">
			<rect x="697.419" y="251.528" fill="#CFF3FF" width="16.202" height="3.049"/>
		</g>
		<g>
			<polygon fill="#CCB5A3" points="721.934,230.4 562.306,230.4 562.306,243.35 559.551,243.35 559.551,247.08 562.306,247.08 
				562.306,259.968 559.551,259.968 559.551,263.699 562.306,263.699 562.306,276.647 559.551,276.647 559.551,280.378 
				562.306,280.378 562.306,292.777 559.551,292.777 559.551,296.509 562.306,296.509 562.306,309.457 559.551,309.457 
				559.551,313.188 562.306,313.188 562.306,326.075 559.551,326.075 559.551,329.807 562.306,329.807 562.306,342.756 
				559.551,342.756 559.551,346.486 562.306,346.486 562.306,359.161 559.551,359.161 559.551,362.892 562.306,362.892 
				562.306,379.44 721.934,379.44 721.934,362.892 724.689,362.892 724.689,359.161 721.934,359.161 721.934,346.486 
				724.689,346.486 724.689,342.756 721.934,342.756 721.934,329.807 724.689,329.807 724.689,326.075 721.934,326.075 
				721.934,313.188 724.689,313.188 724.689,309.457 721.934,309.457 721.934,296.509 724.689,296.509 724.689,292.777 
				721.934,292.777 721.934,280.378 724.689,280.378 724.689,276.647 721.934,276.647 721.934,263.699 724.689,263.699 
				724.689,259.968 721.934,259.968 721.934,247.08 724.689,247.08 724.689,243.35 721.934,243.35 			"/>
			<rect x="559.551" y="225.115" fill="#CCB5A3" width="165.139" height="5.903"/>
		</g>
		<rect x="595.526" y="230.824" fill="#FFFFFF" width="143.097" height="149.039"/>
		<rect x="605.503" y="230.824" fill="#36B6DD" width="9.839" height="12.948"/>
		<rect x="624.387" y="230.824" fill="#38C7E8" width="9.841" height="12.948"/>
		<rect x="643.271" y="230.824" fill="#36B6DD" width="9.841" height="12.948"/>
		<rect x="662.155" y="230.824" fill="#36B6DD" width="9.84" height="12.948"/>
		<rect x="681.04" y="230.824" fill="#36B6DD" width="9.839" height="12.948"/>
		<rect x="699.924" y="230.824" fill="#57DFFF" width="9.84" height="12.948"/>
		<rect x="718.809" y="230.824" fill="#36B6DD" width="9.839" height="12.948"/>
		<rect x="718.809" y="247.504" fill="#36B6DD" width="9.839" height="12.948"/>
		<rect x="699.924" y="247.504" fill="#38C7E8" width="9.84" height="12.948"/>
		<rect x="681.04" y="247.504" fill="#36B6DD" width="9.839" height="12.948"/>
		<rect x="662.155" y="247.504" fill="#00CFFF" width="9.84" height="12.948"/>
		<rect x="643.271" y="247.504" fill="#36B6DD" width="9.841" height="12.948"/>
		<rect x="624.387" y="247.504" fill="#57DFFF" width="9.841" height="12.948"/>
		<rect x="605.503" y="247.504" fill="#36B6DD" width="9.839" height="12.948"/>
		<rect x="605.503" y="264.122" fill="#36B6DD" width="9.839" height="12.948"/>
		<rect x="624.387" y="264.122" fill="#36B6DD" width="9.841" height="12.948"/>
		<rect x="643.271" y="264.122" fill="#38C7E8" width="9.841" height="12.948"/>
		<rect x="662.155" y="264.122" fill="#36B6DD" width="9.84" height="12.948"/>
		<rect x="681.04" y="264.122" fill="#36B6DD" width="9.839" height="12.948"/>
		<rect x="699.924" y="264.122" fill="#36B6DD" width="9.84" height="12.948"/>
		<rect x="718.809" y="264.122" fill="#36B6DD" width="9.839" height="12.948"/>
		<rect x="718.809" y="280.802" fill="#36B6DD" width="9.839" height="12.948"/>
		<rect x="699.924" y="280.802" fill="#38C7E8" width="9.84" height="12.948"/>
		<rect x="681.04" y="280.802" fill="#38C7E8" width="9.839" height="12.948"/>
		<rect x="662.155" y="280.802" fill="#36B6DD" width="9.84" height="12.948"/>
		<rect x="643.271" y="280.802" fill="#36B6DD" width="9.841" height="12.948"/>
		<rect x="624.387" y="280.802" fill="#36B6DD" width="9.841" height="12.948"/>
		<rect x="605.503" y="280.802" fill="#57DFFF" width="9.839" height="12.948"/>
		<rect x="605.503" y="296.901" fill="#36B6DD" width="9.839" height="12.948"/>
		<rect x="624.387" y="296.901" fill="#38C7E8" width="9.841" height="12.948"/>
		<rect x="643.271" y="296.901" fill="#36B6DD" width="9.841" height="12.948"/>
		<rect x="662.155" y="296.901" fill="#36B6DD" width="9.84" height="12.948"/>
		<rect x="681.04" y="296.901" fill="#36B6DD" width="9.839" height="12.948"/>
		<rect x="699.924" y="296.901" fill="#57DFFF" width="9.84" height="12.948"/>
		<rect x="718.809" y="296.901" fill="#36B6DD" width="9.839" height="12.948"/>
		<rect x="718.809" y="313.581" fill="#36B6DD" width="9.839" height="12.948"/>
		<rect x="699.924" y="313.581" fill="#38C7E8" width="9.84" height="12.948"/>
		<rect x="681.04" y="313.581" fill="#36B6DD" width="9.839" height="12.948"/>
		<rect x="662.155" y="313.581" fill="#00CFFF" width="9.84" height="12.948"/>
		<rect x="643.271" y="313.581" fill="#36B6DD" width="9.841" height="12.948"/>
		<rect x="624.387" y="313.581" fill="#57DFFF" width="9.841" height="12.948"/>
		<rect x="605.503" y="313.581" fill="#36B6DD" width="9.839" height="12.948"/>
		<rect x="605.503" y="330.2" fill="#36B6DD" width="9.839" height="12.948"/>
		<rect x="624.387" y="330.2" fill="#36B6DD" width="9.841" height="12.948"/>
		<rect x="643.271" y="330.2" fill="#38C7E8" width="9.841" height="12.948"/>
		<rect x="662.155" y="330.2" fill="#36B6DD" width="9.84" height="12.948"/>
		<rect x="681.04" y="330.2" fill="#36B6DD" width="9.839" height="12.948"/>
		<rect x="699.924" y="330.2" fill="#36B6DD" width="9.84" height="12.948"/>
		<rect x="718.809" y="330.2" fill="#36B6DD" width="9.839" height="12.948"/>
		<rect x="592.771" y="243.772" fill="#FFFFFF" width="148.608" height="3.731"/>
		<rect x="592.771" y="277.07" fill="#FFFFFF" width="148.608" height="3.731"/>
		<rect x="592.771" y="225.115" fill="#FFFFFF" width="148.608" height="5.903"/>
		<rect x="592.771" y="260.391" fill="#FFFFFF" width="148.608" height="3.731"/>
		<rect x="592.771" y="309.881" fill="#FFFFFF" width="148.608" height="3.73"/>
		<rect x="592.771" y="293.201" fill="#FFFFFF" width="148.608" height="3.731"/>
		<rect x="592.771" y="326.499" fill="#FFFFFF" width="148.608" height="3.731"/>
		<rect x="595.526" y="230.824" opacity="0.5" fill="#2469CE" width="143.126" height="3.73"/>
		<rect x="595.526" y="247.626" opacity="0.5" fill="#2469CE" width="143.126" height="3.731"/>
		<rect x="595.526" y="264.122" opacity="0.5" fill="#2469CE" width="143.126" height="3.731"/>
		<rect x="595.526" y="280.925" opacity="0.5" fill="#2469CE" width="143.126" height="3.731"/>
		<rect x="595.526" y="296.933" opacity="0.5" fill="#2469CE" width="143.126" height="3.73"/>
		<rect x="595.526" y="313.734" opacity="0.5" fill="#2469CE" width="143.126" height="3.73"/>
		<rect x="595.526" y="330.23" opacity="0.5" fill="#2469CE" width="143.126" height="3.73"/>
		<path fill="none" stroke="#38300E" stroke-width="3.5189" stroke-miterlimit="10" d="M701.647,310.492"/>
	</g>
	<g>
		<g opacity="0.68">
			<rect x="472.589" y="359.502" fill="#A4E3FF" width="37.666" height="3.049"/>
		</g>
		<g opacity="0.68">
			<rect x="476.643" y="364.379" fill="#A4E3FF" width="12.148" height="3.049"/>
		</g>
		<g opacity="0.68">
			<rect x="443.34" y="364.379" fill="#A4E3FF" width="21.213" height="3.049"/>
		</g>
		<g opacity="0.68">
			<rect x="448.36" y="276.367" fill="#A4E3FF" width="30.664" height="3.048"/>
		</g>
		<g opacity="0.68">
			<rect x="448.364" y="281.53" fill="#A4E3FF" width="19.855" height="3.049"/>
		</g>
		<g opacity="0.68">
			<rect x="490.137" y="281.53" fill="#A4E3FF" width="22.82" height="3.049"/>
		</g>
		<g opacity="0.68">
			<rect x="456.215" y="359.502" fill="#CFF3FF" width="31.05" height="3.049"/>
		</g>
		<polygon fill="#22557F" points="483.521,269.105 483.521,263.203 357.572,263.203 357.572,269.105 360.327,269.105 
			360.327,281.437 357.572,281.437 357.572,285.167 360.327,285.167 360.327,298.056 357.572,298.056 357.572,301.787 
			360.327,301.787 360.327,314.735 357.572,314.735 357.572,318.466 360.327,318.466 360.327,330.864 357.572,330.864 
			357.572,334.596 360.327,334.596 360.327,347.544 357.572,347.544 357.572,351.275 360.327,351.275 360.327,364.163 
			357.572,364.163 357.572,367.895 360.327,367.895 360.327,380.843 357.572,380.843 357.572,384.574 360.327,384.574 
			360.327,397.248 357.572,397.248 357.572,400.979 360.327,400.979 360.327,417.527 480.766,417.527 480.766,400.979 
			483.521,400.979 483.521,397.248 480.766,397.248 480.766,384.574 483.521,384.574 483.521,380.843 480.766,380.843 
			480.766,367.895 483.521,367.895 483.521,364.163 480.766,364.163 480.766,351.275 483.521,351.275 483.521,347.544 
			480.766,347.544 480.766,334.596 483.521,334.596 483.521,330.864 480.766,330.864 480.766,318.466 483.521,318.466 
			483.521,314.735 480.766,314.735 480.766,301.787 483.521,301.787 483.521,298.056 480.766,298.056 480.766,285.167 
			483.521,285.167 483.521,281.437 480.766,281.437 480.766,269.105 		"/>
		<g opacity="0.68">
			<rect x="460.268" y="364.379" fill="#CFF3FF" width="12.149" height="3.049"/>
		</g>
		<g opacity="0.68">
			<rect x="473.764" y="281.53" fill="#CFF3FF" width="16.202" height="3.049"/>
		</g>
		<g>
			<polygon fill="#CCB5A3" points="498.277,260.403 377.839,260.403 377.839,273.352 375.084,273.352 375.084,277.083 
				377.839,277.083 377.839,289.971 375.084,289.971 375.084,293.702 377.839,293.702 377.839,306.65 375.084,306.65 
				375.084,310.382 377.839,310.382 377.839,322.78 375.084,322.78 375.084,326.512 377.839,326.512 377.839,339.46 375.084,339.46 
				375.084,343.19 377.839,343.19 377.839,356.079 375.084,356.079 375.084,359.811 377.839,359.811 377.839,372.759 
				375.084,372.759 375.084,376.489 377.839,376.489 377.839,389.164 375.084,389.164 375.084,392.896 377.839,392.896 
				377.839,409.443 498.277,409.443 498.277,392.896 501.033,392.896 501.033,389.164 498.277,389.164 498.277,376.489 
				501.033,376.489 501.033,372.759 498.277,372.759 498.277,359.811 501.033,359.811 501.033,356.079 498.277,356.079 
				498.277,343.19 501.033,343.19 501.033,339.46 498.277,339.46 498.277,326.512 501.033,326.512 501.033,322.78 498.277,322.78 
				498.277,310.382 501.033,310.382 501.033,306.65 498.277,306.65 498.277,293.702 501.033,293.702 501.033,289.971 
				498.277,289.971 498.277,277.083 501.033,277.083 501.033,273.352 498.277,273.352 			"/>
			<rect x="375.084" y="255.119" fill="#CCB5A3" width="125.949" height="5.902"/>
		</g>
		<rect x="411.061" y="260.827" fill="#FFFFFF" width="103.907" height="149.039"/>
		<rect x="419.614" y="260.827" fill="#36B6DD" width="9.841" height="12.948"/>
		<rect x="438.5" y="260.827" fill="#36B6DD" width="9.84" height="12.948"/>
		<rect x="457.384" y="260.827" fill="#36B6DD" width="9.84" height="12.948"/>
		<rect x="476.27" y="260.827" fill="#57DFFF" width="9.838" height="12.948"/>
		<rect x="495.152" y="260.827" fill="#36B6DD" width="9.839" height="12.948"/>
		<rect x="495.152" y="277.506" fill="#36B6DD" width="9.839" height="12.948"/>
		<rect x="476.27" y="277.506" fill="#38C7E8" width="9.838" height="12.948"/>
		<rect x="457.384" y="277.506" fill="#36B6DD" width="9.84" height="12.948"/>
		<rect x="438.5" y="277.506" fill="#00CFFF" width="9.84" height="12.948"/>
		<rect x="419.614" y="277.506" fill="#36B6DD" width="9.841" height="12.948"/>
		<rect x="419.614" y="294.125" fill="#38C7E8" width="9.841" height="12.949"/>
		<rect x="438.5" y="294.125" fill="#36B6DD" width="9.84" height="12.949"/>
		<rect x="457.384" y="294.125" fill="#36B6DD" width="9.84" height="12.949"/>
		<rect x="476.27" y="294.125" fill="#36B6DD" width="9.838" height="12.949"/>
		<rect x="495.152" y="294.125" fill="#36B6DD" width="9.839" height="12.949"/>
		<rect x="495.152" y="310.805" fill="#36B6DD" width="9.839" height="12.948"/>
		<rect x="476.27" y="310.805" fill="#38C7E8" width="9.838" height="12.948"/>
		<rect x="457.384" y="310.805" fill="#38C7E8" width="9.84" height="12.948"/>
		<rect x="438.5" y="310.805" fill="#36B6DD" width="9.84" height="12.948"/>
		<rect x="419.614" y="310.805" fill="#36B6DD" width="9.841" height="12.948"/>
		<rect x="419.614" y="326.904" fill="#36B6DD" width="9.841" height="12.948"/>
		<rect x="438.5" y="326.904" fill="#36B6DD" width="9.84" height="12.948"/>
		<rect x="457.384" y="326.904" fill="#36B6DD" width="9.84" height="12.948"/>
		<rect x="476.27" y="326.904" fill="#57DFFF" width="9.838" height="12.948"/>
		<rect x="495.152" y="326.904" fill="#36B6DD" width="9.839" height="12.948"/>
		<rect x="495.152" y="343.584" fill="#36B6DD" width="9.839" height="12.948"/>
		<rect x="476.27" y="343.584" fill="#38C7E8" width="9.838" height="12.948"/>
		<rect x="457.384" y="343.584" fill="#36B6DD" width="9.84" height="12.948"/>
		<rect x="438.5" y="343.584" fill="#00CFFF" width="9.84" height="12.948"/>
		<rect x="419.614" y="343.584" fill="#36B6DD" width="9.841" height="12.948"/>
		<rect x="419.614" y="360.203" fill="#38C7E8" width="9.841" height="12.948"/>
		<rect x="438.5" y="360.203" fill="#36B6DD" width="9.84" height="12.948"/>
		<rect x="457.384" y="360.203" fill="#36B6DD" width="9.84" height="12.948"/>
		<rect x="476.27" y="360.203" fill="#36B6DD" width="9.838" height="12.948"/>
		<rect x="495.152" y="360.203" fill="#36B6DD" width="9.839" height="12.948"/>
		<rect x="408.306" y="273.775" fill="#FFFFFF" width="109.418" height="3.73"/>
		<rect x="408.306" y="307.074" fill="#FFFFFF" width="109.418" height="3.73"/>
		<rect x="408.306" y="290.395" fill="#FFFFFF" width="109.418" height="3.73"/>
		<rect x="408.306" y="339.883" fill="#FFFFFF" width="109.418" height="3.731"/>
		<rect x="408.306" y="323.203" fill="#FFFFFF" width="109.418" height="3.731"/>
		<rect x="408.306" y="356.502" fill="#FFFFFF" width="109.418" height="3.731"/>
		<rect x="411.061" y="260.827" opacity="0.5" fill="#2469CE" width="103.937" height="3.73"/>
		<polyline opacity="0.5" fill="#2469CE" points="460.21,281.36 411.061,281.36 411.061,277.629 514.997,277.629 514.997,281.36 
			460.21,281.36 		"/>
		<rect x="411.061" y="294.125" opacity="0.5" fill="#2469CE" width="103.937" height="3.731"/>
		<rect x="411.061" y="310.928" opacity="0.5" fill="#2469CE" width="103.937" height="3.73"/>
		<rect x="411.061" y="326.935" opacity="0.5" fill="#2469CE" width="103.937" height="3.731"/>
		<rect x="411.061" y="343.737" opacity="0.5" fill="#2469CE" width="103.937" height="3.731"/>
		<rect x="411.061" y="360.233" opacity="0.5" fill="#2469CE" width="103.937" height="3.731"/>
		<path fill="none" stroke="#38300E" stroke-width="3.5189" stroke-miterlimit="10" d="M477.991,340.494"/>
		<rect x="408.306" y="255.119" fill="#FFFFFF" width="109.418" height="5.902"/>
	</g>
</g>
<g>
	<rect x="554.775" y="342.115" fill="#A4E3FF" width="28.468" height="3.526"/>
</g>
<g>
	<rect x="535.84" y="342.115" fill="#CFF3FF" width="20.816" height="3.526"/>
</g>
<rect x="408.546" y="342.036" fill="#FFFFFF" width="171.851" height="4.314"/>
<g>
	<linearGradient id="SVGID_1_" gradientUnits="userSpaceOnUse" x1="399.9995" y1="198.0996" x2="399.9995" y2="426.4295">
		<stop  offset="0" style="stop-color:#7FA637"/>
		<stop  offset="1" style="stop-color:#5F891B"/>
	</linearGradient>
	<rect y="337.122" fill="url(#SVGID_1_)" width="800" height="65.896"/>
</g>
<rect y="329.078" fill="#2E8C45" width="800" height="11.576"/>
<g>
	<path fill="#2E8C45" d="M93.1,325.198c0,1.613-0.277,3.177-0.801,4.668H24.39c-0.018-0.253-0.027-0.51-0.027-0.767
		c0-1.837,0.458-3.595,1.291-5.211c2.801-5.447,9.869-9.312,18.145-9.312c1.439,0,2.84,0.117,4.192,0.342
		c3.919-4.352,10.257-7.383,17.571-8.019c0.947-0.082,1.912-0.125,2.885-0.125C82.063,306.775,93.1,315.024,93.1,325.198z"/>
</g>
<g>
	<path fill="#2E8C45" d="M264.186,325.198c0,1.613-0.278,3.177-0.802,4.668h-67.909c-0.018-0.253-0.026-0.51-0.026-0.767
		c0-1.837,0.458-3.595,1.291-5.211c2.801-5.447,9.869-9.312,18.145-9.312c1.439,0,2.84,0.117,4.192,0.342
		c3.919-4.352,10.256-7.383,17.571-8.019c0.947-0.082,1.912-0.125,2.885-0.125C253.149,306.775,264.186,315.024,264.186,325.198z"/>
</g>
<g>
	<path fill="#2E8C45" d="M84.896,326.907c0,1.022,0.176,2.014,0.508,2.96h43.058c0.011-0.161,0.017-0.324,0.017-0.487
		c0-1.164-0.29-2.279-0.818-3.304c-1.775-3.454-6.257-5.904-11.504-5.904c-0.913,0-1.801,0.075-2.658,0.217
		c-2.485-2.76-6.504-4.681-11.142-5.084c-0.601-0.052-1.212-0.079-1.829-0.079C91.893,315.226,84.896,320.456,84.896,326.907z"/>
</g>
<rect y="394.484" fill="#2C6026" width="800" height="8.533"/>
<ellipse fill="#2C6026" cx="285.753" cy="365.4" rx="43.068" ry="4.838"/>
<linearGradient id="SVGID_2_" gradientUnits="userSpaceOnUse" x1="340.8716" y1="163.4541" x2="261.0697" y2="352.6397">
	<stop  offset="0.0921" style="stop-color:#49843D"/>
	<stop  offset="0.1955" style="stop-color:#447E3D"/>
	<stop  offset="0.7014" style="stop-color:#31633B"/>
	<stop  offset="1" style="stop-color:#2A593B"/>
</linearGradient>
<path fill="url(#SVGID_2_)" d="M388.845,252.775c-0.932-17.834-9.569-33.987-23.191-46.18c-6.808-28.868-37.16-50.636-73.579-50.636
	c-41.428,0-75.011,28.165-75.011,62.908c0,5.136,0.739,10.127,2.124,14.905c-13.217,10.25-21.497,24.914-21.497,41.202
	c0,30.987,29.953,56.107,66.901,56.107c8.535,0,16.694-1.342,24.199-3.785c4.552,0.622,9.221,0.951,13.982,0.951
	c11.63,0,22.719-1.937,32.842-5.439c0.875,0.033,1.752,0.056,2.637,0.056c31.537,0,57.102-21.44,57.102-47.89
	C395.354,266.962,392.994,259.413,388.845,252.775z"/>
<line fill="none" stroke="#562723" stroke-width="17.7283" stroke-linecap="round" stroke-miterlimit="10" x1="296.523" y1="260.029" x2="296.522" y2="360.957"/>
<line fill="none" stroke="#562723" stroke-width="9.4551" stroke-miterlimit="10" x1="296.352" y1="322.9" x2="320.307" y2="292.283"/>
<path fill="#49843D" d="M370.521,246.161c1.876-3.647,2.92-7.666,2.92-11.891c0-10.556-6.497-19.833-16.314-25.191
	c-2.005-24.478-26.313-43.814-56.008-43.814c-28.927,0-52.741,18.347-55.809,41.921c-15.451,8.389-25.677,22.97-25.677,39.556
	c0,26.006,25.138,47.087,56.146,47.087c15.995,0,30.418-5.617,40.644-14.618c3.817,13.351,18.134,23.276,35.224,23.276
	c20.01,0,36.231-13.604,36.231-30.386C387.879,261.119,380.931,251.5,370.521,246.161z"/>
<path fill="#77A33E" d="M333.811,189.701c-5.095-12.019-18.658-21.347-35.316-23.722c-6.011-0.857-8.586,6.027-2.541,6.889
	c13.394,1.909,24.495,8.953,28.641,18.733C326.445,195.967,335.676,194.102,333.811,189.701z"/>
<path fill="#77A33E" d="M341.852,207.674c-0.322-1.19-0.644-2.38-0.966-3.57c-0.496-1.835-3.54-3.061-5.878-2.495
	c-2.604,0.63-3.87,2.428-3.337,4.394c0.322,1.19,0.645,2.38,0.965,3.57c0.497,1.834,3.542,3.06,5.878,2.495
	C341.118,211.438,342.384,209.64,341.852,207.674z"/>
<ellipse fill="#2C6026" cx="148.784" cy="383.514" rx="46.82" ry="4.535"/>
<linearGradient id="SVGID_3_" gradientUnits="userSpaceOnUse" x1="189.4473" y1="200.9688" x2="121.6132" y2="361.7823">
	<stop  offset="0.0921" style="stop-color:#49843D"/>
	<stop  offset="0.1955" style="stop-color:#447E3D"/>
	<stop  offset="0.7014" style="stop-color:#31633B"/>
	<stop  offset="1" style="stop-color:#2A593B"/>
</linearGradient>
<path fill="url(#SVGID_3_)" d="M255.55,271.61c0-35.683-34.49-62.294-77.038-62.294c-24.163,0-45.723,7.018-59.848,21.616
	c-34.507,1.914-61.791,25.989-61.791,55.414c0,28.397,25.413,51.813,58.206,55.134c10.005,4.594,21.487,7.207,33.699,7.207
	c17.181,0,32.918-5.173,45.128-13.76C229.077,328.944,255.55,302.871,255.55,271.61z"/>
<line fill="none" stroke="#562723" stroke-width="17.7283" stroke-linecap="round" stroke-miterlimit="10" x1="167.263" y1="278.393" x2="167.263" y2="379.319"/>
<line fill="none" stroke="#562723" stroke-width="9.4551" stroke-miterlimit="10" x1="164.873" y1="344.335" x2="136.359" y2="307.188"/>
<path fill="#49843D" d="M242.505,279.552c10.046-28.868-7.368-54.971-41.79-61.663c-24.944-4.85-53.084,0.533-69.223,16.35
	c-22.838,2.572-43.247,16.405-50.048,35.948c-8.799,25.283,6.926,45.188,37.073,51.05c15.49,3.013,40.144-0.476,47.79-6.667
	C194.344,324.57,232.693,307.745,242.505,279.552z"/>
<path fill="#77A33E" d="M210.478,233.268c-4.991-7.191-14.076-12.374-24.684-14.045c-6.001-0.946-8.566,5.939-2.541,6.889
	c8.379,1.32,15.028,5.079,18.972,10.762C205.057,240.956,213.308,237.347,210.478,233.268z"/>
<path fill="#77A33E" d="M222.394,248.127c-1.667-1.4-5.082-1.365-6.759,0c-1.824,1.485-1.775,3.533-0.027,5.023
	c0.104,0.121,0.206,0.243,0.296,0.37c0.007,0.009,0.012,0.013,0.018,0.021c0.006,0.028,0.014,0.06,0.026,0.098
	c0.051,0.127,0.092,0.254,0.125,0.383c0.002,0.007,0.002,0.007,0.004,0.015c-0.008,0.161-0.036,0.337-0.051,0.424
	c0.011-0.059,0.034-0.17,0.073-0.348c0,0.003,0.001,0.007,0.002,0.009c-0.376,1.826,0.664,3.894,3.343,4.35
	c2.301,0.392,5.448-0.522,5.879-2.495C225.964,253.037,225.068,250.373,222.394,248.127z"/>
<g>
	<line fill="#33312A" x1="537.681" y1="384.38" x2="530.446" y2="384.38"/>
</g>
<path fill="#49843D" d="M214.214,308.676c-5.193-0.917-10.146,1.304-10.146,1.304s3.464,3.708,8.657,4.625
	s10.146-1.304,10.146-1.304S219.406,309.593,214.214,308.676z"/>
<path fill="#49843D" d="M205.152,313.059c-2.854-3.752-8.212-5.165-8.212-5.165s-0.731,4.671,2.122,8.423
	c2.854,3.752,8.212,5.164,8.212,5.164S208.006,316.81,205.152,313.059z"/>
<path fill="#49843D" d="M379.267,253.172c-5.216,0.816-10.108-1.5-10.108-1.5s3.567-3.639,8.783-4.456
	c5.217-0.816,10.107,1.5,10.107,1.5S384.483,252.355,379.267,253.172z"/>
<path fill="#49843D" d="M377.362,246.333c-2.957,3.695-8.352,5.004-8.352,5.004s-0.603-4.684,2.353-8.38
	c2.956-3.695,8.353-5.004,8.353-5.004S380.318,242.638,377.362,246.333z"/>
<g>
	<polyline fill="none" stroke="#4B4332" stroke-width="6.6962" stroke-miterlimit="10" points="531.891,364.702 555.098,395.771 
		579.858,364.702 	"/>
	<linearGradient id="SVGID_4_" gradientUnits="userSpaceOnUse" x1="595.4209" y1="304.1992" x2="562.7167" y2="381.7307">
		<stop  offset="0.0921" style="stop-color:#49843D"/>
		<stop  offset="0.1955" style="stop-color:#447E3D"/>
		<stop  offset="0.7014" style="stop-color:#31633B"/>
		<stop  offset="1" style="stop-color:#2A593B"/>
	</linearGradient>
	<ellipse fill="url(#SVGID_4_)" cx="579.859" cy="341.092" rx="47.968" ry="35.854"/>
	<path fill="#49843D" d="M534.266,334.771c0,17.396,18.87,26.614,42.146,26.614c23.274,0,42.145-9.218,42.145-26.614
		c0-17.397-18.87-31.5-42.145-31.5C553.136,303.271,534.266,317.374,534.266,334.771z"/>
	<linearGradient id="SVGID_5_" gradientUnits="userSpaceOnUse" x1="552.9844" y1="287.7598" x2="512.8893" y2="382.8128">
		<stop  offset="0.0921" style="stop-color:#49843D"/>
		<stop  offset="0.1955" style="stop-color:#447E3D"/>
		<stop  offset="0.7014" style="stop-color:#31633B"/>
		<stop  offset="1" style="stop-color:#2A593B"/>
	</linearGradient>
	<ellipse fill="url(#SVGID_5_)" cx="533.905" cy="332.989" rx="58.809" ry="43.956"/>
	<path fill="#49843D" d="M494.835,328.261c0,21.665,23.498,33.145,52.483,33.145c28.987,0,52.484-11.479,52.484-33.145
		c0-21.664-23.497-39.228-52.484-39.228C518.333,289.033,494.835,306.597,494.835,328.261z"/>
	<path fill="#49843D" d="M605.599,338.211c-5.569,6.393-4.263,14.408-4.263,14.408s10.337-2.35,15.906-8.742
		s4.262-14.408,4.262-14.408S611.167,331.817,605.599,338.211z"/>
	<path fill="#49843D" d="M614.254,346.828c-10.008,1.503-16.751,7.812-16.751,7.812s9.48,3.874,19.486,2.371
		c10.007-1.503,16.75-7.812,16.75-7.812S624.26,345.326,614.254,346.828z"/>
	<path fill="#2A593B" d="M487.684,347.942c9.359,4.393,12.946,12.713,12.946,12.713s-11.586,1.201-20.943-3.19
		c-9.359-4.391-12.946-12.712-12.946-12.712S478.326,343.552,487.684,347.942z"/>
	<path fill="#2A593B" d="M538.988,370.312c10.748-1.921,21.208,1.989,21.208,1.989s-6.961,7.025-17.708,8.946
		s-21.209-1.989-21.209-1.989S528.242,372.233,538.988,370.312z"/>
	<path fill="#77A33E" d="M576.536,306.332c-5.692-4.351-12.391-7.739-19.938-10.026c-6.949-2.106-15.919-4.037-23.267-2.065
		c-5.747,1.542-3.269,8.447,2.54,6.889c5.668-1.521,13.019,0.41,18.3,2.114c5.924,1.911,11.107,4.702,15.605,8.14
		C574.085,314.676,580.841,309.623,576.536,306.332z"/>
	<path fill="#77A33E" d="M594.974,314.335c-2.581-1.709-6.041-2.457-9.408-1.701c-2.392,0.537-4.146,2.528-3.338,4.394
		c0.781,1.807,3.314,3.07,5.878,2.494c0.07-0.017,0.143-0.026,0.214-0.042c0.009,0.002,0.018,0.004,0.025,0.006
		c0.055,0.023,0.113,0.044,0.167,0.069c-0.025-0.017-0.038-0.023-0.062-0.038c1.886,1.114,4.778,1.293,6.524-0.13
		C596.639,318.031,596.973,315.658,594.974,314.335z"/>
</g>
<line fill="none" stroke="#562723" stroke-width="0.9192" stroke-miterlimit="10" x1="292.572" y1="310.15" x2="281.83" y2="301.142"/>
<path fill="#49843D" d="M85.559,271.931c4.015,2.909,4.909,7.561,4.909,7.561s-5.616-0.066-9.632-2.976
	c-4.015-2.909-4.908-7.561-4.908-7.561S81.544,269.021,85.559,271.931z"/>
<path fill="#49843D" d="M82.899,277.808c5.288-0.368,9.874,2.353,9.874,2.353s-3.988,3.317-9.276,3.686s-9.874-2.353-9.874-2.353
	S77.611,278.176,82.899,277.808z"/>
<path fill="#49843D" d="M241.975,198.33c4.016,2.909,4.91,7.56,4.91,7.56s-5.617-0.066-9.632-2.976
	c-4.016-2.909-4.909-7.561-4.909-7.561S237.96,195.42,241.975,198.33z"/>
<path fill="#49843D" d="M239.315,204.207c5.289-0.368,9.875,2.352,9.875,2.352s-3.988,3.317-9.276,3.686s-9.874-2.352-9.874-2.352
	S234.027,204.575,239.315,204.207z"/>
<g>
	<rect y="403.018" fill="#9B9778" width="800" height="46.982"/>
	<g>
		<path fill="#B7B191" d="M587.222,435.557c-4.827,0-9.653,0-14.48,0c-5.831,0-5.831-6.759,0-6.759c4.827,0,9.653,0,14.48,0
			C593.052,428.798,593.052,435.557,587.222,435.557L587.222,435.557z"/>
	</g>
	<g>
		<path fill="#B7B191" d="M683.166,435.557c-22.065,0-44.13,0-66.196,0c-5.831,0-5.831-6.759,0-6.759c22.066,0,44.131,0,66.196,0
			C688.996,428.798,688.996,435.557,683.166,435.557L683.166,435.557z"/>
	</g>
	<g>
		<path fill="#B7B191" d="M159.295,438.566c-4.827,0-9.653,0-14.479,0c-5.832,0-5.832-6.759,0-6.759c4.827,0,9.653,0,14.479,0
			C165.126,431.808,165.126,438.566,159.295,438.566L159.295,438.566z"/>
	</g>
	<g>
		<path fill="#B7B191" d="M255.239,438.566c-22.065,0-44.13,0-66.195,0c-5.831,0-5.831-6.759,0-6.759c22.065,0,44.13,0,66.195,0
			C261.071,431.808,261.071,438.566,255.239,438.566L255.239,438.566z"/>
	</g>
	<g>
		<path fill="#B7B191" d="M662.025,423.854c-4.827,0-9.654,0-14.48,0c-5.83,0-5.83-6.759,0-6.759c4.826,0,9.653,0,14.48,0
			C667.855,417.096,667.855,423.854,662.025,423.854L662.025,423.854z"/>
	</g>
</g>
<g>
	<g opacity="0.7">
		<path fill="#565441" d="M141.456,418.329c25.043,0,50.086,0,75.13,0c3.63,0,7.261,0,10.892,0c5.819,0,5.828-6.76,0-6.76
			c-25.043,0-50.086,0-75.129,0c-3.631,0-7.261,0-10.892,0C135.638,411.569,135.628,418.329,141.456,418.329L141.456,418.329z"/>
	</g>
</g>
<g>
	<rect x="181.803" y="356.59" fill="#C1B2A3" width="38.721" height="8.903"/>
	<rect x="172.982" y="361.756" fill="#B78F63" width="56.363" height="51.596"/>
	<rect x="183.861" y="361.756" fill="#775A39" width="10.879" height="51.596"/>
	<rect x="207.769" y="361.756" fill="#775A39" width="10.879" height="51.596"/>
</g>
<g>
	<path fill="#2A593B" d="M762.838,386.245c0,3.147-0.541,6.198-1.563,9.106H628.788c-0.034-0.494-0.051-0.995-0.051-1.496
		c0-3.583,0.893-7.013,2.518-10.166c5.464-10.628,19.254-18.167,35.397-18.167c2.81,0,5.542,0.231,8.18,0.668
		c7.647-8.489,20.01-14.404,34.281-15.644c1.848-0.161,3.729-0.244,5.628-0.244C741.308,350.303,762.838,366.396,762.838,386.245z"
		/>
	<path fill="#49843D" d="M756.417,368.708c-7.011,11.514-23.112,19.573-41.868,19.573c-8.309,0-16.092-1.593-22.803-4.354
		c-6.71,2.761-14.503,4.354-22.812,4.354c-8.531,0-16.513-1.669-23.344-4.592c5.465-10.628,19.255-18.167,35.398-18.167
		c2.81,0,5.542,0.231,8.179,0.668c7.648-8.489,20.011-14.404,34.281-15.644C738.168,351.915,750.505,358.984,756.417,368.708z"/>
</g>
<g>
	<path fill="#2E8C45" d="M701.074,325.198c0,1.613,0.278,3.177,0.803,4.668h67.909c0.018-0.253,0.026-0.51,0.026-0.767
		c0-1.837-0.458-3.595-1.291-5.211c-2.801-5.447-9.869-9.312-18.145-9.312c-1.439,0-2.841,0.117-4.192,0.342
		c-3.919-4.352-10.257-7.383-17.571-8.019c-0.946-0.082-1.911-0.125-2.884-0.125C712.111,306.775,701.074,315.024,701.074,325.198z"
		/>
</g>
<g>
	<path fill="#2E8C45" d="M709.279,326.907c0,1.022-0.176,2.014-0.509,2.96h-43.057c-0.012-0.161-0.018-0.324-0.018-0.487
		c0-1.164,0.29-2.279,0.818-3.304c1.776-3.454,6.258-5.904,11.505-5.904c0.913,0,1.8,0.075,2.657,0.217
		c2.486-2.76,6.504-4.681,11.142-5.084c0.601-0.052,1.212-0.079,1.829-0.079C702.281,315.226,709.279,320.456,709.279,326.907z"/>
</g>
<g>
	<path fill="#77A33E" d="M216.025,254.46C216.009,254.539,216.014,254.524,216.025,254.46L216.025,254.46z"/>
</g>
<path fill="#77A33E" d="M737.422,360.028c-2.146-1.823-4.781-3.363-7.654-4.492c-2.212-0.869-5.296-0.476-6.538,1.281
	c-1.165,1.648-0.647,3.959,1.714,4.888c0.599,0.235,1.188,0.481,1.759,0.753c0.254,0.121,0.505,0.244,0.751,0.372
	c0.07,0.037,0.342,0.191,0.467,0.259c0.986,0.608,1.897,1.272,2.743,1.99c1.656,1.408,5.089,1.359,6.759,0
	C739.266,363.578,739.188,361.529,737.422,360.028z"/>
<path fill="#77A33E" d="M716.396,352.168c-0.829-0.619-2.188-1.086-3.379-1.046c-1.236,0.041-2.518,0.345-3.381,1.046
	c-0.857,0.699-1.398,1.559-1.398,2.526v0.356c0,0.916,0.532,1.879,1.398,2.526c0.83,0.619,2.189,1.086,3.381,1.046
	c1.235-0.041,2.518-0.345,3.379-1.046c0.858-0.699,1.399-1.558,1.399-2.526v-0.356C717.796,353.778,717.264,352.816,716.396,352.168
	z"/>
<g>
	<g opacity="0.7">
		<path fill="#565441" d="M310.51,418.475c33.702,0,67.404,0,101.106,0c53.395,0,106.788,0,160.184,0c12.345,0,24.69,0,37.036,0
			c6.085,0,6.095-7.068,0-7.068c-33.701,0-67.402,0-101.105,0c-53.394,0-106.788,0-160.183,0c-12.346,0-24.692,0-37.038,0
			C304.426,411.406,304.416,418.475,310.51,418.475L310.51,418.475z"/>
	</g>
	<path fill="#3F3326" d="M348.345,415.146h-2.659c-1.747,0-3.163-1.058-3.163-2.363l0-27.128h8.985l0,27.128
		C351.508,414.089,350.092,415.146,348.345,415.146z"/>
	<path fill="#3F3326" d="M531.582,415.146h-2.387c-1.822,0-3.3-1.104-3.3-2.466v-27.025h8.984v27.025
		C534.88,414.043,533.403,415.146,531.582,415.146z"/>
	<g>
		<rect x="345.807" y="389.139" fill="#211B14" width="186.055" height="4.712"/>
	</g>
	<rect x="342.522" y="317.94" fill="#211B14" width="8.985" height="77.08"/>
	<rect x="525.895" y="313.457" fill="#211B14" width="8.984" height="81.563"/>
	<path fill="#211B14" d="M531.863,415.146h-2.949c-1.668,0-3.019-1.009-3.019-2.256v-0.022h8.984v0.022
		C534.88,414.138,533.529,415.146,531.863,415.146z"/>
	<path fill="#211B14" d="M348.49,415.146h-2.949c-1.667,0-3.019-1.009-3.019-2.255v-0.023h8.986v0.023
		C351.508,414.138,350.157,415.146,348.49,415.146z"/>
	<g>
		<rect x="326.223" y="311.216" fill="#D8783C" width="225.222" height="16.667"/>
		<rect x="326.222" y="309.101" fill="#FFB867" width="225.222" height="16.668"/>
		<rect x="326.223" y="332.595" fill="#D8783C" width="225.222" height="16.668"/>
		<rect x="326.223" y="330.479" fill="#EF9C58" width="225.222" height="16.668"/>
		<rect x="326.223" y="355.899" fill="#D8783C" width="225.222" height="12.671"/>
		<rect x="326.223" y="351.542" fill="#FFB867" width="225.222" height="14.913"/>
		<rect x="326.223" y="370.842" fill="#FFC67E" width="225.222" height="7.258"/>
		<rect x="326.223" y="374.47" fill="#EA9348" width="225.222" height="5.628"/>
		<rect x="326.223" y="378.099" fill="#FFC67E" width="225.222" height="7.575"/>
		<rect x="326.223" y="381.887" fill="#EA9348" width="225.222" height="4.801"/>
		<path opacity="0.29" fill="#EF9C58" d="M427.299,312.214h-9.132c-1.608,0-3.085,0.789-3.444,1.961
			c-0.106,0.346-0.117,0.683-0.049,1c0.128,0.602-0.538,1.137-1.354,1.137h-0.02c-1.188,0-2.093-0.727-2.125-1.613
			c-0.001-0.015-0.002-0.028-0.003-0.042c-0.083-1.385-1.708-2.442-3.562-2.442h-27.887c-1.646,0-3.158,0.824-3.481,2.029
			c-0.441,1.645,1.23,3.088,3.352,3.088h2.751c1.187,0,2.092,0.727,2.125,1.613c0,0.014,0.001,0.028,0.002,0.043
			c0.083,1.385,1.708,2.441,3.562,2.441h28.015c2.002,0,3.602-1.284,3.407-2.81c-0.005-0.041-0.012-0.082-0.021-0.122
			c-0.12-0.615,0.514-1.166,1.346-1.166h6.386c1.646,0,3.158-0.823,3.482-2.029C431.092,313.656,429.42,312.214,427.299,312.214z"/>
		<path opacity="0.29" fill="#EF9C58" d="M468.792,356.5h6.614c1.165,0,2.236,0.572,2.496,1.42c0.077,0.251,0.084,0.495,0.035,0.725
			c-0.093,0.437,0.39,0.823,0.98,0.823h0.015c0.859,0,1.515-0.525,1.54-1.168c0-0.011,0-0.021,0.001-0.031
			c0.061-1.002,1.236-1.769,2.58-1.769h20.2c1.192,0,2.288,0.597,2.522,1.47c0.317,1.191-0.893,2.237-2.429,2.237h-1.993
			c-0.86,0-1.516,0.525-1.539,1.168c-0.001,0.011-0.002,0.021-0.003,0.031c-0.061,1.003-1.236,1.769-2.58,1.769H476.94
			c-1.451,0-2.609-0.93-2.468-2.035c0.003-0.03,0.008-0.06,0.014-0.088c0.088-0.446-0.372-0.845-0.975-0.845h-4.626
			c-1.191,0-2.288-0.597-2.521-1.471C466.045,357.545,467.255,356.5,468.792,356.5z"/>
		<path opacity="0.47" fill="#FFB867" d="M455.042,339.943h-4.474c-1.703,0-3.041-0.996-3.206-2.264
			c-0.003-0.017-0.005-0.033-0.007-0.049c-0.188-1.18-1.609-2.034-3.198-2.034h-28.128c-1.616,0-3.059,0.884-3.213,2.086
			c-0.177,1.38,1.271,2.54,3.079,2.54h4.606c1.703,0,3.041,0.997,3.205,2.264c0.003,0.017,0.006,0.033,0.008,0.05
			c0.188,1.179,1.609,2.032,3.198,2.032h28.261c1.809,0,3.255-1.159,3.08-2.539C458.101,340.826,456.657,339.943,455.042,339.943z"
			/>
		<path opacity="0.29" fill="#EF9C58" d="M403.007,359.511h-2.835c-1.08,0-1.928-0.632-2.032-1.435
			c-0.001-0.01-0.002-0.021-0.004-0.031c-0.118-0.747-1.02-1.289-2.026-1.289h-17.826c-1.024,0-1.939,0.561-2.036,1.322
			c-0.112,0.874,0.805,1.609,1.952,1.609h2.919c1.079,0,1.927,0.632,2.031,1.435c0.001,0.011,0.003,0.021,0.005,0.032
			c0.118,0.746,1.02,1.288,2.026,1.288h17.91c1.148,0,2.064-0.735,1.953-1.609C404.946,360.07,404.031,359.511,403.007,359.511z"/>
	</g>
	<ellipse fill="#D87D50" cx="530.388" cy="358.998" rx="1.833" ry="1.37"/>
	<ellipse fill="#D87D50" cx="530.388" cy="338.813" rx="1.833" ry="1.369"/>
	<ellipse fill="#D87D50" cx="530.388" cy="317.94" rx="1.833" ry="1.369"/>
	<ellipse fill="#D87D50" cx="347.015" cy="358.999" rx="1.833" ry="1.37"/>
	<ellipse fill="#D87D50" cx="347.015" cy="338.813" rx="1.833" ry="1.369"/>
	<ellipse fill="#D87D50" cx="347.015" cy="317.94" rx="1.833" ry="1.369"/>
</g>
<g>
	<ellipse fill="#FFD93B" cx="573.876" cy="227.354" rx="22.526" ry="16.837"/>
	<path fill="#FFE576" d="M589.644,224.807c0,6.508-7.059,5.477-15.767,5.477c-8.707,0-15.766,1.031-15.766-5.477
		s7.059-11.784,15.766-11.784C582.585,213.022,589.644,218.299,589.644,224.807z"/>
	<rect x="559.48" y="207.342" fill="#38300E" width="28.793" height="6.351"/>
	<path fill="#33312A" d="M615.861,385.809V202.442c0-7.924-8.627-14.371-19.228-14.371h-0.462c-10.601,0-19.226,6.447-19.226,14.371
		v7.872h-7.235v-7.872c0-10.906,11.871-19.778,26.461-19.778h0.462c14.59,0,26.461,8.872,26.461,19.778v183.366"/>
	<rect x="613.352" y="267.124" fill="#33312A" width="12.329" height="6.477"/>
	<rect x="602.159" y="347.243" fill="#33312A" width="34.714" height="15.06"/>
	<rect x="602.158" y="361.403" fill="#33312A" width="34.717" height="52.521"/>
	<rect x="594.368" y="409.418" fill="#33312A" width="50.297" height="8.754"/>
	<path opacity="0.26" fill="#88D9E2" d="M630.967,347.243v45.686c0,2.356-2.562,4.271-5.716,4.271s-5.716-1.915-5.716-4.271v-45.686
		H630.967z"/>
</g>
</svg>
