<?xml version="1.0" encoding="utf-8"?>
<!-- Generator: Adobe Illustrator 15.0.0, SVG Export Plug-In . SVG Version: 6.00 Build 0)  -->
<!DOCTYPE svg PUBLIC "-//W3C//DTD SVG 1.1//EN" "http://www.w3.org/Graphics/SVG/1.1/DTD/svg11.dtd">
<svg version="1.1" id="bedroom" xmlns="http://www.w3.org/2000/svg" xmlns:xlink="http://www.w3.org/1999/xlink" x="0px" y="0px"
	 width="800px" height="450px" viewBox="0 0 800 450" enable-background="new 0 0 800 450" xml:space="preserve">
<g>
	<polygon fill="#FFBF59" points="0,42 456.511,97.001 468.434,277.988 0,374 	"/>
	<polygon fill="#FD9533" points="800,372.667 800,43.333 456.511,97.001 468.434,277.988 	"/>
	<path opacity="0.3" fill="#FFFFFF" d="M463.613,103.952l8.054,165.715l320.666,68.651V58L463.613,103.952z M789.667,330.667
		l-314.315-62.714L468.434,110l319.899-48.641L789.667,330.667z"/>
	<path opacity="0.3" fill="#FFFFFF" d="M444.5,103L17.517,57.342l-5.85,280.976l443.429-70.539L444.5,103z M17.517,334.573
		L29.196,61.745l409.588,43.797L451.5,263.75L17.517,334.573z"/>
</g>
<polygon opacity="0.2" fill="#CE0000" points="472.726,208 485.309,210.129 494.948,233.002 676.754,208.908 732.413,276.467 
	764.732,278.684 800,348 516.684,290.283 455.096,250.853 453.17,226.912 "/>
<g>
	<polygon fill="#D14F46" points="0,364.667 468.434,277.988 800,372.667 800,450 0,450 	"/>
	<path opacity="0.2" fill="#590800" d="M800,397.787l-14.385,6.588l-69.748-20.808l50.606-20.475l-3.333-0.951L711.283,382.2
		l-52.962-15.801l48.737-20.272l-1.938-0.553l-49.212,20.105l-47.059-14.039l52.816-18.475l-2.331-0.666l-53.144,18.348
		l-45.17-13.476l53.723-17.604l-2.741-0.783l-54.064,17.468l-50.227-14.984l53.528-16.979l-3.082-0.88l-53.917,16.823
		l-45.738-13.646l56.189-15.59l-3.203-0.914l-57.198,15.248l-48.966-14.608l-2.444,0.501l48.91,14.773l-92.185,24.575
		l-54.996-19.207l-3.612,0.74l54.203,19.641l-100.993,26.923L202.475,332.5l-2.826,0.579l51.78,26.532L138.99,389.585L92.41,355.06
		l-5.764,1.182l47.235,34.706L0,426.638V434l139.717-38.765l37.199,27.333L89,450h13.5l78.054-24.759l31.329,23.02L206.5,450h7.75
		h3.083h3.167l-0.971-0.72l126.193-41.354l38.3,19.625L319,450h8.667l59.528-20.823L427.833,450H433l-42.869-21.851l117.315-41.037
		l50.877,18.436L449.517,450h7.816l104.133-43.313l44.668,16.186L536,450h15.667l61.105-24.723L681,450h5h10.5h4.5l-2.532-0.884
		l91.051-40.907L800,411.375v-2.708l-6.911-2.062L800,403.5V397.787z M603.123,351.907l-92.025,31.771l-44.237-15.449l91.274-29.911
		L603.123,351.907z M555.049,337.387l-91.684,29.622l-47.227-16.494l88.957-28.217L555.049,337.387z M457.339,368.956
		l-112.212,36.255l-38.905-19.831l104.749-33.226L457.339,368.956z M456.023,307.476l45.601,13.773l-89.404,27.897l-47.101-16.449
		L456.023,307.476z M360.676,333.93l46.413,16.817l-104.712,32.674l-42.323-21.573L360.676,333.93z M144.735,393.843l112.555-31.229
		l42.302,21.675l-118.05,36.835L144.735,393.843z M216.25,446.85l-31.114-23.062l118.305-37.526l38.8,19.881L216.25,446.85z
		 M386.964,426.535l-38.361-19.553l112.204-36.77L504.375,386L386.964,426.535z M514.183,384.756l91.605-32.043l47.064,14.216
		l-87.435,35.721L514.183,384.756z M568.545,403.741l86.739-36.078l52.547,15.872l-93.541,36.182L568.545,403.741z M692.489,447.027
		l-71.638-25.019l91.627-37.07l69.645,21.036L692.489,447.027z"/>
	<polygon opacity="0.1" fill="#FFFFFF" points="558.323,405.548 507.446,387.112 390.131,428.149 433,450 449.517,450 	"/>
	<polygon opacity="0.1" fill="#FFFFFF" points="181.542,421.124 144.735,393.843 257.29,362.614 299.592,384.289 	"/>
	<polygon opacity="0.1" fill="#FFFFFF" points="514.693,291.197 458.504,306.787 504.242,320.433 558.159,303.609 	"/>
	<polygon opacity="0.1" fill="#FFFFFF" points="707.059,346.127 658.321,366.399 711.283,382.2 763.141,362.142 	"/>
</g>
<g>
	<polygon fill="#FFFFFF" points="800,348 467.939,273.284 0,352.667 0,374 468.434,277.988 800,372.667 	"/>
	<polygon fill="#B9EDDA" points="800,354.5 467.333,274.833 0,358 0,352.667 467.939,273.284 800,348 	"/>
</g>
<path opacity="0.08" fill="#CE0000" d="M413.606,91.833l44.897,35.421c0,0,59.942-3.844,169.47,31.952
	C737.5,195,800,298.5,800,298.5V43.333L456.511,97.001L413.606,91.833z"/>
<polygon opacity="0.5" fill="#8D0000" points="800,372.667 468.434,277.988 384.144,295.265 614.333,377.681 247.054,436.897 
	190.003,335.057 0,374 0,450 800,450 "/>
<polygon opacity="0.5" fill="#9A0400" points="282.507,359.29 388.62,450 710.731,450 789.667,370.142 670.699,336.02 
	670.663,340.498 437.078,443.5 "/>
<g>
	<polygon fill="#FFBF59" points="506,421.124 614.129,376 700,400.502 603.123,450 575.14,450 	"/>
	<polygon fill="#590800" points="506,421.124 506,423.357 568.545,450 575.14,450 	"/>
	<polygon fill="#590800" points="700,400.502 603.123,450 607.625,450 699.25,403.25 	"/>
	<path opacity="0.6" fill="#C94D44" d="M616.5,380.25l-99.25,40.874l69,25.726l100.25-46.348L616.5,380.25z M522.125,421.125
		l94.5-39.375l64.505,18.752l-93.393,43.178L522.125,421.125z"/>
	<path opacity="0.6" fill="#C94D44" d="M590.27,399.469l-26.77,25.594l55.75-7.607l16.24-24.445L590.27,399.469z M617.259,416.606
		l-50.131,6.841l24.071-23.014L633.125,395L617.259,416.606z"/>
</g>
<g>
	<g>
		<polygon fill="#7C441D" points="662.693,115.581 658.438,178.914 585.104,178.914 583.271,121.581 		"/>
		<polygon fill="#C94D44" points="657.05,120.081 655.361,174.414 586.688,175.581 585.966,125.451 		"/>
		<polygon fill="#FFF594" points="634.543,135.436 633.81,159.058 604.921,159.058 604.921,137.674 		"/>
	</g>
	<g>
		<polygon fill="#7C441D" points="573.541,122.996 571.189,157.996 530.663,157.996 529.65,126.312 		"/>
		<polygon fill="#FFBF59" points="570.423,125.482 569.489,155.509 531.538,156.153 531.14,128.45 		"/>
		<polygon fill="#FFF594" points="557.985,133.968 557.579,147.022 541.614,147.022 541.614,135.205 		"/>
	</g>
	<polygon opacity="0.27" fill="#590800" points="662.693,115.581 664.459,118.709 662.693,182.581 590.188,181.706 585.104,178.914 
		658.438,178.914 	"/>
	<polygon opacity="0.27" fill="#590800" points="573.541,122.996 574.81,124.872 573.541,159.997 535.747,159.31 530.663,157.996 
		571.189,157.996 	"/>
</g>
<g>
	<g>
		<polygon fill="#9B5729" points="403.224,249.493 403.205,330.771 459.145,345.4 461.479,256.955 		"/>
		<polygon fill="#7C441D" points="406.087,252.312 406.068,327.246 456.28,340.377 456.28,259.134 		"/>
		<polygon fill="#BC7442" points="406.068,288.986 448.407,286.404 456.28,286.404 456.28,298.403 		"/>
		<polygon fill="#7C441D" points="511.474,252.454 436.162,247.289 403.224,249.493 461.479,256.955 459.145,345.4 505.573,330.271 
					"/>
		<polygon fill="#5B1800" points="461.479,256.955 511.474,252.454 505.573,330.271 459.145,345.4 		"/>
		<polygon fill="#9B5729" points="456.28,298.403 404.24,288.643 404.24,290.367 456.28,304.368 		"/>
		<polygon fill="#BC7442" points="406.068,327.246 448.407,324.19 456.28,325.041 456.28,340.377 		"/>
		<polygon opacity="0.24" fill="#590800" points="406.087,252.312 449.54,270.246 450.581,286.404 456.28,286.404 456.28,259.134 		
			"/>
		<polygon opacity="0.24" fill="#590800" points="406.666,291.021 456.28,304.368 456.28,325.041 448.407,324.19 447.149,308.882 		
			"/>
		<polygon fill="#590800" points="504.319,330.68 503.475,335.769 497.573,337.521 496.49,334.854 462.548,346.75 460.212,349.615 
			454.828,349.615 452.898,345.4 411.137,336.181 408.862,338.47 404.748,337.439 404.24,331.042 459.145,345.4 		"/>
	</g>
	<g>
		<path fill="#5B1800" d="M452.014,228.794l1.36,16.723l-4.886,6.83c0,0,2.982,0.213,6.067,0.213c3.73,0,6.066-0.633,6.066-0.633
			l-4.903-6.41l0.544-16.723H452.014z"/>
		<path fill="#FFFFFF" d="M478.866,228.793c0,0-12.315,1.654-24.927,1.642c-7.696-0.012-14.587-0.557-19.033-1.02
			c-3.262-0.332-5.212-0.622-5.212-0.622l8.135-24.068l28.822-2.573l4.252-0.379L478.866,228.793z"/>
		<defs>
			<filter id="Adobe_OpacityMaskFilter" filterUnits="userSpaceOnUse" x="429.693" y="202.696" width="46.831" height="27.391">
				<feFlood  style="flood-color:white;flood-opacity:1" result="back"/>
				<feBlend  in="SourceGraphic" in2="back" mode="normal"/>
			</filter>
		</defs>
		<mask maskUnits="userSpaceOnUse" x="429.693" y="202.696" width="46.831" height="27.391" id="SVGID_1_">
			<g filter="url(#Adobe_OpacityMaskFilter)">
				<defs>
					
						<filter id="Adobe_OpacityMaskFilter_1_" filterUnits="userSpaceOnUse" x="429.693" y="202.696" width="46.831" height="27.391">
						<feFlood  style="flood-color:white;flood-opacity:1" result="back"/>
						<feBlend  in="SourceGraphic" in2="back" mode="normal"/>
					</filter>
				</defs>
				<mask maskUnits="userSpaceOnUse" x="429.693" y="202.696" width="46.831" height="27.391" id="SVGID_1_">
					<g filter="url(#Adobe_OpacityMaskFilter_1_)">
					</g>
				</mask>
				<linearGradient id="SVGID_2_" gradientUnits="userSpaceOnUse" x1="429.6934" y1="216.3916" x2="476.5244" y2="216.3916">
					<stop  offset="0" style="stop-color:#FFFFFF"/>
					<stop  offset="1" style="stop-color:#000000"/>
				</linearGradient>
				<path mask="url(#SVGID_1_)" fill="url(#SVGID_2_)" d="M437.828,204.727l33.268-2.031l5.429,26.342c0,0-8.493,1.049-22.245,1.049
					c-15.303,0-24.586-1.293-24.586-1.293L437.828,204.727z"/>
			</g>
		</mask>
		<linearGradient id="SVGID_3_" gradientUnits="userSpaceOnUse" x1="429.6934" y1="216.3916" x2="476.5244" y2="216.3916">
			<stop  offset="0" style="stop-color:#FFFFFF"/>
			<stop  offset="1" style="stop-color:#000000"/>
		</linearGradient>
		<path opacity="0.5" fill="url(#SVGID_3_)" d="M437.828,204.727l33.268-2.031l5.429,26.342c0,0-8.493,1.049-22.245,1.049
			c-15.303,0-24.586-1.293-24.586-1.293L437.828,204.727z"/>
		<path fill="#C94D44" d="M430.993,224.948l0.85-2.514c0,0,10.766,1.261,21.401,1.261c12.155,0,23.947-0.582,23.947-0.582
			l0.732,2.484c0,0-13.303,1.315-24.754,1.315C443.831,226.912,430.993,224.948,430.993,224.948z"/>
		<path fill="#C94D44" d="M432.832,219.508c0,0,12.914,0.968,20.709,1.091c11.203,0.177,22.589-1.091,22.589-1.091l0.395,1.338
			c0,0-14.604,0.894-23.169,0.803c-8.178-0.086-20.687-1.659-20.687-1.659L432.832,219.508z"/>
		<path opacity="0.04" fill="#590800" d="M478.866,228.793c0,0-12.315,1.654-24.927,1.642c-7.696-0.012-14.587-0.557-19.033-1.02
			c1.725-0.16,17.462-1.867,24.601-10.454c6.048-7.275,7.009-14.301,7.145-16.81l4.252-0.379L478.866,228.793z"/>
	</g>
</g>
<g>
	<g>
		<path fill="#5B1800" d="M43.235,132.906l4,174.344l89.436-13.653l7.96-160.053L43.235,132.906z M134.5,290.283L50.676,300.78
			L46.97,139.268l94.03-1.36L134.5,290.283z"/>
		<polygon fill="#BDFFE7" points="134.5,290.283 141,137.908 46.97,139.268 50.676,300.78 		"/>
		<path fill="#B0CBFF" d="M135.464,267.687c0,0-25.464,3.35-27.13,4.831c-1.667,1.482-4.583,21.616-4.583,21.616l30.75-3.851
			L135.464,267.687z"/>
		<polygon fill="#FFAC73" points="134.833,282.493 103.75,287.75 103.75,294.134 134.5,290.283 		"/>
		<polygon fill="#FFFFFF" points="140.583,147.677 48.226,193.995 49.549,251.654 138.649,193.014 		"/>
		<polygon fill="#FFFFFF" points="137.864,211.416 50.153,277.988 50.676,300.78 137.043,230.669 		"/>
		<polygon opacity="0.2" fill="#590800" points="43.235,132.906 38,140 40.667,308.5 127.25,297.75 132.257,293.044 47.235,307.25 
					"/>
	</g>
	<polygon opacity="0.5" fill="#860400" points="169.445,367.48 44.333,411.333 0,386.262 0,374 44.284,364.923 44.988,373.734 
		78.306,387.425 	"/>
	<polygon opacity="0.2" fill="#CE0000" points="37.408,304.554 0,348.269 0,374 44.284,364.923 39.854,309.482 37.408,308.604 	"/>
	<g>
		<g>
			<polygon fill="#683A1B" points="173.017,299.993 169.445,367.48 78.306,387.425 70.819,313.845 			"/>
			<polygon fill="#5B2500" points="39.533,305.471 44.988,373.734 78.306,387.425 70.819,313.845 			"/>
			<path fill="#5B2500" d="M74.001,317.588l4.305,30.136l89.565-15.308l2.44-28.119L74.001,317.588z M165.543,332.12l-85.01,14.529
				l-4.086-28.604l91.316-11.501L165.543,332.12z"/>
			<path fill="#5B2500" d="M79.44,351.483l2.754,29.155l84.646-17.005l1.13-27.702L79.44,351.483z M164.263,363.313l-79.589,15.989
				l-2.48-26.254l83.132-15.781L164.263,363.313z"/>
			<polygon fill="#BC7846" points="140.151,293.213 177.425,300.903 72.924,316.021 37.408,304.554 			"/>
			<polygon opacity="0.42" fill="#562300" points="108.067,317.262 101.142,320.673 101.142,324.303 128.609,318.734 
				134.597,315.679 108.067,319.991 			"/>
			<polygon fill="#CC8E5A" points="108.067,317.262 108.067,320.232 136.424,315.365 136.424,313.681 			"/>
			<polygon opacity="0.42" fill="#562300" points="113.635,350.826 108.067,353.666 108.067,357.925 131.37,352.59 136.424,348.269 
							"/>
			<polygon fill="#CC8E5A" points="113.635,349.876 113.635,353.666 138.723,347.724 138.723,346.133 			"/>
			<polygon fill="#683A1B" points="177.425,300.903 176.659,303.301 73.346,321.519 37.408,308.604 37.408,304.554 72.924,316.021 
							"/>
			<polygon opacity="0.2" fill="#CC8E5A" points="176.659,303.301 177.425,300.903 72.924,316.021 73.346,321.519 			"/>
			<polygon opacity="0.31" fill="#541C00" points="172.806,303.98 172.487,310.007 77.577,380.261 43.667,357.191 39.854,309.482 
				73.346,321.519 			"/>
		</g>
		<defs>
			<filter id="Adobe_OpacityMaskFilter_2_" filterUnits="userSpaceOnUse" x="86.167" y="293.213" width="91.258" height="16.919">
				<feFlood  style="flood-color:white;flood-opacity:1" result="back"/>
				<feBlend  in="SourceGraphic" in2="back" mode="normal"/>
			</filter>
		</defs>
		<mask maskUnits="userSpaceOnUse" x="86.167" y="293.213" width="91.258" height="16.919" id="SVGID_4_">
			<g filter="url(#Adobe_OpacityMaskFilter_2_)">
				<defs>
					<filter id="Adobe_OpacityMaskFilter_3_" filterUnits="userSpaceOnUse" x="86.167" y="293.213" width="91.258" height="16.919">
						<feFlood  style="flood-color:white;flood-opacity:1" result="back"/>
						<feBlend  in="SourceGraphic" in2="back" mode="normal"/>
					</filter>
				</defs>
				<mask maskUnits="userSpaceOnUse" x="86.167" y="293.213" width="91.258" height="16.919" id="SVGID_4_">
					<g filter="url(#Adobe_OpacityMaskFilter_3_)">
					</g>
				</mask>
				<linearGradient id="SVGID_5_" gradientUnits="userSpaceOnUse" x1="115.6201" y1="277.7725" x2="147.9724" y2="322.3016">
					<stop  offset="0.2129" style="stop-color:#000000"/>
					<stop  offset="1" style="stop-color:#FFFFFF"/>
				</linearGradient>
				<polygon mask="url(#SVGID_4_)" fill="url(#SVGID_5_)" points="177.425,300.903 113.635,310.132 86.167,299.172 140.151,293.213 
									"/>
			</g>
		</mask>
		<linearGradient id="SVGID_6_" gradientUnits="userSpaceOnUse" x1="115.6201" y1="277.7725" x2="147.9724" y2="322.3016">
			<stop  offset="0.2129" style="stop-color:#000000"/>
			<stop  offset="1" style="stop-color:#FFFFFF"/>
		</linearGradient>
		<polygon opacity="0.42" fill="url(#SVGID_6_)" points="177.425,300.903 113.635,310.132 86.167,299.172 140.151,293.213 		"/>
	</g>
</g>
<g>
	<polygon fill="#590800" points="516.843,296.679 514.474,201.159 676.754,208.908 670.663,338.318 	"/>
	<polygon fill="#FFF594" points="520.328,296.679 518.21,206.318 662.767,214.742 658.532,338.717 	"/>
	<polygon opacity="0.18" fill="#590800" points="650.829,336.373 657.15,220.007 662.767,214.742 658.532,338.717 	"/>
	<polygon opacity="0.63" fill="#FFFFFF" points="657.15,220.007 518.21,208.424 518.21,206.318 662.767,214.742 	"/>
	<polygon fill="#CC8E5A" points="280.462,344.646 282.507,359.29 437.078,443.5 439.303,420.239 	"/>
	<polygon fill="#72291B" points="437.078,443.5 670.663,340.498 670.761,328.38 439.303,420.239 	"/>
	<polygon fill="#672100" points="520.912,284.356 280.462,344.696 439.303,420.289 670.761,328.38 	"/>
	<polygon fill="#FFBE92" points="671.95,311 671.35,323.69 646.88,332.56 448.87,404.36 440.67,407.33 287.697,342.881 
		283.37,312.23 284.75,312.01 298.59,309.78 516.3,274.74 	"/>
	<polygon fill="#FFAC73" points="283.374,312.231 441.5,381.996 440.667,407.333 287.697,342.881 	"/>
	<polygon fill="#E3784E" points="671.949,310.998 441.5,381.996 440.667,407.333 671.352,323.691 	"/>
	<path fill="#FFD5B8" d="M284.751,312.01c0,0,149.499,65.852,156.749,65.671s217.847-62.801,217.847-62.801
		s-211.472,63.803-214.514,68.541c-2.184,3.401-3.941,17.081-3.941,17.081s0.328-12.975-3.142-17.877
		C434.25,377.681,284.751,312.01,284.751,312.01z"/>
	<path opacity="0.46" fill="#440300" d="M452.6,429.83v-14.82l-7.448-9.303c0,0,9.349-18.597,4.179-25.377
		c-6.43-8.43-164.58-68.32-164.58-68.32l13.84-2.229l348.29,22.779l20.89,1.37L452.6,429.83z"/>
	<path fill="#B0CBFF" d="M674.75,330.67c-0.14,0.25-7.84,3.68-20.29,9.1c-9.65,4.2-22.14,9.58-36.18,15.601
		c-0.19,0.08-0.38,0.16-0.57,0.24C572.6,374.59,498.39,405.8,468.3,418.44c-0.05,0.02-0.109,0.05-0.17,0.069
		c-8.189,3.29-13.01,5.101-13.03,4.82c0,0-0.01-0.21-0.029-0.6c0-0.07,0-0.131-0.011-0.2c0-0.17-0.01-0.37-0.02-0.58
		c0-0.13-0.01-0.26-0.021-0.4c-0.01-0.18-0.01-0.37-0.029-0.569c-0.021-0.461-0.05-0.95-0.08-1.49c-0.01-0.181-0.021-0.36-0.03-0.54
		c-0.51-9.96-1.89-33.86-3.63-40.11c-0.02-0.08-0.03-0.13-0.04-0.16c-0.12-0.43-0.25-0.77-0.38-1c-0.14-0.26-1.51-0.97-3.88-2.069
		c-0.01-0.011-0.021-0.011-0.03-0.011c-4.52-2.09-12.689-5.55-23.02-9.8c-8.101-3.34-17.54-7.16-27.59-11.21
		c-44.74-18.01-101.73-40.32-108.2-42.85c-0.4-0.16-0.61-0.24-0.61-0.24s0.08-0.18,0.22-0.5c0.73-1.61,3.14-6.76,5.33-9.54
		l0.13-0.15c0.45-0.56,0.9-1.02,1.32-1.31c1.87-1.31,95.64-16.19,160.6-26.05l1.431-0.22l3.39-0.511l8.22-1.239l1.591-0.24
		l3.13-0.471l3.27-0.489c0.93-0.141,1.851-0.28,2.76-0.41c21.11-3.13,35.73-5.19,37.17-5.12c2.891,0.13,34.33,4.53,68.25,10.46
		h0.021c21.31,3.72,43.6,8.05,60.4,12.29c9.14,2.31,16.659,4.6,21.52,6.75c0.15,0.07,0.31,0.21,0.48,0.43
		C669.95,299.33,675.46,329.4,674.75,330.67z"/>
	<path opacity="0.2" fill="#003744" d="M674.75,330.67C674,332,455.23,425.2,455.1,423.33c0,0-1.85-41.33-4.27-45.65
		c-1.59-2.85-151.97-61.739-162.72-65.939l-0.39-0.74c0.73-1.61,3.14-6.76,5.33-9.54l0.13-0.15c0,0,23.49,16.19,48.15,27
		c24.67,10.811,109,40.521,113.77,42.521c4.761,2,19.9,1.84,60.5-11.66c40.61-13.51,150.65-64.42,150.65-64.42l0.48,0.43
		C669.95,299.33,675.46,329.4,674.75,330.67z"/>
	<path opacity="0.2" fill="#003744" d="M328.24,293.91c0,0,157.76,60.59,161.093,67.757c3.334,7.166,6.877,45.363,6.877,45.363
		l88.308-37.226c0,0-6.26-26.834-15.973-31.486C558.833,333.667,328.24,293.91,328.24,293.91z"/>
	<path fill="#4E91A8" d="M575.08,349.72c-0.35,8.851-2.13,17.36-2.46,17.94c-0.62,1.09-71.83,27.29-74.45,26.41
		c-2.63-0.87-4.9-27.011-5.53-34.29C492,352.5,328.24,293.91,328.24,293.91s0.07-1.8,1.88-3.61c0.43-0.439,0.97-0.88,1.63-1.3
		c3.4-2.14,71.25-11.77,76.25-11.01S562.33,324,570.67,330.67C574.58,333.79,575.39,341.89,575.08,349.72z"/>
	<path opacity="0.3" fill="#003744" d="M575.08,349.72c-0.35,8.851-2.13,17.36-2.46,17.94c-0.62,1.09-71.83,27.29-74.45,26.41
		c-2.63-0.87-4.9-27.011-5.53-34.29C492,352.5,328.24,293.91,328.24,293.91s0.07-1.8,1.88-3.61l1.63-1.3c0,0,159.25,60,168.25,69
		C508.02,366.02,563.21,352.7,575.08,349.72z"/>
	<path fill="#FFFFFF" d="M586.25,362.61c-2.25,1.89-15.35,5.89-15.35,5.89s0.35-25.46-4.15-32.48
		c-3.07-4.789-84.9-29.22-136.56-44.26c-0.04-0.01-0.07-0.02-0.101-0.02l-0.01-0.01c-24-6.98-41.46-11.931-41.46-11.931
		s21.88-6.93,26.05-7.28c3.17-0.27,96.49,27.03,143.49,41.95c14.75,4.69,24.939,8.15,26.34,9.17
		C590.38,327.9,588.5,360.73,586.25,362.61z"/>
	<path opacity="0.2" fill="#590800" d="M430.08,291.73c0,0,0.04,0.01,0.11,0.029c-0.04-0.01-0.07-0.02-0.101-0.02L430.08,291.73z"/>
	<path opacity="0.3" fill="#003744" d="M586.25,362.61c-2.25,1.89-15.35,5.89-15.35,5.89s0.35-25.46-4.15-32.48
		c-3.07-4.789-84.9-29.22-136.56-44.26c3,0.83,67.229,18.57,88.02,21.74c21.29,3.25,39.95,0.97,39.95,0.97
		c14.75,4.69,24.939,8.15,26.34,9.17C590.38,327.9,588.5,360.73,586.25,362.61z"/>
	<path opacity="0.2" fill="#003744" d="M666.25,294.75l-28.06,12.81c0,0-64.69-7.56-78.29-11.75
		c-13.601-4.189-84.7-23.55-84.7-23.55l3.689-1.89c21.11-3.13,35.73-5.19,37.17-5.12C521.76,265.51,638.19,282.33,666.25,294.75z"/>
	<polygon opacity="0.2" fill="#A82329" points="580.508,220.007 592.994,228.854 634.25,230.669 639.898,223.701 671.95,294.75 
		660.598,292.578 638.159,286.404 556.308,238.1 	"/>
	<defs>
		<filter id="Adobe_OpacityMaskFilter_4_" filterUnits="userSpaceOnUse" x="280.462" y="311.5" width="68.036" height="81.716">
			<feFlood  style="flood-color:white;flood-opacity:1" result="back"/>
			<feBlend  in="SourceGraphic" in2="back" mode="normal"/>
		</filter>
	</defs>
	<mask maskUnits="userSpaceOnUse" x="280.462" y="311.5" width="68.036" height="81.716" id="SVGID_7_">
		<g filter="url(#Adobe_OpacityMaskFilter_4_)">
			<defs>
				<filter id="Adobe_OpacityMaskFilter_5_" filterUnits="userSpaceOnUse" x="280.462" y="311.5" width="68.036" height="81.716">
					<feFlood  style="flood-color:white;flood-opacity:1" result="back"/>
					<feBlend  in="SourceGraphic" in2="back" mode="normal"/>
				</filter>
			</defs>
			<mask maskUnits="userSpaceOnUse" x="280.462" y="311.5" width="68.036" height="81.716" id="SVGID_7_">
				<g filter="url(#Adobe_OpacityMaskFilter_5_)">
				</g>
			</mask>
			<linearGradient id="SVGID_8_" gradientUnits="userSpaceOnUse" x1="285.9463" y1="310.3623" x2="345.6719" y2="392.5676">
				<stop  offset="0" style="stop-color:#FFFFFF"/>
				<stop  offset="1" style="stop-color:#000000"/>
			</linearGradient>
			<polygon mask="url(#SVGID_7_)" fill="url(#SVGID_8_)" points="287.5,311.5 283.374,312.231 287.697,342.881 280.462,344.696 
				282.507,359.29 344.78,393.216 340.75,372.625 348.498,368.5 342.241,334.183 			"/>
		</g>
	</mask>
	<linearGradient id="SVGID_9_" gradientUnits="userSpaceOnUse" x1="285.9463" y1="310.3623" x2="345.6719" y2="392.5676">
		<stop  offset="0" style="stop-color:#FFFFFF"/>
		<stop  offset="1" style="stop-color:#000000"/>
	</linearGradient>
	<polygon opacity="0.61" fill="url(#SVGID_9_)" points="287.5,311.5 283.374,312.231 287.697,342.881 280.462,344.696 
		282.507,359.29 344.78,393.216 340.75,372.625 348.498,368.5 342.241,334.183 	"/>
	<path opacity="0.3" fill="#0082BC" d="M656.465,291.49v47.479l0,0c0,0-16.734,7.381-38.185,16.401c-0.19,0.08-0.38,0.16-0.57,0.24
		C572.6,374.59,498.39,405.8,468.3,418.44c-0.05,0.02-0.109,0.05-0.17,0.069c-8.189,3.29-13.01,5.101-13.03,4.82
		c0,0-0.01-0.21-0.029-0.6c0-0.07,0-0.131-0.011-0.2c0-0.17-0.01-0.37-0.02-0.58c0-0.13-0.01-0.26-0.021-0.4
		c-0.01-0.18-0.01-0.37-0.029-0.569c-0.021-0.461-0.05-0.95-0.08-1.49c-0.01-0.181-0.021-0.36-0.03-0.54
		c-0.51-9.96-1.89-33.86-3.63-40.11c-0.02-0.08-0.03-0.13-0.04-0.16c-0.12-0.43-0.25-0.77-0.38-1c-0.14-0.26-1.51-0.97-3.88-2.069
		c-0.01-0.011-0.021-0.011-0.03-0.011c-5.11-2.71-14.05-6.359-23.02-9.8c-13.881-5.319-27.59-11.21-27.59-11.21s-0.15,0.65,0,0
		c0.39-1.71,1.18-4.88,1.81-5.439c0.88-0.771,46.09-11.881,46.09-11.881s0.62-4.869,2.79-4.989c2.17-0.11,79.89-35.94,79.89-35.94
		l-71.79-22.39l1.431-0.22l3.39-0.511l8.22-1.239l1.591-0.24l3.13-0.471l3.27-0.489l108.18,4.93h0.021l22.47,1.021L644.73,288
		L656.465,291.49z"/>
	<g>
		<path fill="#FFFFFF" d="M578.503,276.808c-2.441,6.868-17.588,8.127-23.997,6.858c-0.478-0.096-0.906-0.2-1.278-0.324
			c-1.612-0.525-4.894-1.183-9.224-1.908l-2.136-0.353c-3.453-0.554-7.431-1.154-11.685-1.765c-1.373-0.2-2.766-0.4-4.188-0.601
			c-3.729-0.534-7.602-1.068-11.464-1.603c-0.706-0.096-1.422-0.2-2.137-0.306c-3.901-0.534-7.764-1.077-11.427-1.593
			c-1.23-0.181-2.432-0.353-3.605-0.515c-3.624-0.534-6.981-1.04-9.9-1.507l-0.152-0.029c-5.465-0.877-9.366-1.64-10.577-2.193
			c-1.221-0.553-0.478-1.211,1.325-2.213c2.261-1.259,6.19-3.052,10.072-5.847c6.991-5.026,14.192-49.426,16.329-50.255
			c2.117-0.82,6.114,2.947,9.5,4.225c0.057,0.02,0.104,0.038,0.162,0.058c0.238,0.085,0.687,0.19,1.325,0.295
			c1.927,0.353,5.542,0.839,10.016,1.354c0.467,0.057,0.943,0.114,1.431,0.162c1.879,0.219,3.882,0.439,5.961,0.648
			c0.01,0,0.01,0,0.01,0c0.62,0.077,1.239,0.134,1.879,0.201c0.009,0,0.009,0,0.009,0c2.07,0.219,4.188,0.429,6.305,0.629
			c0.496,0.047,0.992,0.095,1.488,0.143c3.758,0.353,7.487,0.687,10.911,0.954c0.01,0,0.01,0,0.01,0l1.402,0.115
			c2.632,0.2,5.045,0.362,7.105,0.486h0.01c0.467,0.019,0.915,0.038,1.345,0.057c1.221,0.057,2.279,0.095,3.147,0.095
			c1.145,0.019,1.946-0.019,2.299-0.114c3.529-0.963,8.898-4.063,11.397-2.508C582.671,221.001,581.126,269.436,578.503,276.808z"/>
		<path fill="#4E91A8" d="M515.447,217.234c-1.583,0.925-3.538,2.432-5.064,4.731c-3.1,4.684-11.359,38.533-14.86,43.149
			c-3.5,4.607-8.06,8.079-8.06,8.079l-0.152-0.029l-1.783-0.391c0,0,1.059-2.976,6.915-7.659
			c5.865-4.692,12.694-39.983,16.195-43.951c1.707-1.936,3.71-3.348,5.322-4.283c0.057,0.02,0.104,0.038,0.162,0.058
			C514.36,217.024,514.809,217.129,515.447,217.234z"/>
		<path fill="#4E91A8" d="M526.894,218.75c-2.509,1.354-6.811,3.949-8.556,6.658c-2.547,3.939-8.861,36.606-11.608,41.614
			c-1.773,3.233-4.244,6.371-5.761,8.192c-1.23-0.181-2.432-0.353-3.605-0.515l-0.009-0.01c0,0,3.968-3.376,7.306-8.784
			c3.338-5.398,7.755-37.942,13.678-42.377c3.452-2.584,5.779-4.111,7.125-4.94C525.93,218.646,526.406,218.703,526.894,218.75z"/>
		<path fill="#4E91A8" d="M534.743,219.6c-1.994,1.393-5.37,4.216-6.915,8.193c-2.261,5.847-5.838,27.068-7.745,35.767
			c-1.383,6.295-4.13,11.283-5.551,13.554c-0.706-0.096-1.422-0.2-2.137-0.306c0.734-1.269,4.616-8.298,7.097-19.801
			c2.737-12.752,4.645-27.783,7.982-32.19c2.099-2.766,4.149-4.502,5.38-5.418c0.01,0,0.01,0,0.01,0
			C533.484,219.476,534.104,219.533,534.743,219.6z"/>
		<path fill="#4E91A8" d="M542.545,220.372c-1.354,1.221-3.3,3.252-4.178,5.561c-1.431,3.729-4.616,29.091-6.199,39.582
			c-1.116,7.325-1.717,11.779-1.984,13.802c-1.373-0.2-2.766-0.4-4.188-0.601c1.556-4.922,5.666-18.466,7.201-28.624
			c1.908-12.638,2.146-21.46,4.054-24.722c1.212-2.06,2.795-3.996,3.806-5.141C541.553,220.276,542.049,220.324,542.545,220.372z"/>
		<path fill="#4E91A8" d="M553.468,221.33c0,0-6.32,3.964-8.109,9.449c-1.788,5.483,1.431,28.256,0,37.078
			c-1.431,8.823-3.494,13.226-3.494,13.226l2.144,0.353c0,0,2.96-6.186,3.259-15.783c0.298-9.598-2.563-30.343-0.358-34.754
			c2.206-4.412,7.959-9.458,7.959-9.458L553.468,221.33z"/>
		<path fill="#4E91A8" d="M563.328,221.984c-1.011,2.938-5.036,14.917-5.723,21.508c-0.61,5.923-2.805,36.168-3.1,40.174
			c-0.478-0.096-0.906-0.2-1.278-0.324c0,0,1.669-21.013,2.671-36.044c0.982-14.736,5.885-24.961,6.075-25.371h0.01
			C562.45,221.946,562.898,221.965,563.328,221.984z"/>
		<path opacity="0.2" fill="#004FFF" d="M578.503,276.808c-2.441,6.868-17.588,8.127-23.997,6.858
			c-0.478-0.096-0.906-0.2-1.278-0.324c-1.612-0.525-4.894-1.183-9.224-1.908l-2.136-0.353c-3.453-0.554-7.431-1.154-11.685-1.765
			c-1.373-0.2-2.766-0.4-4.188-0.601c-3.729-0.534-7.602-1.068-11.464-1.603c-0.706-0.096-1.422-0.2-2.137-0.306
			c-3.901-0.534-7.764-1.077-11.427-1.593c-1.23-0.181-2.432-0.353-3.605-0.515c-3.624-0.534-6.981-1.04-9.9-1.507l-0.152-0.029
			c-5.465-0.877-9.366-1.64-10.577-2.193c-1.221-0.553-0.478-1.211,1.325-2.213c0,0,50.294,6.772,62.846,1.841
			c12.562-4.931,11.073-29.405,13.964-36.721c1.803-4.56,7.535-9.052,11.607-11.799c1.145,0.019,1.946-0.019,2.299-0.114
			c3.529-0.963,8.898-4.063,11.397-2.508C582.671,221.001,581.126,269.436,578.503,276.808z"/>
	</g>
	<g>
		<path fill="#00A1CC" d="M638.067,282.96c0.506,5.475,1.755,9.776-1.145,10.291c-4.054,0.716-30.569-4.148-45.925-3.386
			c-15.356,0.764-32.716-0.667-35.1-2.098c-1.326-0.792-1.212-1.794-0.554-3.119c0.648-1.307,1.822-2.938,2.671-4.998
			c0.238-0.554,0.438-1.135,0.601-1.755c0.105-0.354,0.182-0.716,0.248-1.088c0.286-1.64,0.506-6.018,0.734-11.54
			c0.028-0.602,0.058-1.212,0.076-1.841c0.114-2.729,0.229-5.676,0.354-8.671c0.028-0.687,0.057-1.383,0.086-2.079
			c0.124-2.899,0.257-5.809,0.41-8.564c0.038-0.754,0.076-1.498,0.124-2.223v-0.02c0.19-3.214,0.409-6.171,0.677-8.603
			c0.038-0.448,0.096-0.878,0.143-1.288c0.354-2.928,0.782-4.883,1.298-5.255c2.623-1.908,6.199,1.593,9.299,3.023
			c3.101,1.431,46.794,0.553,53.661-1.593c6.867-2.146,11.989-4.846,13.896-4.607c0.104,0.01,0.2,0.067,0.276,0.153
			c1.002,1.145-0.734,8.441-1.479,12.819v0.02c-0.181,1.087-0.305,2.003-0.305,2.585v0.095c0.01,0.772,0.066,2.613,0.143,5.084
			c0.02,0.486,0.039,1.002,0.048,1.535c0.114,3.435,0.238,7.773,0.296,12.151c0.02,0.782,0.028,1.574,0.028,2.356
			c0.029,3.31,0.02,6.562-0.066,9.395c-0.02,0.62-0.038,1.212-0.066,1.784c-0.086,1.793-0.21,3.338-0.382,4.54
			c-0.238,1.697-0.268,3.386-0.19,4.997C637.953,281.711,638.001,282.34,638.067,282.96z"/>
		<path fill="#FFFFFF" d="M638.42,236.52v0.02c-0.181,1.087-0.305,2.003-0.305,2.585v0.095c-3.215-0.152-31.322-1.497-48.996-2.957
			c-15.232-1.249-24.742-2.546-27.794-2.994c0.038-0.448,0.096-0.878,0.143-1.288c0,0,15.547,2.194,39.802,3.92
			C625.534,237.636,638.42,236.52,638.42,236.52z"/>
		<path fill="#FFFFFF" d="M638.306,245.838c-5.265,0.658-23.005,2.681-39.296,2.413c-18.065-0.286-36.102-3.682-38.485-4.139
			c0.038-0.754,0.076-1.498,0.124-2.223v-0.02c0,0,16.109,4.092,39.63,4.407c19.161,0.257,33.373-1.364,37.979-1.975
			C638.277,244.789,638.297,245.305,638.306,245.838z"/>
		<path fill="#FFFFFF" d="M638.63,260.346c-5.779,0.172-22.729,0.534-41.767-0.554c-19.639-1.135-32.963-4.092-36.835-5.036
			c0.028-0.687,0.057-1.383,0.086-2.079c3.128,1.479,12.933,4.874,37.779,5.752c23.015,0.811,35.52,0.048,40.708-0.439
			C638.621,258.771,638.63,259.563,638.63,260.346z"/>
		<path fill="#FFFFFF" d="M638.563,269.74c-0.02,0.62-0.038,1.212-0.066,1.784c-5.704,0.267-21.737,0.772-40.966-1.002
			c-20.974-1.945-34.718-4.598-37.933-5.255c0.028-0.602,0.058-1.212,0.076-1.841c3.673,0.839,14.994,3.108,38.381,5.379
			C619.717,270.913,633.031,270.236,638.563,269.74z"/>
		<path fill="#FFFFFF" d="M638.067,282.96c-4.12,0.534-22.948,2.68-45.734,1.145c-20.669-1.393-31.008-3.624-34.317-4.454
			c0.238-0.554,0.438-1.135,0.601-1.755c4.816,1.039,25.81,5.293,43.97,4.94c18.494-0.353,32.582-1.535,35.339-1.774
			C637.953,281.711,638.001,282.34,638.067,282.96z"/>
		<path opacity="0.2" fill="#004FFF" d="M638.067,282.96c0.506,5.475,1.755,9.776-1.145,10.291
			c-4.054,0.716-30.569-4.148-45.925-3.386c-15.356,0.764-32.716-0.667-35.1-2.098c-1.326-0.792-1.212-1.794-0.554-3.119
			c0,0,48.99,0,62.145-8.585c11.821-7.715,6.338-34.45,8.989-40.469c2.395-5.418,11.627-10.874,13.42-11.894
			c1.002,1.145-0.734,8.441-1.479,12.819v0.02c-0.181,1.087-0.305,2.003-0.305,2.585v0.095c0.01,0.772,0.066,2.613,0.143,5.084
			c0.02,0.486,0.039,1.002,0.048,1.535c0.114,3.435,0.238,7.773,0.296,12.151c0.02,0.782,0.028,1.574,0.028,2.356
			c0.029,3.31,0.02,6.562-0.066,9.395c-0.02,0.62-0.038,1.212-0.066,1.784c-0.086,1.793-0.21,3.338-0.382,4.54
			c-0.238,1.697-0.268,3.386-0.19,4.997C637.953,281.711,638.001,282.34,638.067,282.96z"/>
	</g>
	<path opacity="0.32" fill="#770300" d="M396.513,354.677c0,0-6.182,1.504-7.893,2.264s-2.12,27.56-2.12,27.56l-14.5,3.625
		l-1.308,19.208l66.386,36.167l199.152-87.818l8.266-11.379L455.1,423.33c0,0-1.606-42.97-4.27-45.65
		C448.167,375,396.513,354.677,396.513,354.677z"/>
</g>
<g>
	<polygon fill="#BDFFE7" points="372.54,243.477 376.886,122.365 171.925,105.923 174.426,269.066 	"/>
	<polygon fill="#FD9533" points="381.78,118.834 391,118.834 381.893,247.084 377.288,246.511 	"/>
	<path fill="#FFFFFF" d="M160.5,95l6.801,182.513l219.485-27.679L398.333,114L160.5,95z M381.893,247.084L172.51,273.489
		L169.925,101.5L391,118.834L381.893,247.084z"/>
	<polygon fill="#B9EDDA" points="160.5,95 169.925,99.5 392,117.667 398.333,114 392.875,118.834 384.144,248.667 381.893,247.084 
		391,118.834 169.925,101.5 	"/>
	<path fill="#D6C822" d="M174.147,249.493c0,0,73.259-18.608,118.103-24.82c56.248-7.792,81.183-6.084,81.183-6.084l-0.893,24.888
		l-198.114,25.59L174.147,249.493z"/>
	<path fill="#FFFFFF" d="M218.83,155.887c2.373-0.593,3.164-1.187,3.164-1.187s9.888,1.802,13.941,1.148
		c4.054-0.653,6.724-3.521,6.724-3.521s3.065,1.9,6.13,2.334c3.065,0.434,4.351-1.247,4.351-1.247s10.679,2.494,15.82,1.247
		c5.142-1.247,5.241-3.323,5.241-3.323s5.092,2.076,11.469,3.263s8.899-1.335,8.899-1.335s8.528,2.486,13.57,3.337
		c5.042,0.851,6.6,0.393,6.6,0.393l25.361,0.572c0,0-0.297-1.187-6.823-2.966c-6.525-1.78-18.242,1.038-18.242,1.038
		s1.438-6.328-2.863-7.168c-4.301-0.84-12.265,3.362-12.265,3.362s8.683-10.629-1.106-12.854s-19.361,8.058-19.361,8.058
		s6.346-11.208-3.215-12.804c-8.294-1.384-11.022,10.456-11.022,10.456s-1.187-10.555-9.195-10.11
		c-8.009,0.445-5.636,15.276-5.636,15.276s-9.358-6.333-17.698-5.443c-7.104,0.758-7.515,9.003-7.515,9.003
		s-7.38-5.126-15.834-4.978c-8.454,0.148-10.417,8.538-10.417,8.538l5.19,0.021C204.101,156.997,216.457,156.48,218.83,155.887z"/>
	<path opacity="0.36" fill="#E7D39C" d="M308.138,156.604c-5.042-0.851-13.57-3.337-13.57-3.337s-2.521,2.521-8.899,1.335
		s-11.469-3.263-11.469-3.263s-0.099,2.076-5.241,3.323c-5.141,1.247-15.82-1.247-15.82-1.247s-1.285,1.681-4.351,1.247
		c-3.065-0.434-6.13-2.334-6.13-2.334s-2.669,2.867-6.724,3.521c-4.054,0.654-13.941-1.148-13.941-1.148s-0.791,0.593-3.164,1.187
		c-2.373,0.593-14.729,1.109-14.733,1.109l136.003,0.572l-25.361-0.572C314.738,156.997,313.181,157.455,308.138,156.604z"/>
	<path fill="#FFFFFF" d="M249.002,178.068c1.473-0.369,1.964-0.737,1.964-0.737s6.139,1.119,8.655,0.713
		c2.517-0.406,4.174-2.186,4.174-2.186s1.903,1.18,3.806,1.449c1.903,0.27,2.701-0.774,2.701-0.774s6.629,1.548,9.822,0.774
		c3.192-0.774,3.253-2.063,3.253-2.063s3.161,1.289,7.121,2.025c3.959,0.737,5.524-0.829,5.524-0.829s5.295,1.543,8.425,2.072
		s4.098,0.244,4.098,0.244l15.745,0.355c0,0-0.184-0.737-4.236-1.842c-4.051-1.104-11.325,0.645-11.325,0.645
		s0.893-3.928-1.778-4.45c-2.67-0.522-7.614,2.087-7.614,2.087s5.391-6.599-0.687-7.98c-6.077-1.381-12.02,5.003-12.02,5.003
		s3.94-6.958-1.997-7.949c-5.149-0.859-6.843,6.491-6.843,6.491s-0.736-6.553-5.708-6.276c-4.972,0.276-3.499,9.484-3.499,9.484
		s-5.811-3.932-10.988-3.379c-4.41,0.471-4.666,5.589-4.666,5.589s-4.582-3.183-9.831-3.091c-5.249,0.092-6.467,5.3-6.467,5.3
		l3.222,0.014C239.858,178.757,247.529,178.437,249.002,178.068z"/>
	<path opacity="0.36" fill="#E7D39C" d="M304.449,178.513c-3.13-0.528-8.425-2.072-8.425-2.072s-1.565,1.565-5.524,0.829
		c-3.959-0.736-7.121-2.025-7.121-2.025s-0.062,1.289-3.253,2.063c-3.192,0.774-9.822-0.774-9.822-0.774s-0.798,1.043-2.701,0.774
		c-1.903-0.27-3.806-1.449-3.806-1.449s-1.657,1.78-4.174,2.186c-2.517,0.406-8.655-0.713-8.655-0.713s-0.491,0.368-1.964,0.737
		c-1.473,0.368-9.144,0.688-9.147,0.688l84.436,0.355l-15.745-0.355C308.546,178.757,307.579,179.042,304.449,178.513z"/>
	<path fill="#9BAE05" d="M174.339,262.944c0,0,76.495-6.111,134.495-17.944s64.333-18.667,64.333-18.667l-0.626,17.144
		l-198.114,25.59L174.339,262.944z"/>
	<path fill="#D6C822" d="M324.667,221.25c0,0-10.583-3.417-9.333-5.25s3.833-1.583,3.833-1.583s-7.167-8.25-4.833-10.333
		c2.333-2.083,5.167,1.333,5.167,1.333s-3-8.833-0.083-9.833c2.917-1,6.917,3,6.917,3s-1.167-7.667,1.333-8.333
		s4.75,5.833,4.75,5.833s3.667-7,7.083-6.583s3.833,9,3.833,9s6.75-3.417,10.083-1.583c3.333,1.833-1.583,6.583-1.583,6.583
		s5.167-1.417,7.917-0.5s-1,6.75-1,6.75s4.5-0.667,6.917,0.333c2.417,1,2.25,4.417,2.25,4.417s0.25-1.833,2-2.167
		c1.75-0.333,3.517,6.255,3.517,6.255L324.667,221.25z"/>
	<path fill="#D6C822" d="M207.858,245.114c0,0,6.903-7.729,4.528-8.363c-2.375-0.634-4.649,3.305-4.649,3.305
		s4.568-10.575,2.783-11.106c-1.786-0.531-5.455,7.726-5.455,7.726s-3.633-6.903-5.747-5.663s2.49,7.433,2.49,7.433
		s-8.066-2.246-8.735-1.069c-0.669,1.178,8.884,7.006,8.884,7.006L207.858,245.114z"/>
	<polygon opacity="0.5" fill="#FFFFFF" points="326.971,118.36 173.393,201.666 173.837,230.669 356.025,120.691 	"/>
	<polygon opacity="0.5" fill="#FFFFFF" points="371.287,121.916 174.021,242.677 174.231,256.351 376.672,128.333 376.886,122.365 	
		"/>
	<polygon opacity="0.5" fill="#FFFFFF" points="379.02,197.38 378.63,208.36 373.69,211.49 310.41,251.51 302.79,256.33 
		277.23,259.69 285.31,254.75 374.09,200.4 	"/>
	<path fill="#443551" d="M377.288,158.875V157h-39.391L339,118.834l-2.5-1.084L335.75,157h-51.277l-1.255-42.74h-4.198l1.912,42.74
		H227v-47.192h-3.321L223.572,157H172.51v3.5l51.055-0.405l-0.125,55.228l-50.93,3.177v2.125l50.926-3.372l-0.103,45.496
		l3.667,0.195v-45.928l56.449-3.738l1.967,43.971h2l-1.296-44.148l48.621-3.22L334,248.667h1.25l1.124-38.893l40.001-2.649
		l0.511-1.375l-40.47,2.525l1.418-49.087L377.288,158.875z M227,215.101v-55.033l54.05-0.429l2.324,51.945L227,215.101z
		 M334.77,208.377l-48.699,3.038l-1.521-51.805l51.159-0.406L334.77,208.377z"/>
	<path fill="#443551" d="M169.92,101.5l2.59,171.99l104.72-13.8l25.56-3.36l74.5-9.82l1.34-38.15l0.39-10.98l2.76-78.55
		L169.92,101.5z M373.69,211.49l-1.15,31.99l-62.13,8.029l-25.1,3.24l-110.88,14.32l-2.51-163.15l204.97,16.44l-2.8,78.04
		L373.69,211.49z"/>
</g>
<g>
	<g>
		<polygon fill="#FFF9BD" points="800,43.333 456.511,97.001 0,42 0,0 800,0 		"/>
		<polygon fill="#E3784E" points="767.556,0 449.517,78 33.721,0 		"/>
		<polygon fill="#F4E67D" points="732,0 449.517,72.5 449.517,78 767.556,0 		"/>
		<polygon fill="#F2CE7E" points="449.517,78 449.517,72.5 73.333,0 33.721,0 		"/>
		<polygon opacity="0.2" fill="#590800" points="689.333,0 440.444,68.667 96.68,0 78.652,0 449.517,72.5 732,0 		"/>
		<path opacity="0.08" fill="#CE0000" d="M565.667,0c0,0-12,17-42.667,36.25c-37.357,23.45-94.092,32.221-94.092,32.221l3.284,6.279
			l-18.586,17.083l42.904,5.169L800,43.333V0H565.667z"/>
	</g>
	<defs>
		<filter id="Adobe_OpacityMaskFilter_6_" filterUnits="userSpaceOnUse" x="137.864" y="19.537" width="258.379" height="69.285">
			<feFlood  style="flood-color:white;flood-opacity:1" result="back"/>
			<feBlend  in="SourceGraphic" in2="back" mode="normal"/>
		</filter>
	</defs>
	<mask maskUnits="userSpaceOnUse" x="137.864" y="19.537" width="258.379" height="69.285" id="SVGID_10_">
		<g filter="url(#Adobe_OpacityMaskFilter_6_)">
			<defs>
				<filter id="Adobe_OpacityMaskFilter_7_" filterUnits="userSpaceOnUse" x="137.864" y="19.537" width="258.379" height="69.285">
					<feFlood  style="flood-color:white;flood-opacity:1" result="back"/>
					<feBlend  in="SourceGraphic" in2="back" mode="normal"/>
				</filter>
			</defs>
			<mask maskUnits="userSpaceOnUse" x="137.864" y="19.537" width="258.379" height="69.285" id="SVGID_10_">
				<g filter="url(#Adobe_OpacityMaskFilter_7_)">
				</g>
			</mask>
			<linearGradient id="SVGID_11_" gradientUnits="userSpaceOnUse" x1="206.0918" y1="-30.0332" x2="325.6728" y2="134.5559">
				<stop  offset="0.2129" style="stop-color:#000000"/>
				<stop  offset="1" style="stop-color:#FFFFFF"/>
			</linearGradient>
			<polygon mask="url(#SVGID_10_)" fill="url(#SVGID_11_)" points="152.89,60.42 137.864,19.537 396.243,68.006 388.62,88.822 			
				"/>
		</g>
	</mask>
	<linearGradient id="SVGID_12_" gradientUnits="userSpaceOnUse" x1="206.0918" y1="-30.0332" x2="325.6728" y2="134.5559">
		<stop  offset="0.2129" style="stop-color:#000000"/>
		<stop  offset="1" style="stop-color:#FFFFFF"/>
	</linearGradient>
	<polygon fill="url(#SVGID_12_)" points="152.89,60.42 137.864,19.537 396.243,68.006 388.62,88.822 	"/>
</g>
<g>
	<g>
		<polygon fill="#9B5729" points="656.483,275.722 656.465,357 712.404,371.629 714.738,283.184 		"/>
		<polygon fill="#7C441D" points="659.347,278.541 659.328,353.475 709.54,366.605 709.54,285.362 		"/>
		<polygon fill="#BC7442" points="659.328,315.215 701.667,312.633 709.54,312.633 709.54,324.633 		"/>
		<polygon fill="#7C441D" points="764.732,278.684 689.422,273.518 656.483,275.722 714.738,283.184 712.404,371.629 758.833,356.5 
					"/>
		<polygon fill="#5B1800" points="714.738,283.184 764.732,278.684 758.833,356.5 712.404,371.629 		"/>
		<polygon fill="#9B5729" points="709.54,324.633 657.5,314.872 657.5,316.597 709.54,330.597 		"/>
		<polygon fill="#BC7442" points="659.328,353.475 701.667,350.42 709.54,351.27 709.54,366.605 		"/>
		<polygon opacity="0.24" fill="#590800" points="659.347,278.541 702.799,296.475 703.841,312.633 709.54,312.633 709.54,285.362 
					"/>
		<polygon opacity="0.24" fill="#590800" points="659.926,317.249 709.54,330.597 709.54,351.27 701.667,350.42 700.409,335.11 		
			"/>
		<polygon fill="#590800" points="757.579,356.909 756.734,361.997 750.833,363.75 749.75,361.083 715.808,372.979 713.472,375.844 
			708.088,375.844 706.158,371.629 664.396,362.409 662.122,364.698 658.008,363.669 657.5,357.271 712.404,371.629 		"/>
	</g>
	<g>
		<path fill="#FFFDF0" d="M726.307,249.179l-6.93,30.3c0,0-7.082,1.021-14.074,0.202l-0.088-0.02
			c-1.212-0.142-2.419-0.333-3.586-0.61l-0.01-0.001c-0.784-0.186-1.556-0.4-2.293-0.651l-2.96-29.813l23.246,0.461
			c0.01,0.001,0.01,0.001,0.01,0.001L726.307,249.179z"/>
		<path opacity="0.1" fill="#440200" d="M719.612,249.046c-0.329,0.155-7.315,3.451-11.09,10.334
			c-3.873,7.043-3.22,20.301-3.22,20.301l-0.088-0.02l-3.586-0.61l-0.01-0.001c-0.784-0.186-1.556-0.4-2.293-0.651l-2.96-29.813
			L719.612,249.046z"/>
		<path fill="#7C441D" d="M696.403,248.962c0,0,5.782,1.777,15.317,1.964c8.374,0.163,14.453-1.168,14.453-1.168L696.403,248.962z"
			/>
		<path fill="#668D12" d="M723.816,249.608l2.834-19.045l-3.441,8.931l0.921-14.862l-2.003,10.155l0.345-8.198l-4.736,12.751
			l1.011-9.32l-4.655,12.006v-18.483l-2.77,12.524l-1.476-11.309l-1.971,16.029l-2.516-20.456l-1.006,16.802l-5.064-14.757
			l2.422,23.46l-5.964-13.975l2.877,17.16c0,0,5.893,1.181,12.549,1.362C717.83,250.566,723.816,249.608,723.816,249.608z"/>
		<polygon fill="#9BAE05" points="700.496,249.128 695.287,220.652 703.421,249.968 		"/>
		<polygon fill="#9BAE05" points="705.338,250.033 708.471,225.069 707.487,250.346 		"/>
		<polygon fill="#9BAE05" points="699.708,249.319 694.565,234.248 698.411,249.179 		"/>
		<polygon fill="#9BAE05" points="710.062,250.443 718.71,225.72 713.491,250.636 		"/>
		<polygon fill="#9BAE05" points="717.28,250.293 726.249,226.538 721.802,249.962 		"/>
		<polygon fill="#9BAE05" points="722.55,249.806 726.277,234.002 724.145,249.785 		"/>
		<polygon fill="#9BAE05" points="714.417,250.426 721.276,225.244 717.26,250.417 		"/>
	</g>
</g>
</svg>
