<?xml version="1.0" encoding="utf-8"?>
<!-- Generator: Adobe Illustrator 23.0.3, SVG Export Plug-In . SVG Version: 6.00 Build 0)  -->
<svg version="1.1" id="Layer_1" xmlns="http://www.w3.org/2000/svg" xmlns:xlink="http://www.w3.org/1999/xlink" x="0px" y="0px"
	 viewBox="0 0 269.7 236.7" style="enable-background:new 0 0 269.7 236.7;" xml:space="preserve">
<style type="text/css">
	.st0{fill:#02B2C0;}
	.st1{fill:none;stroke:#1783A1;stroke-width:10;stroke-linecap:round;stroke-linejoin:round;}
	.st2{fill:#FFFFFF;fill-opacity:0.5765;}
	.st3{fill:#04B2C0;}
	.st4{fill:none;stroke:#0E5F8B;stroke-width:8;stroke-linecap:round;stroke-linejoin:round;}
	.st5{fill:#EFFBFF;}
</style>
<g>
	<g transform="matrix( 0.9999847412109375, 0, 0, 0.9999847412109375, 960.25,540.4) ">
		<g>
			<g transform="matrix( 1, 0, 0, 1, 0,0) ">
				<g>
					<g>
						<path class="st0" d="M-701.9-529.1c-4.2-4.2-9.3-6.3-15.2-6.3h-216.7c-5.9,0-11,2.1-15.2,6.3c-4.2,4.2-6.3,9.2-6.3,15.1v183.7
							c0,5.9,2.1,10.9,6.3,15.1c4.2,4.2,9.3,6.3,15.2,6.3h216.7c5.9,0,11-2.1,15.2-6.3c4.2-4.2,6.3-9.2,6.3-15.1V-514
							C-695.6-519.9-697.7-524.9-701.9-529.1z"/>
					</g>
				</g>
				<g>
					<path class="st1" d="M-933.8-535.4h216.7c5.9,0,11,2.1,15.2,6.3c4.2,4.2,6.3,9.2,6.3,15.1v183.7c0,5.9-2.1,10.9-6.3,15.1
						c-4.2,4.2-9.3,6.3-15.2,6.3h-216.7c-5.9,0-11-2.1-15.2-6.3c-4.2-4.2-6.3-9.2-6.3-15.1V-514c0-5.9,2.1-11,6.3-15.1
						C-944.8-533.3-939.7-535.4-933.8-535.4z"/>
				</g>
			</g>
			<g transform="matrix( 0.70855712890625, 0, 0, 0.70855712890625, -447.35,-313.95) ">
				<g>
					<g>
						<path class="st2" d="M-439.2-56c27-26.9,40.5-59.5,40.5-97.6c0-38.1-13.5-70.7-40.5-97.6c-26.9-26.9-59.5-40.4-97.5-40.4
							c-38.1,0-70.7,13.5-97.7,40.4c-26.9,27-40.4,59.5-40.4,97.6c0,38.1,13.5,70.6,40.4,97.6c27,27,59.5,40.5,97.7,40.5
							C-498.7-15.5-466.2-29-439.2-56z"/>
					</g>
				</g>
			</g>
			<g transform="matrix( 0.8519744873046875, 0, 0, 0.8519744873046875, -989.45,-224.8) ">
				<g>
					<g>
						<path class="st3" d="M209.1-299.4c-1.8-0.6-3.6-0.4-5.3,0.5l-27.1,14.4c0.1-2.6-0.4-5.1-1.5-7.3c-1.9-3.5-4.7-5.8-8.5-7
							c-3.8-1.2-7.4-0.9-11,1c-3.5,1.9-5.8,4.7-6.9,8.5c-1.2,3.8-0.9,7.5,1,10.9c1.2,2.2,2.9,4,5.1,5.4l-27.1,14.4
							c-1.8,0.9-2.9,2.3-3.5,4.2c-0.6,1.9-0.4,3.7,0.5,5.5l14.4,27.2c-2.6-0.1-5,0.4-7.3,1.5c-3.5,1.9-5.8,4.7-7,8.5
							c-1.1,3.7-0.8,7.4,1.1,10.9c1.9,3.5,4.7,5.9,8.4,7c3.8,1.2,7.4,0.9,10.9-1c2.2-1.2,4-3,5.3-5.1l14.4,27
							c0.9,1.8,2.3,2.9,4.2,3.5c1.9,0.6,3.7,0.4,5.4-0.5l27.2-14.4c-2.2-1.3-3.9-3-5.2-5.4c-1.8-3.5-2.2-7.1-0.9-10.9
							c1.1-3.8,3.4-6.6,6.9-8.5c3.5-1.8,7.1-2.2,10.9-1c3.8,1.2,6.6,3.5,8.5,7c1.2,2.3,1.7,4.7,1.5,7.3l27.1-14.4
							c1.8-0.9,2.9-2.3,3.4-4.2c0.6-1.9,0.5-3.7-0.4-5.4l-14.3-27.1c-1.3,2.2-3.1,3.9-5.4,5.1c-3.5,1.8-7.1,2.2-10.8,0.9
							c-3.8-1.2-6.7-3.5-8.5-6.9c-1.9-3.5-2.2-7.1-1-10.9c1.1-3.8,3.5-6.6,7-8.4c2.3-1.2,4.7-1.7,7.2-1.6L213.3-296
							C212.4-297.8,211-298.9,209.1-299.4z"/>
					</g>
				</g>
				<g transform="matrix( 1.173736572265625, 0, 0, 1.173736572265625, 1161.35,263.85) ">
					<path class="st4" d="M-801.6-452.5c1.9-1,4-1.5,6.2-1.3l-12.3-23.1c-0.8-1.5-2-2.5-3.6-2.9c-1.5-0.5-3.1-0.4-4.6,0.4
						l-23.1,12.2c0.1-2.2-0.4-4.3-1.3-6.2c-1.6-3-4-4.9-7.2-6c-3.2-1-6.3-0.7-9.3,0.9c-3,1.6-4.9,4-5.9,7.2c-1,3.3-0.7,6.4,0.9,9.3
						c1,1.9,2.5,3.4,4.4,4.6l-23.1,12.2c-1.5,0.8-2.5,2-3,3.6c-0.5,1.6-0.4,3.1,0.4,4.6l12.3,23.1c-2.2-0.1-4.3,0.3-6.2,1.3
						c-3,1.6-5,4-6,7.2c-1,3.2-0.7,6.3,0.9,9.2c1.6,3,4,5,7.2,6c3.2,1,6.3,0.7,9.3-0.9c1.9-1.1,3.4-2.5,4.6-4.4l12.2,23
						c0.8,1.5,2,2.5,3.6,2.9c1.6,0.5,3.1,0.4,4.6-0.4l23.1-12.2c-1.9-1.1-3.4-2.6-4.4-4.6c-1.6-3-1.8-6-0.8-9.3
						c0.9-3.2,2.9-5.6,5.9-7.2c3-1.6,6.1-1.8,9.3-0.9c3.2,1,5.6,3,7.2,5.9c1,2,1.4,4,1.3,6.2l23.1-12.2c1.5-0.8,2.5-2,2.9-3.6
						c0.5-1.6,0.4-3.1-0.4-4.6l-12.2-23c-1.1,1.8-2.7,3.3-4.6,4.4c-3,1.6-6.1,1.8-9.2,0.8c-3.3-1-5.7-3-7.2-5.9
						c-1.6-3-1.9-6.1-0.9-9.3C-806.6-448.6-804.6-451-801.6-452.5z"/>
				</g>
			</g>
			<g transform="matrix( 0.7002410888671875, 0, 0, 0.7002410888671875, -189.6,-484.05) ">
				<g>
					<g>
						<path class="st5" d="M-1000.9,231l8.2-24.7l24.6-8.2l-24.6-8.2l-8.2-24.6l-8.2,24.6l-24.6,8.2l24.6,8.2L-1000.9,231
							 M-765.4,62.1l19.5-6.5l-19.5-6.5l-6.5-19.5l-6.5,19.5l-19.5,6.5l19.5,6.5l6.5,19.5L-765.4,62.1 M-815.8-26l-31,10.3l31,10.3
							l10.2,30.9l10.3-30.9l30.9-10.3L-795.2-26l-10.3-30.9L-815.8-26 M-1037.1,158.8l14.4-4.8l-14.4-4.8l-4.8-14.4l-4.8,14.4
							l-14.4,4.8l14.4,4.8l4.8,14.5L-1037.1,158.8z"/>
					</g>
				</g>
				<g transform="matrix( 1.428070068359375, 0, 0, 1.428070068359375, 270.75,691.25) ">
					<path class="st4" d="M-905.7-376.2l-10.1,3.4l-3.4,10.1l-3.4-10.1l-10.1-3.4l10.1-3.4l3.4-10.1l3.4,10.1L-905.7-376.2z
						 M-724.8-495l-21.6,7.2l-7.2,21.6l-7.2-21.6l-21.7-7.2l21.7-7.2l7.2-21.6l7.2,21.6L-724.8-495z M-711.9-445.1l-13.7,4.6
						l-4.6,13.7l-4.6-13.7l-13.7-4.6l13.7-4.6l4.6-13.7l4.6,13.7L-711.9-445.1z M-867.4-345.3l-17.3,5.7l-5.8,17.3l-5.7-17.3
						l-17.3-5.7l17.3-5.8l5.7-17.3l5.8,17.3L-867.4-345.3z"/>
				</g>
			</g>
		</g>
	</g>
</g>
</svg>
