<?xml version="1.0" encoding="utf-8"?>
<!-- Generator: Adobe Illustrator 23.0.3, SVG Export Plug-In . SVG Version: 6.00 Build 0)  -->
<svg version="1.1" id="Layer_1" xmlns="http://www.w3.org/2000/svg" xmlns:xlink="http://www.w3.org/1999/xlink" x="0px" y="0px"
	 viewBox="0 0 269.7 236.7" style="enable-background:new 0 0 269.7 236.7;" xml:space="preserve">
<style type="text/css">
	.st0{fill:#3A955E;}
	.st1{fill:none;stroke:#395B14;stroke-width:10;stroke-linecap:round;stroke-linejoin:round;}
	.st2{fill:#7ED4A0;}
	.st3{fill:none;stroke:#385913;stroke-width:12;stroke-linecap:round;stroke-linejoin:round;}
	.st4{fill:#3B5C15;}
	.st5{fill:none;stroke:#3A5D13;stroke-width:10;stroke-linecap:round;stroke-linejoin:round;}
	.st6{fill:#385813;}
	.st7{fill:none;stroke:#3B5D14;stroke-width:7;stroke-linecap:round;stroke-linejoin:round;}
	.st8{fill:#A1F4FA;}
	.st9{fill:#FFFFFF;}
	.st10{fill:#F5FFEF;}
	.st11{fill:none;stroke:#3B5C15;stroke-width:8;stroke-linecap:round;stroke-linejoin:round;}
</style>
<g>
	<g transform="matrix( 0.9999847412109375, 0, 0, 0.9999847412109375, 921.45,541.6) ">
		<g>
			<g transform="matrix( 1, 0, 0, 1, 0,0) ">
				<g>
					<g>
						<path class="st0" d="M-663.1-530.3c-4.2-4.2-9.3-6.3-15.2-6.3H-895c-5.9,0-11,2.1-15.2,6.3s-6.3,9.2-6.3,15.2v183.7
							c0,5.9,2.1,10.9,6.3,15.1c4.2,4.2,9.3,6.4,15.2,6.4h216.7c5.9,0,11-2.1,15.2-6.4c4.2-4.2,6.3-9.2,6.3-15.1v-183.7
							C-656.8-521.1-658.9-526.1-663.1-530.3z"/>
					</g>
				</g>
				<g>
					<path class="st1" d="M-895-536.6h216.7c5.9,0,11,2.1,15.2,6.3c4.2,4.2,6.3,9.2,6.3,15.2v183.7c0,5.9-2.1,10.9-6.3,15.1
						c-4.2,4.2-9.3,6.4-15.2,6.4H-895c-5.9,0-11-2.1-15.2-6.4c-4.2-4.2-6.3-9.2-6.3-15.1v-183.7c0-5.9,2.1-11,6.3-15.2
						S-900.9-536.6-895-536.6z"/>
				</g>
			</g>
			<g transform="matrix( 0.7002410888671875, 0, 0, 0.7002410888671875, -834.45,-484.05) ">
				<g>
					<g>
						<path class="st2" d="M163.8-12.9c-27.3-27.3-60.2-40.9-98.7-40.9c-38.6,0-71.6,13.6-98.8,40.9C-61,14.4-74.6,47.3-74.6,85.9
							c0,38.6,13.6,71.5,40.9,98.7c27.3,27.3,60.2,41,98.8,41c38.5,0,71.4-13.7,98.7-41c27.3-27.2,41-60.1,41-98.7
							C204.7,47.3,191.1,14.4,163.8-12.9z"/>
					</g>
				</g>
			</g>
			<g transform="matrix( 0.6138458251953125, 0, 0, 0.6138458251953125, -731.9,-425.55) ">
				<g transform="matrix( 1.629058837890625, 0, 0, 1.629058837890625, 1192.3,693.25) ">
					<path class="st3" d="M-753.4-390.6l-24.8-26.2"/>
				</g>
			</g>
			<g transform="matrix( 0.6138458251953125, 0, 0, 0.6138458251953125, -732.5,-425.55) ">
				<g>
					<g>
						<path class="st4" d="M-43.2,32.6l-14.6,13.8L-17.3,89l14.5-13.8L-43.2,32.6z"/>
					</g>
				</g>
				<g transform="matrix( 1.629058837890625, 0, 0, 1.629058837890625, 1193.25,693.25) ">
					<path class="st5" d="M-767.9-397.1l8.9-8.5l24.8,26.2l-8.9,8.5L-767.9-397.1z"/>
				</g>
			</g>
			<g transform="matrix( 0.6136932373046875, 0, 0, 0.6136932373046875, -732.5,-425.55) ">
				<g>
					<g>
						<path class="st6" d="M-158.5-84.2c-15.1,11.6-23.8,26.8-26.2,45.5c-2.6,18.9,1.8,35.8,13.3,50.7
							c11.6,15.3,26.8,24.2,45.7,26.5c18.9,2.4,36-2.1,51.4-13.8c14.9-11.5,23.6-26.7,26.1-45.5c2.4-18.9-2-35.8-13.3-50.7
							c-11.9-15.3-27.2-24.2-46.1-26.7C-126.7-100.6-143.6-95.9-158.5-84.2z"/>
					</g>
				</g>
				<g transform="matrix( 1.6294708251953125, 0, 0, 1.6294708251953125, 1193.55,693.4) ">
					<path class="st7" d="M-809.7-401.9c-11.5-1.5-20.9-6.9-28-16.3c-7.1-9.1-9.8-19.5-8.2-31.1c1.5-11.5,6.9-20.8,16.1-28
						c9.1-7.2,19.5-10,31.1-8.5c11.6,1.5,21,7,28.3,16.4c7,9.1,9.7,19.5,8.2,31.1c-1.5,11.6-6.9,20.9-16,28
						C-787.5-403.2-798.1-400.4-809.7-401.9z"/>
				</g>
			</g>
			<g transform="matrix( 0.676544189453125, 0, 0, 0.676544189453125, -811.55,-472.95) ">
				<g>
					<g>
						<path class="st8" d="M-43.9,36.5c-2.1,15.3,1.5,29,10.8,41C-23.7,89.9-11.4,97.1,3.8,99c15.3,2,29.1-1.7,41.6-11.1
							c12-9.3,19.1-21.6,21.1-36.8c2-15.3-1.6-29-10.8-41c-9.6-12.4-22-19.6-37.3-21.6c-15.3-2-29,1.8-41.1,11.2
							C-34.9,9.1-42,21.4-43.9,36.5z"/>
					</g>
				</g>
				<g transform="matrix( 1.47808837890625, 0, 0, 1.47808837890625, 1199.55,699.05) ">
					<path class="st7" d="M-809-406c-10.3-1.3-18.6-6.1-25-14.5c-6.3-8.1-8.7-17.4-7.3-27.8c1.3-10.3,6.1-18.6,14.4-24.9
						c8.1-6.4,17.4-8.9,27.8-7.6c10.3,1.4,18.7,6.2,25.2,14.6c6.2,8.1,8.6,17.4,7.3,27.8c-1.4,10.3-6.1,18.6-14.3,24.9
						C-789.3-407.1-798.7-404.6-809-406z"/>
				</g>
			</g>
			<g transform="matrix( 2.59869384765625, 0.341278076171875, -0.341278076171875, 2.59869384765625, -176.05,-154.2) ">
				<g>
					<g>
						<path class="st9" d="M-252.5-88c-0.8,0-1.6,0.3-2.1,0.9c-0.6,0.6-0.9,1.3-0.9,2.1c0,0.9,0.3,1.6,0.9,2.2
							c0.6,0.6,1.3,0.8,2.1,0.8c0.8,0,1.5,0.3,2.1,0.9c0.6,0.6,0.9,1.3,0.9,2.1c0,0.9,0.3,1.6,0.9,2.2c0.6,0.6,1.3,0.8,2.1,0.8
							c0.8,0,1.5-0.3,2.1-0.8c0.6-0.6,0.9-1.3,0.9-2.2c0-2.5-0.9-4.6-2.6-6.3C-248-87.2-250.1-88-252.5-88z"/>
					</g>
				</g>
			</g>
			<g transform="matrix( 0.7002410888671875, 0, 0, 0.7002410888671875, -834.45,-484.05) ">
				<g>
					<g>
						<path class="st10" d="M-16.3,204.6l24.7-8.2l-24.7-8.2l-8.2-24.6l-8.2,24.6l-24.7,8.2l24.7,8.2l8.2,24.7L-16.3,204.6
							 M-60.7,157.1l14.4-4.8l-14.4-4.8l-4.8-14.4l-4.8,14.4l-14.4,4.8l14.4,4.8l4.8,14.5L-60.7,157.1 M204.4,79.9l6.6-19.5
							l19.6-6.5l-19.6-6.5l-6.6-19.5l-6.5,19.5l-19.5,6.5l19.5,6.5L204.4,79.9 M212-17.4l-30.9-10.3l-10.3-30.9l-10.2,30.9
							l-30.9,10.3l30.9,10.3l10.2,30.9l10.3-30.9L212-17.4z"/>
					</g>
				</g>
				<g transform="matrix( 1.428070068359375, 0, 0, 1.428070068359375, 1191.65,691.25) ">
					<path class="st11" d="M-686-496.2l-21.6,7.2l-7.2,21.6l-7.2-21.6l-21.7-7.2l21.7-7.2l7.2-21.6l7.2,21.6L-686-496.2z
						 M-673.1-446.3l-13.7,4.6l-4.6,13.7l-4.6-13.7l-13.7-4.6l13.7-4.6l4.6-13.7l4.6,13.7L-673.1-446.3z M-866.9-377.4l-10.1,3.4
						l-3.4,10.1l-3.4-10.1l-10.1-3.4l10.1-3.4l3.4-10.1l3.4,10.1L-866.9-377.4z M-828.6-346.5l-17.3,5.7l-5.8,17.3l-5.7-17.3
						l-17.3-5.7l17.3-5.8l5.7-17.3l5.8,17.3L-828.6-346.5z"/>
				</g>
			</g>
		</g>
	</g>
</g>
</svg>
